<?xml version="1.0" standalone="no"?>
<!DOCTYPE svg PUBLIC "-//W3C//DTD SVG 20010904//EN"
 "http://www.w3.org/TR/2001/REC-SVG-20010904/DTD/svg10.dtd">
<svg version="1.0" xmlns="http://www.w3.org/2000/svg"
 width="660.000000pt" height="660.000000pt" viewBox="0 0 660.000000 660.000000"
 preserveAspectRatio="xMidYMid meet">
<metadata>
Created by potrace 1.11, written by Peter Selinger 2001-2013
</metadata>
<g transform="translate(0.000000,660.000000) scale(0.100000,-0.100000)"
fill="#000000" stroke="none">
<path d="M3055 6593 c-52 -9 -61 -14 -76 -40 -13 -21 -16 -47 -13 -103 2 -41
6 -131 9 -200 3 -69 8 -154 10 -190 2 -36 6 -108 9 -162 6 -102 18 -147 38
-149 41 -4 199 9 207 16 10 10 9 70 -1 82 -6 8 -34 13 -69 13 -32 0 -61 4 -64
10 -3 5 -8 38 -11 73 -4 58 -3 64 18 75 13 6 36 13 53 14 24 2 30 9 36 34 3
17 2 40 -2 51 -6 18 -15 21 -48 18 -62 -5 -67 6 -76 170 -3 56 -7 111 -10 123
-6 35 24 61 78 66 57 5 59 7 62 43 3 50 -8 60 -72 60 -32 -1 -67 -3 -78 -4z"/>
<path d="M3508 6578 c-9 -7 -19 -31 -22 -53 -9 -68 -16 -128 -21 -180 -2 -27
-7 -72 -11 -100 -3 -27 -7 -68 -8 -91 -2 -22 -6 -46 -10 -52 -3 -6 -2 -13 3
-16 6 -4 6 -19 1 -39 -8 -31 -13 -72 -26 -219 -5 -61 -3 -68 13 -69 10 0 28
-2 40 -5 12 -2 24 0 27 4 4 7 13 58 22 126 5 43 19 66 40 66 24 0 32 -28 40
-130 6 -77 15 -90 62 -90 l35 0 -7 68 c-20 198 -20 195 9 227 26 30 70 105 60
105 -2 0 0 12 6 26 16 45 23 95 21 178 -2 149 -73 239 -197 251 -43 5 -65 3
-77 -7z m125 -108 c93 -74 61 -348 -47 -389 -32 -12 -39 -12 -47 0 -5 8 -7 21
-4 29 2 8 7 49 10 90 3 41 8 93 11 114 2 21 6 61 9 88 5 52 20 88 34 88 5 0
20 -9 34 -20z"/>
<path d="M2577 6515 c-13 -12 -12 -25 9 -102 13 -48 26 -97 28 -108 3 -11 18
-67 33 -125 16 -58 28 -111 27 -117 -1 -7 -2 -16 -3 -20 -2 -11 -112 145 -201
284 -46 73 -92 135 -102 139 -52 16 -70 -20 -48 -96 6 -19 13 -51 16 -70 3
-19 8 -44 11 -55 4 -11 8 -24 9 -30 18 -81 47 -203 60 -250 9 -33 18 -69 20
-80 2 -11 16 -69 31 -128 l27 -108 40 5 c23 3 43 5 45 5 7 1 -9 108 -23 157
-32 109 -72 284 -65 284 5 0 19 -15 32 -32 158 -219 245 -329 264 -334 42 -11
56 2 49 44 -7 39 -55 246 -64 272 -2 8 -6 24 -7 35 -2 11 -17 75 -35 142 -17
67 -33 130 -35 140 -3 16 -17 75 -30 123 -2 8 -4 21 -4 28 -1 17 -66 15 -84
-3z"/>
<path d="M1948 6314 c-16 -8 -28 -19 -28 -25 0 -6 44 -97 98 -202 109 -213
115 -227 102 -227 -12 0 -94 74 -245 222 -71 71 -136 128 -145 128 -19 -1 -50
-24 -50 -38 0 -6 28 -69 62 -139 34 -70 62 -130 63 -133 1 -3 7 -18 13 -33 7
-16 12 -32 12 -37 0 -5 3 -10 8 -12 9 -4 132 -252 132 -266 0 -6 3 -12 8 -14
4 -1 17 -24 29 -50 18 -38 28 -48 47 -48 35 0 59 27 51 59 -3 14 -45 104 -92
199 -47 95 -84 175 -81 178 3 2 34 -21 70 -53 62 -56 123 -109 220 -192 26
-21 56 -42 67 -46 21 -6 61 9 61 24 0 8 -236 498 -314 651 -18 36 -39 66 -47
67 -8 1 -26 -4 -41 -13z"/>
<path d="M4141 6004 c-35 -44 -25 -94 22 -117 18 -9 84 -35 147 -58 401 -145
757 -370 1060 -669 117 -116 214 -223 249 -274 8 -12 18 -23 21 -26 16 -13
134 -185 184 -267 161 -266 309 -641 351 -893 3 -19 8 -42 10 -50 2 -8 7 -34
10 -57 3 -23 8 -57 11 -75 14 -106 17 -153 17 -348 1 -192 -7 -350 -18 -413
-3 -11 -7 -39 -10 -62 -40 -288 -138 -608 -271 -882 -36 -73 -85 -167 -110
-210 -47 -79 -181 -284 -193 -293 -3 -3 -33 -39 -66 -80 -123 -154 -326 -355
-450 -446 -22 -16 -44 -34 -50 -41 -14 -16 -239 -164 -305 -200 -144 -80 -193
-104 -290 -146 -204 -86 -515 -179 -645 -192 -18 -2 -120 -17 -140 -21 -130
-25 -631 -24 -747 0 -13 3 -43 8 -68 11 -25 4 -54 8 -65 10 -11 3 -34 6 -51 9
-112 17 -365 92 -533 158 -149 58 -422 203 -518 274 -17 13 -34 24 -37 24 -5
0 -166 118 -176 129 -3 3 -44 39 -92 79 -143 121 -337 331 -444 482 -21 30
-41 57 -44 60 -8 8 -83 127 -133 211 -63 109 -177 347 -177 371 0 8 -4 18 -9
24 -22 22 -135 407 -146 496 -2 15 -8 51 -14 80 -10 52 -13 70 -28 213 -10 93
-10 452 0 540 5 39 9 77 9 85 0 8 4 35 8 60 5 25 11 65 15 90 3 25 10 60 15
79 5 19 7 38 4 42 -2 4 1 11 7 14 5 4 8 13 5 20 -2 7 -2 16 2 19 3 4 7 17 9
29 13 81 99 332 163 472 106 232 193 382 332 569 68 92 75 131 32 165 -55 43
-101 21 -169 -80 -16 -24 -33 -46 -36 -49 -12 -11 -137 -208 -173 -273 -61
-110 -129 -251 -171 -352 -25 -60 -114 -329 -120 -364 -3 -16 -9 -41 -15 -55
-8 -21 -20 -78 -45 -216 -9 -51 -17 -104 -20 -137 -2 -21 -7 -69 -12 -108 -15
-131 -8 -556 12 -665 2 -14 6 -45 9 -70 24 -195 102 -480 194 -710 32 -81 120
-262 167 -345 31 -54 129 -214 142 -230 5 -5 30 -41 57 -79 138 -194 345 -411
564 -590 109 -89 406 -286 431 -286 5 0 11 -3 13 -7 5 -13 226 -118 348 -166
107 -43 356 -122 416 -133 14 -3 54 -11 88 -19 96 -22 160 -31 356 -53 110
-12 635 -5 635 8 0 1 16 3 35 5 37 5 118 17 135 21 6 1 27 4 47 8 21 3 59 11
85 17 27 6 56 12 65 14 69 14 246 69 363 113 194 72 462 210 606 311 20 15 47
33 59 41 35 23 200 150 240 184 94 81 320 317 390 406 19 25 37 47 40 50 4 3
35 48 71 100 35 52 67 97 70 100 30 27 190 326 254 476 67 156 162 446 181
554 3 14 7 32 9 40 2 8 7 29 10 45 2 17 7 41 10 55 7 36 13 69 19 120 3 25 8
54 10 65 20 102 28 574 12 705 -14 117 -31 227 -40 258 -3 9 -7 33 -10 52 -3
19 -21 91 -41 160 -19 69 -37 132 -39 140 -27 105 -176 435 -254 564 -23 37
-42 72 -42 77 0 5 -4 9 -9 9 -5 0 -11 8 -15 18 -5 17 -19 40 -43 71 -6 9 -46
62 -87 118 -363 492 -884 873 -1479 1082 -111 39 -149 40 -176 5z"/>
<path d="M1385 5985 l-29 -24 39 -57 c22 -32 44 -62 50 -69 5 -6 15 -18 20
-27 39 -61 190 -268 197 -268 4 0 8 -5 8 -10 0 -6 19 -36 43 -67 23 -30 47
-63 52 -71 6 -9 18 -25 28 -36 9 -11 17 -23 17 -28 0 -4 9 -12 19 -18 16 -8
26 -5 50 16 l30 25 -22 33 c-12 18 -49 70 -82 116 -33 45 -67 92 -75 105 -8
12 -27 38 -41 56 -84 112 -139 190 -139 199 0 5 -4 10 -8 10 -5 0 -30 32 -56
70 -27 39 -54 70 -61 70 -6 0 -25 -11 -40 -25z"/>
<path d="M1075 5731 c-22 -10 -59 -37 -82 -61 -59 -59 -58 -83 10 -153 94 -99
333 -351 393 -415 75 -81 107 -99 137 -79 104 69 147 174 108 262 -25 55 -112
157 -257 302 -165 164 -215 187 -309 144z m111 -100 c21 -11 147 -135 228
-223 134 -146 161 -202 116 -243 -18 -16 -23 -17 -45 -5 -40 21 -394 395 -406
428 -6 17 15 45 41 55 15 5 45 0 66 -12z"/>
<path d="M3287 5504 c-1 -1 -45 -5 -97 -9 -52 -4 -97 -8 -101 -10 -3 -2 -32
-7 -65 -10 -32 -3 -88 -13 -124 -21 -36 -9 -72 -17 -81 -19 -58 -12 -239 -74
-328 -112 -451 -193 -770 -443 -1014 -796 -26 -37 -47 -70 -47 -73 0 -3 -9
-18 -19 -33 -20 -27 -131 -244 -131 -254 0 -3 -15 -39 -34 -80 -32 -69 -103
-267 -112 -312 -2 -11 -11 -49 -20 -84 -20 -83 -24 -100 -29 -136 -3 -16 -8
-43 -11 -60 -4 -16 -8 -41 -10 -55 -1 -14 -6 -56 -11 -95 -15 -127 -7 -522 11
-576 3 -8 7 -30 10 -49 34 -220 131 -482 255 -685 54 -89 135 -209 156 -231 6
-6 27 -31 46 -54 18 -24 83 -92 143 -153 l109 -109 73 113 c41 63 74 116 74
119 0 3 -24 24 -53 48 -64 50 -204 194 -271 277 -87 108 -178 255 -251 409
-94 196 -131 297 -160 433 -2 10 -10 50 -19 88 -8 39 -17 97 -21 130 -3 33 -8
75 -11 94 -10 72 -4 316 10 436 14 123 18 150 21 155 2 3 6 26 10 50 4 25 13
68 22 95 22 71 103 265 123 295 10 14 39 61 65 104 43 71 110 164 169 235 58
69 231 231 247 231 5 0 9 4 9 9 0 14 181 128 292 183 278 137 599 219 953 244
153 11 439 5 520 -10 11 -2 43 -7 70 -10 85 -12 99 -15 201 -41 253 -66 485
-174 701 -327 105 -74 124 -90 222 -189 177 -176 305 -360 422 -604 77 -161
161 -416 184 -552 11 -71 14 -90 20 -143 8 -58 8 -343 1 -395 -3 -16 -7 -55
-10 -85 -4 -30 -8 -62 -11 -70 -2 -8 -7 -35 -10 -60 -4 -25 -18 -85 -31 -135
-14 -49 -27 -98 -29 -108 -20 -87 -80 -234 -183 -447 -30 -63 -65 -140 -78
-170 -21 -52 -24 -55 -56 -53 -27 1 -62 5 -100 12 -3 0 -16 21 -28 46 -23 47
-63 76 -96 70 -10 -2 -22 -4 -26 -4 -3 -1 -12 -16 -18 -35 -16 -49 8 -91 63
-115 38 -17 80 -51 62 -51 -4 0 -2 -6 4 -14 7 -8 14 -39 17 -68 2 -29 9 -78
15 -108 5 -30 12 -86 15 -125 l5 -70 -71 75 c-38 41 -70 79 -70 85 0 5 -16 27
-35 48 -19 20 -48 58 -66 83 -27 40 -30 49 -20 71 14 32 7 42 -10 15 -12 -19
-15 -18 -60 30 -44 47 -49 49 -90 46 -24 -2 -50 -7 -57 -12 -17 -10 -5 -50 32
-111 67 -109 66 -106 38 -143 -33 -43 -18 -56 16 -14 l27 32 53 -72 c47 -62
52 -75 46 -102 -5 -17 -8 -33 -9 -36 0 -3 -3 -9 -7 -15 -3 -5 -9 -46 -12 -90
-4 -44 -8 -89 -11 -100 -2 -11 -4 -33 -4 -49 l-1 -29 -26 39 c-15 21 -30 41
-33 44 -4 3 -31 40 -61 83 -74 108 -109 130 -175 112 -36 -10 -52 -25 -75 -72
l-17 -36 -35 59 c-59 99 -61 103 -58 183 4 118 4 126 -14 163 -39 82 -122 60
-144 -38 -10 -45 9 -119 60 -239 29 -67 40 -95 43 -111 2 -7 28 -63 58 -125
30 -63 68 -145 84 -182 39 -94 49 -103 113 -102 61 0 81 18 64 57 -34 76 -100
207 -114 228 -23 33 -23 35 -4 72 30 58 40 62 67 26 13 -18 27 -40 31 -48 3
-8 20 -35 36 -60 17 -25 36 -56 42 -70 7 -14 29 -50 49 -80 l36 -55 60 3 c36
2 60 8 61 15 3 19 13 346 13 412 l0 60 20 -25 c77 -96 148 -151 196 -152 41
-1 83 29 84 61 3 47 2 76 -4 101 -40 177 -48 221 -51 264 -2 28 -7 66 -11 85
l-8 34 34 -7 c19 -4 41 -9 49 -11 8 -2 23 -4 32 -4 14 -1 16 -11 13 -73 -4
-90 21 -167 68 -202 51 -39 113 -39 152 -1 69 70 76 148 20 225 -20 27 -43 50
-50 50 -7 0 -18 7 -25 15 -7 9 -32 20 -56 26 -46 12 -51 18 -32 37 7 7 9 12 5
12 -8 0 59 127 131 244 173 287 270 536 327 846 25 136 26 153 30 370 3 196
-6 329 -30 440 -3 14 -8 39 -10 55 -9 49 -53 205 -80 285 -98 283 -323 609
-577 835 -89 79 -241 195 -257 195 -5 0 -11 4 -13 9 -5 12 -139 91 -245 145
-110 55 -266 114 -382 145 -86 23 -96 26 -152 35 -19 3 -44 8 -55 10 -92 19
-203 28 -362 30 -73 1 -134 1 -135 0z m1540 -3630 c9 -24 -4 -28 -31 -10 -31
20 -26 52 6 35 10 -6 22 -17 25 -25z m317 -171 c34 -34 40 -57 24 -90 -11 -22
-20 -27 -42 -25 -33 4 -52 20 -66 57 -11 29 -13 88 -4 98 10 10 62 -13 88 -40z
m-1085 -52 c6 -10 13 -38 16 -61 3 -23 8 -46 11 -51 3 -5 1 -9 -4 -9 -14 0
-52 80 -52 111 0 33 14 38 29 10z"/>
<path d="M2971 5023 c-34 -28 -32 -83 6 -193 24 -69 23 -79 -4 -97 -21 -14
-25 -12 -76 41 -39 40 -64 57 -89 61 -68 11 -101 -62 -62 -138 9 -17 44 -63
76 -102 33 -38 66 -83 74 -98 15 -28 15 -28 -8 -16 -13 7 -25 15 -28 18 -3 3
-25 17 -49 30 -35 19 -45 21 -52 10 -21 -34 -13 -46 81 -119 93 -71 140 -132
155 -204 2 -11 15 -63 30 -114 14 -52 23 -98 19 -103 -3 -5 2 -12 10 -15 9 -3
16 -11 16 -16 0 -6 -15 1 -33 15 -42 32 -71 21 -35 -13 12 -12 35 -28 51 -36
32 -17 31 -12 10 -60 -19 -44 -18 -43 -31 -105 -10 -51 -7 -127 7 -191 10 -42
7 -236 -4 -293 -33 -172 -58 -246 -144 -420 -29 -60 -69 -156 -87 -213 -39
-118 -46 -134 -125 -262 -47 -77 -63 -115 -84 -200 -29 -120 -38 -143 -65
-185 l-19 -29 4 74 c3 41 9 100 16 130 6 30 12 69 14 85 9 77 58 262 86 322
10 24 19 54 19 68 0 14 12 54 26 88 56 132 100 290 129 465 12 77 16 96 19
101 2 3 9 51 16 106 14 129 46 280 87 417 10 33 58 88 78 88 23 0 18 18 -9 36
-36 23 -54 8 -88 -72 -28 -66 -77 -202 -83 -234 -2 -8 -15 -51 -28 -95 -14
-44 -29 -98 -32 -120 -4 -22 -9 -49 -10 -60 -2 -11 -6 -36 -9 -55 -3 -19 -8
-46 -11 -60 -2 -13 -7 -42 -10 -65 -3 -22 -10 -65 -16 -95 -6 -30 -12 -67 -14
-82 -7 -48 -27 -111 -60 -193 -18 -44 -40 -122 -49 -173 -10 -52 -30 -139 -46
-195 -16 -56 -31 -121 -34 -144 -2 -23 -7 -46 -9 -50 -3 -5 -17 -66 -32 -136
-27 -130 -32 -297 -10 -297 9 0 33 24 142 145 97 109 217 279 289 412 38 70
117 268 174 433 18 52 39 109 46 127 8 17 14 36 14 42 0 6 4 19 10 29 5 9 24
49 41 87 17 39 50 108 74 155 59 117 131 288 148 352 8 29 13 75 12 101 -3 61
-53 163 -78 159 -9 -2 -17 2 -17 8 0 5 4 10 8 10 4 0 27 29 50 64 49 75 69 83
159 67 32 -6 72 -10 88 -9 37 2 105 53 105 78 0 25 -28 39 -59 30 -61 -17 -96
33 -47 65 13 9 63 26 111 39 68 18 92 30 111 52 29 36 31 87 4 114 -25 25 -26
25 -100 -1 -33 -11 -69 -19 -81 -17 -16 2 -6 13 48 47 91 59 111 78 139 132
24 48 25 86 2 101 -22 14 -39 9 -66 -20 -40 -41 -78 -62 -113 -62 -26 0 -30 3
-24 18 32 79 43 155 31 208 -6 26 -13 33 -40 38 -18 4 -40 4 -48 1 -21 -8 -40
-52 -45 -104 -5 -52 -24 -92 -56 -118 -12 -10 -37 -49 -55 -86 -49 -104 -107
-171 -205 -240 -10 -7 -19 -19 -21 -27 -1 -8 -5 -24 -9 -35 -3 -11 -8 -31 -11
-45 -11 -63 -48 -196 -58 -205 -7 -7 -8 -3 -3 13 3 12 8 37 11 55 2 18 6 43 9
57 3 14 7 34 9 45 2 11 7 40 12 65 11 57 11 62 13 78 0 7 7 12 14 11 28 -3 40
4 96 59 87 86 141 203 144 313 1 54 -22 90 -53 84 -22 -4 -70 -34 -70 -44 0
-10 -60 -71 -71 -71 -17 0 -9 25 24 76 53 84 57 91 63 144 7 58 1 92 -22 114
-31 31 -53 20 -80 -41 -29 -65 -69 -113 -95 -113 -13 0 -20 14 -28 51 -6 28
-9 55 -5 60 3 5 1 9 -5 9 -6 0 -8 6 -5 14 6 15 -21 75 -34 77 -4 0 -19 3 -33
5 -16 3 -35 -3 -48 -13z m164 -784 c-2 -11 -7 -50 -10 -86 -10 -101 -22 -119
-22 -34 -1 42 5 89 13 108 16 37 25 43 19 12z m-67 -46 c5 -10 10 -40 11 -68
1 -27 4 -66 5 -86 3 -54 -20 -38 -29 19 -9 55 -11 63 -24 122 -6 25 -10 51
-11 58 0 14 34 -17 48 -45z m177 13 c-9 -27 -43 -173 -44 -188 -1 -5 -5 -8
-10 -8 -8 0 -4 30 14 110 3 14 8 41 11 60 8 56 13 67 24 51 4 -8 7 -19 5 -25z
m40 -46 c3 -5 -5 -36 -19 -70 -14 -33 -23 -60 -21 -60 2 0 -5 -21 -15 -47 -10
-27 -22 -46 -26 -43 -5 3 -8 7 -8 10 1 3 12 37 24 75 12 39 24 78 26 89 2 10
8 24 14 30 5 7 7 16 3 19 -3 4 -1 7 5 7 6 0 13 -4 17 -10z m20 -105 c-9 -26
-20 -44 -23 -41 -2 3 3 26 13 51 9 26 20 44 23 41 2 -3 -3 -26 -13 -51z m40
-70 c-20 -36 -41 -65 -45 -65 -12 0 47 142 63 152 25 16 17 -23 -18 -87z
m-130 -85 c8 0 15 -4 15 -9 0 -19 -130 35 -145 59 -4 6 20 -3 54 -19 33 -17
67 -31 76 -31z m55 -18 c0 -5 -7 -9 -15 -9 -8 0 -15 4 -15 9 0 4 7 8 15 8 8 0
15 -4 15 -8z m25 -2 c3 -5 1 -10 -4 -10 -6 0 -11 5 -11 10 0 6 2 10 4 10 3 0
8 -4 11 -10z"/>
<path d="M2180 4703 c-11 -14 -21 -30 -21 -34 -1 -5 -2 -14 -3 -21 0 -6 -9
-12 -20 -14 -29 -4 -40 -20 -45 -66 -1 -3 -20 -25 -42 -47 -43 -42 -108 -82
-189 -116 -73 -31 -124 -69 -191 -143 -23 -25 -58 -105 -76 -175 -59 -230 84
-478 313 -543 35 -10 64 -21 64 -24 0 -3 -27 -19 -60 -35 -33 -17 -60 -33 -60
-37 0 -8 32 6 97 40 23 12 47 22 53 22 21 0 9 -17 -27 -38 -23 -13 -31 -22
-21 -22 10 0 31 13 47 29 33 32 39 31 39 -12 0 -21 -7 -31 -24 -37 -29 -11
-31 -20 -4 -15 33 6 40 15 40 46 0 17 5 29 13 29 8 0 13 -9 13 -20 -1 -29 18
-25 22 5 4 32 25 32 51 -1 12 -15 21 -21 21 -13 0 7 -9 23 -21 35 l-21 22 44
7 c66 11 68 12 153 39 153 48 243 120 298 236 28 58 31 74 31 151 -2 93 -29
197 -65 243 -10 13 -19 28 -19 32 0 16 -118 120 -161 142 -55 28 -119 82 -119
100 0 6 -4 12 -8 12 -12 0 -32 62 -32 100 l0 34 38 -36 c46 -45 129 -88 182
-95 55 -8 47 8 -38 74 -64 50 -103 84 -163 139 -37 36 -65 38 -89 7z m32 -98
c3 -3 2 -22 -1 -43 -6 -32 -10 -37 -30 -34 -13 2 -32 -5 -46 -18 -18 -17 -24
-18 -33 -7 -9 10 -5 23 15 53 15 21 31 42 37 46 13 9 50 10 58 3z m-139 -195
c-3 -11 -10 -23 -16 -27 -5 -3 -8 -2 -5 3 3 5 8 17 11 27 9 24 16 22 10 -3z
m97 10 c0 -5 -5 -10 -11 -10 -5 0 -7 5 -4 10 3 6 8 10 11 10 2 0 4 -4 4 -10z
m-69 -43 c-8 -8 -11 -7 -11 4 0 20 13 34 18 19 3 -7 -1 -17 -7 -23z m118 7 c9
-20 9 -25 0 -22 -14 5 -32 48 -20 48 4 0 13 -12 20 -26z m-46 -9 c-7 -21 -13
-19 -13 6 0 11 4 18 10 14 5 -3 7 -12 3 -20z m134 -55 c42 -57 103 -169 103
-189 0 -6 -9 -15 -19 -21 -18 -9 -22 -3 -41 58 -13 37 -40 100 -61 140 -22 39
-36 72 -32 71 5 0 27 -26 50 -59z m89 -30 c54 -56 66 -83 52 -120 -9 -24 -12
-21 -45 45 -20 39 -49 88 -66 109 -43 54 -6 33 59 -34z m-127 0 c32 -62 71
-169 71 -193 0 -7 -19 -20 -43 -29 l-43 -16 -2 38 c-2 21 -5 48 -8 61 -6 24
-13 199 -8 199 1 0 16 -27 33 -60z m-54 -126 c1 -10 5 -40 9 -65 7 -47 1 -59
-36 -72 -15 -5 -17 2 -17 65 0 67 12 101 33 95 5 -2 10 -12 11 -23z m-70 -53
c3 -68 -9 -101 -43 -123 l-33 -21 6 58 c4 32 9 66 10 74 2 9 4 21 4 28 1 11
27 22 45 19 5 -1 10 -17 11 -35z m-85 5 c0 -8 -5 -49 -11 -92 -8 -61 -17 -85
-40 -114 -51 -63 -56 -117 -23 -235 23 -84 1 -127 -32 -63 -30 57 -23 271 12
415 22 89 23 90 87 102 4 0 7 -5 7 -13z m-115 -70 c-14 -44 -18 -70 -31 -161
-8 -62 -11 -205 -4 -205 3 0 5 -10 6 -22 0 -13 4 -35 8 -50 13 -44 -8 -33 -47
25 -42 61 -58 117 -58 196 -1 60 2 76 26 155 18 63 23 69 60 89 49 26 55 23
40 -27z m-126 -53 c-18 -46 -21 -64 -25 -149 -3 -75 0 -100 21 -159 6 -16 3
-15 -13 5 -40 49 -68 184 -51 245 9 31 53 85 70 85 5 0 4 -12 -2 -27z"/>
<path d="M4125 4603 c-27 -7 -55 -42 -55 -67 0 -12 9 -32 19 -45 32 -42 82
-38 106 9 14 27 13 29 -11 44 -30 20 -23 38 13 31 73 -13 143 -94 188 -218 14
-40 31 -80 36 -90 9 -17 7 -18 -23 -12 -46 10 -43 7 -89 96 -44 84 -75 129
-89 129 -13 0 -3 -37 19 -74 12 -18 27 -52 36 -75 l14 -41 -27 -1 c-36 -1 -70
-7 -111 -20 l-34 -12 41 -18 c22 -11 44 -24 47 -29 4 -7 23 -8 48 -4 85 13
116 11 178 -11 l63 -21 43 24 c24 13 43 27 43 31 0 5 16 24 36 45 l35 36 -28
12 c-15 6 -62 11 -104 11 l-75 0 -37 77 c-71 151 -175 222 -282 193z"/>
<path d="M4685 4308 c-11 -7 -33 -28 -50 -47 -31 -35 -72 -75 -102 -101 -16
-15 -23 -14 -78 7 -81 32 -120 37 -195 23 -58 -11 -65 -10 -92 10 -36 26 -102
38 -154 28 -52 -11 -105 -61 -121 -113 -12 -36 -10 -264 1 -304 3 -9 8 -40 11
-70 4 -30 9 -63 11 -75 2 -12 7 -34 10 -51 39 -222 115 -353 231 -405 93 -41
229 -25 288 34 26 26 35 26 66 -1 22 -18 119 -25 161 -10 49 17 135 82 168
129 27 37 67 127 76 171 2 10 6 27 9 37 3 10 8 29 10 42 3 13 7 35 10 49 17
77 24 314 12 404 -20 156 -88 241 -198 251 -34 2 -62 -1 -74 -8z m124 -154
c39 -6 87 -82 98 -156 14 -97 2 -342 -19 -381 -6 -12 -11 -23 -10 -25 7 -8
-16 -64 -44 -113 -55 -92 -135 -154 -209 -159 -113 -8 -117 -3 -94 100 35 160
56 317 65 487 5 115 27 176 76 216 36 29 94 49 113 38 6 -3 16 -6 24 -7z
m-434 -50 c61 -19 83 -37 106 -89 25 -55 29 -87 29 -185 -3 -261 -48 -478
-109 -528 -62 -51 -159 -59 -220 -19 -40 27 -87 105 -97 163 -3 16 -7 36 -9
44 -3 8 -7 32 -10 53 -3 20 -7 52 -10 70 -11 84 -19 201 -19 292 1 183 43 224
223 218 36 -2 89 -10 116 -19z"/>
<path d="M1781 3281 c-8 -5 -14 -30 -15 -62 -2 -52 -4 -55 -42 -76 -21 -12
-38 -25 -37 -29 0 -4 29 -22 63 -41 34 -18 58 -27 53 -20 -6 6 -9 50 -8 96 2
68 6 87 21 98 10 7 21 13 25 13 5 0 32 -111 34 -142 1 -17 14 -11 56 24 l44
38 -38 0 c-40 0 -43 4 -51 58 -2 19 -7 37 -11 40 -10 10 -79 12 -94 3z"/>
<path d="M3735 3262 c-57 -19 -91 -67 -98 -139 -2 -26 -12 -29 -24 -10 -36 55
-164 57 -219 3 -49 -49 -60 -146 -25 -218 39 -81 113 -131 305 -205 122 -47
132 -48 148 -21 7 13 13 25 13 28 0 3 17 39 37 81 74 155 105 311 73 372 -8
15 -11 27 -8 27 16 0 -55 64 -84 76 -34 15 -83 17 -118 6z"/>
<path d="M2138 3194 c-3 -2 -36 -6 -74 -8 -63 -4 -71 -6 -96 -37 -32 -38 -37
-62 -10 -52 24 10 83 44 111 65 27 20 41 17 20 -5 -8 -7 -47 -36 -87 -64 -52
-37 -68 -52 -56 -57 9 -3 21 -3 27 0 9 5 9 4 1 -5 -7 -7 -29 -15 -50 -18 -47
-6 -123 -44 -146 -72 -24 -28 -43 -27 -24 1 23 33 20 36 -22 28 -51 -9 -104
-4 -148 15 -49 20 -39 28 12 10 31 -10 51 -11 85 -3 24 6 50 11 57 11 21 1 13
15 -20 38 -18 12 -40 31 -50 43 -16 20 -16 20 -54 -9 -44 -34 -89 -82 -102
-110 -43 -90 -53 -130 -57 -235 -3 -86 10 -128 71 -226 60 -96 157 -170 250
-191 40 -9 201 -10 247 -1 57 12 156 55 214 93 145 97 209 213 211 387 1 136
-32 232 -106 307 -43 43 -104 77 -153 86 -18 3 -35 8 -39 10 -4 3 -9 2 -12 -1z
m46 -191 c13 -10 32 -34 43 -53 19 -32 24 -50 38 -120 3 -14 7 -34 9 -45 3
-11 14 -37 25 -58 25 -49 20 -86 -21 -155 -112 -185 -375 -281 -550 -200 -74
35 -99 59 -141 140 -19 37 -46 81 -61 98 -33 40 -40 67 -32 138 13 123 32 162
80 162 107 1 276 8 295 13 57 15 99 32 135 55 84 53 134 60 180 25z"/>
<path d="M4790 3173 c-3 -111 -7 -160 -13 -170 -5 -9 -20 -11 -45 -6 -59 10
-111 7 -182 -10 -24 -5 -112 -53 -147 -79 -34 -26 -151 -130 -242 -215 -133
-125 -264 -203 -441 -263 -122 -42 -262 -54 -346 -31 -47 13 -63 2 -45 -31 14
-27 72 -62 121 -73 131 -30 381 45 563 167 80 53 98 70 282 253 201 201 246
226 262 147 13 -66 20 -80 46 -89 32 -10 37 -10 92 4 38 10 51 10 57 0 13 -20
9 -35 -11 -42 -21 -6 -311 -288 -311 -302 0 -9 -119 -132 -166 -172 -65 -55
-157 -112 -296 -184 -82 -41 -148 -73 -148 -70 0 3 -12 -2 -26 -12 -34 -22
-225 -98 -299 -119 -108 -30 -132 -53 -77 -74 95 -38 251 -27 382 25 17 7 29
11 50 16 15 4 22 6 95 34 22 8 47 17 55 20 32 11 -88 -71 -135 -92 -45 -20
-208 -71 -260 -81 -11 -2 -33 -7 -50 -10 -109 -25 -253 7 -317 69 -59 56 -125
171 -148 257 -32 117 9 217 105 255 11 4 44 10 73 14 49 6 52 7 40 24 -20 27
-89 33 -141 13 -182 -69 -207 -336 -51 -542 21 -27 43 -52 50 -57 7 -4 19 -13
26 -20 7 -7 31 -22 53 -33 35 -18 58 -26 115 -41 27 -7 183 -6 235 1 71 10
160 34 227 61 72 29 495 297 552 350 6 6 31 26 56 46 55 44 170 159 213 212
18 22 37 44 42 51 31 33 182 270 207 323 34 75 37 150 10 205 l-19 36 29 53
c16 29 32 71 35 94 5 47 -7 62 -75 88 -55 22 -82 22 -82 0z m86 -53 c25 -10
26 -13 20 -52 -8 -48 -35 -98 -53 -98 -32 0 -32 1 -19 90 11 77 10 75 52 60z
m-124 -169 c32 -11 97 -69 99 -89 0 -4 3 -18 5 -32 5 -26 -13 -80 -26 -80 -4
0 -16 22 -26 50 -10 27 -24 52 -32 55 -8 3 -39 -4 -68 -15 -58 -21 -84 -18
-84 10 0 9 -11 33 -25 53 -25 38 -22 45 22 53 15 3 29 7 31 8 6 7 68 -1 104
-13z"/>
<path d="M2064 1608 c-3 -12 -15 -29 -25 -37 -10 -9 -45 -69 -79 -134 -33 -65
-72 -136 -85 -157 -14 -22 -25 -44 -25 -50 0 -5 -13 -37 -29 -70 -16 -33 -28
-60 -26 -60 2 0 -8 -28 -24 -62 -31 -70 -44 -111 -45 -148 -1 -20 5 -25 34
-32 79 -16 119 -21 195 -22 77 -1 84 1 189 52 146 72 224 152 243 250 14 79
19 122 16 148 -20 159 -163 328 -287 340 -39 4 -45 1 -52 -18z m176 -126 c56
-57 62 -178 14 -271 -8 -14 -14 -31 -14 -38 0 -22 -101 -134 -147 -162 -50
-31 -142 -57 -168 -47 -14 5 -13 12 14 59 17 29 66 123 109 208 113 220 146
279 155 279 5 0 21 -13 37 -28z"/>
<path d="M3007 1412 c-40 -32 -77 -105 -83 -167 -1 -11 -5 -33 -8 -50 -4 -16
-9 -91 -11 -165 l-4 -135 -46 -44 c-67 -64 -116 -94 -155 -95 -30 -1 -36 3
-51 34 -35 74 -34 76 19 128 67 64 93 105 97 153 6 69 -48 124 -111 113 -59
-9 -70 -14 -107 -49 -140 -132 -117 -389 42 -472 40 -20 76 -16 141 17 53 27
160 122 160 143 0 4 7 7 15 7 8 0 15 -8 15 -17 0 -25 19 -82 47 -140 17 -35
34 -55 54 -63 52 -22 71 -8 150 109 40 61 75 108 77 106 2 -2 6 -18 9 -37 9
-60 65 -181 100 -215 50 -48 96 -38 156 35 39 47 106 150 120 184 14 34 37 59
37 41 0 -15 41 -34 85 -40 35 -4 51 0 74 16 31 22 37 20 44 -20 3 -13 8 -40
12 -59 5 -27 2 -42 -12 -60 -42 -56 -95 -177 -94 -215 0 -2 -4 -18 -9 -34 -7
-26 -4 -35 23 -64 65 -71 183 -105 245 -73 34 18 46 53 37 107 -4 19 -8 45
-10 59 -5 35 -34 185 -48 245 -12 54 -11 63 5 104 6 14 12 31 14 36 1 6 16 46
32 90 43 111 69 270 30 179 -6 -16 -17 -36 -23 -44 -6 -8 -28 -59 -49 -113
-38 -98 -46 -108 -51 -65 -2 13 -6 37 -8 53 -3 17 -8 50 -12 75 -16 104 -49
176 -88 190 -35 12 -47 4 -51 -34 -4 -36 -13 -42 -35 -22 -33 30 -57 27 -99
-13 -22 -21 -48 -53 -57 -72 -20 -37 -23 -126 -6 -158 6 -11 7 -22 2 -25 -5
-3 -12 -17 -15 -31 -7 -28 -66 -128 -78 -133 -4 -2 -8 -8 -8 -14 0 -20 -57
-76 -69 -68 -17 10 -59 94 -75 151 -12 38 -12 51 -2 65 7 11 20 45 28 76 15
53 15 59 -2 90 -14 27 -24 34 -53 36 -20 2 -45 -1 -55 -7 -25 -13 -52 -71 -52
-111 0 -23 -17 -53 -67 -118 -102 -133 -107 -134 -139 -34 -34 102 -22 180 46
313 7 14 24 67 36 114 14 54 22 118 18 140 -7 39 -32 85 -47 86 -6 0 -20 2
-29 4 -10 2 -32 -9 -51 -23z m59 -144 c-6 -66 -40 -201 -57 -227 -16 -25 -2
156 16 214 22 73 23 75 36 75 8 0 10 -18 5 -62z m-368 -165 c3 -34 -15 -78
-56 -132 -23 -31 -26 -32 -33 -15 -4 10 -6 44 -5 75 1 47 5 59 30 83 38 34 60
30 64 -11z m1125 -40 c3 -5 7 -31 11 -60 3 -28 8 -57 11 -65 8 -19 -8 -58 -34
-85 -27 -29 -37 -29 -56 0 -30 47 -25 138 12 194 15 22 47 31 56 16z m-467
-109 c-4 -33 -15 -58 -17 -38 -8 58 -6 74 11 74 5 0 7 -16 6 -36z m562 -356
c3 -44 15 -131 23 -177 5 -30 7 -56 6 -58 -7 -7 -73 21 -84 36 -14 19 -8 79
14 141 14 39 30 70 38 70 1 0 2 -6 3 -12z"/>
<path d="M3301 1208 c-18 -47 37 -100 83 -82 21 8 21 53 0 82 -21 30 -72 30
-83 0z"/>
</g>
</svg>
