<?xml version="1.0" standalone="no"?>
<!DOCTYPE svg PUBLIC "-//W3C//DTD SVG 20010904//EN"
 "http://www.w3.org/TR/2001/REC-SVG-20010904/DTD/svg10.dtd">
<svg version="1.0" xmlns="http://www.w3.org/2000/svg"
 width="700.000000pt" height="700.000000pt" viewBox="0 0 700.000000 700.000000"
 preserveAspectRatio="xMidYMid meet">
<metadata>
Created by potrace 1.11, written by Peter Selinger 2001-2013
</metadata>
<g transform="translate(0.000000,700.000000) scale(0.100000,-0.100000)"
fill="#000000" stroke="none">
<path d="M3330 5507 c-3 -3 -36 -8 -73 -12 -77 -7 -83 -8 -187 -30 -191 -41
-459 -148 -619 -248 -381 -237 -680 -599 -834 -1012 -39 -103 -81 -260 -97
-355 -5 -36 -13 -76 -16 -90 -14 -59 -13 -398 0 -505 43 -327 147 -607 324
-870 105 -156 117 -170 247 -301 251 -252 574 -441 898 -525 195 -50 330 -66
542 -64 215 3 241 5 410 39 150 30 346 101 505 181 50 25 223 133 260 162 153
120 269 229 352 333 33 41 67 84 77 95 9 11 44 63 77 116 145 226 252 510 289
764 3 17 7 41 10 55 14 63 17 354 6 461 -52 476 -246 885 -581 1219 -289 289
-663 488 -1045 555 -22 4 -50 9 -62 11 -13 2 -35 7 -50 10 -34 7 -427 17 -433
11z m390 -636 c74 -13 102 -20 218 -56 85 -26 254 -104 283 -131 8 -8 19 -14
24 -14 22 0 198 -147 269 -224 254 -275 379 -605 371 -976 -2 -74 -6 -144 -8
-155 -3 -11 -8 -40 -12 -65 -16 -101 -49 -204 -108 -335 -127 -282 -358 -518
-643 -659 -78 -38 -209 -88 -269 -102 -233 -55 -523 -51 -715 8 -258 79 -442
187 -616 362 -71 72 -167 193 -201 256 -11 19 -31 55 -45 80 -155 282 -198
681 -106 1005 53 187 129 340 241 485 70 90 91 112 179 189 210 184 449 295
723 335 105 15 322 14 415 -3z"/>
<path d="M3388 4835 c-2 -2 -30 -6 -63 -9 -267 -27 -578 -181 -778 -388 -198
-203 -323 -454 -372 -743 -19 -112 -10 -357 18 -485 68 -309 251 -591 507
-782 178 -132 363 -210 605 -253 60 -11 282 -14 345 -5 125 18 147 22 195 37
380 114 667 341 833 660 160 308 197 613 118 972 -19 85 -86 243 -144 341 -89
149 -221 297 -348 391 -66 49 -220 139 -238 139 -7 0 -16 4 -22 9 -12 13 -167
69 -207 76 -18 3 -48 10 -67 15 -19 5 -53 12 -75 15 -41 7 -301 15 -307 10z
m-170 -535 c95 -33 189 -108 259 -205 l21 -30 24 30 c117 151 242 224 393 229
231 8 423 -133 474 -349 28 -119 14 -291 -34 -425 -30 -83 -102 -184 -207
-287 -56 -56 -112 -110 -124 -120 -21 -18 -172 -154 -204 -183 -9 -8 -56 -51
-106 -95 -49 -44 -108 -97 -131 -119 -86 -79 -82 -79 -160 -6 -26 25 -84 77
-128 115 -44 39 -85 75 -91 80 -6 6 -46 42 -89 80 -177 157 -297 273 -355 341
-81 96 -137 223 -155 359 -11 78 -8 215 5 265 48 177 186 307 355 334 21 4 40
8 42 9 10 11 164 -7 211 -23z"/>
<path d="M6121 5343 c-35 -7 -123 -101 -153 -164 -14 -30 -29 -76 -34 -104 -4
-27 -8 -52 -9 -55 -1 -3 -5 -50 -9 -105 -4 -55 -9 -111 -11 -125 -2 -14 -7
-81 -10 -150 -4 -69 -8 -141 -10 -160 -3 -30 -12 -197 -20 -380 -8 -173 -19
-546 -18 -615 2 -94 19 -148 70 -217 57 -79 68 -145 49 -313 -3 -27 -8 -77
-11 -110 -3 -33 -7 -78 -10 -100 -2 -22 -7 -71 -10 -110 -4 -38 -8 -90 -11
-115 -2 -25 -6 -78 -10 -118 -3 -40 -7 -81 -9 -90 -1 -10 -6 -58 -10 -107 -4
-50 -8 -106 -10 -125 -2 -19 -7 -71 -10 -115 -4 -44 -8 -90 -10 -103 -2 -12
-7 -60 -10 -106 -10 -120 9 -180 75 -239 68 -61 160 -80 241 -48 40 15 98 69
122 115 31 59 32 138 31 2006 0 1551 -1 1627 -19 1663 -32 68 -109 106 -184
90z"/>
<path d="M621 5206 c-12 -14 -14 -29 -26 -146 -3 -36 -8 -76 -10 -90 -2 -14
-6 -54 -10 -90 -3 -36 -8 -81 -10 -100 -10 -84 -16 -138 -20 -180 -2 -25 -7
-67 -11 -95 -9 -66 -11 -80 -19 -144 -4 -30 -9 -63 -11 -75 -2 -12 -7 -57 -11
-101 -21 -257 8 -380 130 -559 77 -113 109 -293 86 -486 -4 -36 -11 -101 -14
-145 -4 -44 -8 -97 -11 -119 -2 -21 -6 -70 -9 -110 -3 -39 -8 -96 -11 -126 -2
-30 -7 -80 -9 -110 -13 -171 -22 -278 -30 -365 -12 -136 -14 -164 -20 -242 -3
-45 -8 -92 -10 -104 -10 -50 -6 -187 5 -227 7 -23 29 -61 48 -83 101 -117 293
-95 361 41 34 66 37 110 26 360 -2 47 -6 162 -9 255 -12 337 -22 572 -33 795
-22 460 -13 502 152 733 18 26 49 84 67 130 32 79 33 87 33 217 -1 121 -5 203
-20 405 -6 83 -14 204 -20 305 -3 47 -7 95 -9 105 -2 11 -7 70 -11 130 -4 61
-9 121 -10 135 -2 14 -4 35 -4 47 -1 24 -37 41 -53 25 -6 -6 -11 -174 -13
-423 -5 -587 -6 -635 -15 -648 -4 -7 -23 -11 -46 -9 l-39 3 3 536 c2 450 0
538 -11 548 -18 14 -47 4 -48 -18 -3 -50 -8 -216 -14 -451 -3 -146 -8 -339
-10 -429 -3 -121 -7 -166 -17 -172 -17 -11 -65 -11 -72 0 -9 13 -9 40 -1 568
7 494 7 501 -13 512 -15 8 -23 7 -32 -4 -15 -19 -18 -44 -26 -300 -3 -121 -8
-251 -9 -290 -6 -173 -18 -432 -19 -454 -3 -29 -32 -42 -64 -30 l-24 9 7 308
c4 169 9 343 10 387 9 238 8 355 -5 370 -15 19 -24 19 -39 1z"/>
</g>
</svg>
