<?xml version="1.0" encoding="UTF-8" standalone="no"?>
<svg
   xmlns:dc="http://purl.org/dc/elements/1.1/"
   xmlns:cc="http://creativecommons.org/ns#"
   xmlns:rdf="http://www.w3.org/1999/02/22-rdf-syntax-ns#"
   xmlns:svg="http://www.w3.org/2000/svg"
   xmlns="http://www.w3.org/2000/svg"
   viewBox="0 0 308.67999 330.17334"
   height="330.17334"
   width="308.67999"
   xml:space="preserve"
   id="svg2"
   version="1.1"><metadata
     id="metadata8"><rdf:RDF><cc:Work
         rdf:about=""><dc:format>image/svg+xml</dc:format><dc:type
           rdf:resource="http://purl.org/dc/dcmitype/StillImage" /></cc:Work></rdf:RDF></metadata><defs
     id="defs6" /><g
     transform="matrix(1.3333333,0,0,-1.3333333,0,330.17333)"
     id="g10"><g
       transform="scale(0.1)"
       id="g12"><path
         id="path14"
         style="fill:#ffffff;fill-opacity:1;fill-rule:nonzero;stroke:none"
         d="m 412.484,2068.88 c -0.605,0.63 -0.914,0.95 -1.836,1.29 -2.464,1.31 -4.585,3.54 -6.078,5.76 -1.207,1.9 -3.043,3.19 -5.203,4.18 l -3.676,2.58 c -1.511,1.6 -2.386,3.8 -4.867,4.49 -1.222,0.65 -1.515,1.59 -1.797,2.52 -1.191,2.53 -2.711,4.12 -5.168,5.43 -0.921,0.35 -1.836,1.3 -2.441,1.94 -2.141,1.61 -3.004,4.43 -5.145,6.04 -3.668,2.59 -6.386,6.08 -10.703,8.06 -4.293,2.6 -7.965,5.19 -12.918,6.55 -3.406,0.4 -6.812,1.42 -10.562,0.89 -2.188,-0.25 -4.391,-1.13 -6.59,-2.01 -2.211,-0.88 -4.73,-2.06 -6.02,-3.9 -1.296,-1.83 -2.578,-3.68 -4.492,-4.87 -1.902,-1.83 -2.574,-3.67 -3.562,-5.83 -1.36,-4.33 0.113,-7.79 2.832,-11.29 2.129,-2.24 4.555,-4.78 6.355,-7.32 1.809,-2.53 3.617,-5.07 6.375,-6.7 1.832,-1.29 3.371,-2.26 4.567,-4.16 1.207,-1.9 2.722,-3.5 4.222,-5.09 0.926,-0.97 2.137,-2.24 3.036,-3.82 1.199,-1.91 3.339,-3.51 5.152,-5.42 3.055,-2.58 6.418,-4.84 7.879,-8.93 0.605,-0.63 0.89,-1.58 1.519,-1.59 1.551,-0.35 2.762,-1.63 3.981,-2.9 3.636,-3.83 6.945,-8.59 11.219,-11.8 l 1.511,-1.6 c 1.477,-3.46 3.903,-6.02 6.328,-8.57 3.043,-3.19 5.758,-6.69 9.754,-8.97 2.133,-1.62 3.649,-3.21 4.836,-5.73 l 1.512,-1.59 c 6.703,-6.39 12.125,-13.39 18.504,-20.09 4.562,-4.17 8.812,-8.63 13.062,-13.1 2.727,-2.87 5.141,-6.05 8.496,-8.93 5.176,-4.81 9.707,-10.21 14.875,-15.63 1.215,-1.28 3.348,-2.89 5.184,-4.18 1.234,-0.66 2.148,-1.63 3.059,-2.58 3.652,-3.21 7.629,-6.12 11.921,-8.71 3.676,-2.58 7.446,-1.43 11.227,0.35 2.215,1.49 3.523,3.96 5.445,5.78 2.844,2.11 3.551,5.2 4.575,8.61 0.992,2.78 0.437,5.28 0.199,8.09 0.398,3.42 0.156,6.22 -1.328,9.06 l -2.071,4.1 c -2.32,6.92 -6.543,12.63 -11.089,18.03 -3.016,3.82 -6.364,6.71 -9.387,10.52 -1.188,1.9 -3.34,3.52 -4.215,5.71 -1.191,2.52 -3.324,4.13 -5.766,6.07 -2.136,1.61 -3.64,3.83 -5.132,6.67 -1.497,2.21 -3.614,4.45 -5.45,6.36 -3.035,2.56 -6.09,5.14 -8.183,8.62 -0.59,1.26 -1.508,2.22 -3.059,2.57 -3.082,1.32 -5.844,2.95 -7,6.09 -0.551,3.12 -2.672,5.36 -5.125,7.29 -2.133,1.62 -4.59,2.91 -4.519,6.04 -0.282,0.94 -0.907,0.95 -1.825,1.29 -2.168,0.99 -3.683,2.59 -4.879,4.48 z m 64.735,-14.4 c 1.504,-2.22 3.34,-3.51 5.484,-5.12 2.75,-2.24 5.496,-4.5 6.332,-7.95 0.281,-1.56 1.192,-2.52 2.723,-3.49 1.812,-1.92 3.644,-3.83 4.844,-5.74 l 5.765,-6.05 c 1.203,-1.28 2.117,-2.24 2.719,-3.5 l 3.937,-4.15 c 2.465,-1.3 4.278,-3.22 5.454,-6.36 0.265,-1.57 1.476,-2.85 3.324,-4.14 2.121,-2.23 4.226,-5.08 5.719,-7.93 0.296,-0.32 0.589,-1.25 0.89,-1.58 2.434,-2.54 3.899,-6.01 6.649,-8.26 2.117,-2.23 2.988,-5.06 3.226,-7.87 0.235,-2.81 1.426,-5.33 2.61,-7.85 1.191,-1.9 1.777,-3.78 1.71,-6.27 -0.128,-4.98 -0.261,-9.96 1.188,-14.67 -0.016,-0.62 0.27,-1.57 -0.367,-2.17 -1.004,-2.78 -1.082,-5.9 -1.457,-8.69 -0.727,-3.72 -2.36,-7.1 -3.703,-10.81 -0.321,-0.3 -0.332,-0.93 -0.977,-1.53 -0.996,-2.78 -1.383,-5.57 -3.914,-7.39 -1.609,-1.51 -1.66,-4 -3.258,-5.51 -2.558,-2.43 -4.183,-5.2 -5.816,-7.96 l -4.176,-5.19 c -1.598,-1.52 -3.512,-3.34 -4.484,-4.87 l -0.95,-0.91 c -4.726,-2.06 -7.328,-6.36 -11.433,-9.06 -3.18,-2.41 -5.434,-5.16 -8.918,-7.25 -3.473,-2.1 -6.902,-2.32 -10.305,-1.3 -2.168,0.99 -4.336,1.36 -5.844,2.95 -0.304,0.33 -0.929,0.34 -1.23,0.66 -3.715,0.71 -6.133,3.89 -8.559,6.43 -2.734,2.87 -5.16,5.43 -8.246,6.76 -1.527,0.97 -3.367,2.26 -3.941,4.15 -0.582,1.89 -2.442,2.55 -3.328,4.13 -2.403,3.18 -5.77,6.06 -8.504,8.94 -0.91,0.33 -1.203,1.27 -1.188,1.89 -0.582,1.89 -2.086,3.48 -3.625,4.46 -1.828,1.91 -4.59,3.53 -6.722,5.14 -0.934,0.35 -1.532,0.98 -2.121,2.24 -0.84,4.07 -3.899,6.64 -6.934,9.21 -1.543,0.97 -2.441,1.93 -3.348,3.51 -0.875,2.2 -2.379,4.42 -5.168,4.8 -2.172,0.37 -3.379,2.27 -4.265,3.85 -3.004,4.43 -6.961,7.95 -10.285,12.09 -0.602,1.26 -1.504,2.22 -2.418,3.18 -0.899,1.57 -1.797,2.53 -3.039,3.18 -1.844,0.68 -3.059,1.96 -3.957,3.54 -0.848,3.44 -2.993,5.05 -5.434,6.98 -2.727,2.87 -5.477,5.12 -8.852,6.77 -1.238,0.64 -2.144,1.61 -2.738,2.87 -0.883,2.2 -2.055,4.72 -4.519,6.02 l -0.309,0.33 -21.258,21.72 c -0.308,0.31 -0.601,0.63 -0.89,1.57 -1.184,2.53 -3.625,4.45 -6.407,5.46 -2.14,1.61 -3.027,3.81 -4.519,6.03 -0.899,1.57 -2.426,2.55 -3.946,4.15 -2.425,2.55 -5.8,4.82 -7.589,7.97 -0.282,0.95 -0.59,1.26 -1.528,1.6 -1.84,0.67 -2.734,2.25 -3.945,3.53 -1.797,3.15 -4.852,5.11 -7.285,7.66 -3.043,3.18 -6.074,6.38 -8.793,9.87 -1.821,1.92 -3.961,3.52 -5.774,5.44 -2.425,2.56 -4.23,5.1 -7.304,7.04 -2.453,1.31 -3.649,3.83 -4.832,5.72 -1.207,1.91 -2.09,3.49 -3.313,4.76 -1.515,1.6 -2.41,3.17 -2.687,4.74 -0.571,1.89 -0.52,3.75 -1.418,5.34 -1.5,2.21 -0.825,4.68 -0.762,7.17 0,0 -0.297,0.33 0.016,0.63 2.273,3.37 3.3,7.39 6.191,10.74 l 10.242,10.96 c 3.528,3.96 8.278,7.27 11.199,11.86 0.336,0.93 1.297,1.85 2.231,2.13 3.765,1.15 6.66,4.5 10.121,5.98 2.195,0.88 3.496,2.71 5.699,3.59 3.481,2.1 7.547,2.93 11.317,4.07 2.828,0.87 5.632,1.12 8.14,1.67 0.625,-0.01 0.625,-0.01 0.949,0.29 3.145,1.79 6.278,2.34 9.661,0.7 0.613,-0.65 1.554,-0.36 1.867,-0.05 1.894,0.57 3.133,0.54 4.363,-0.12 l 0.621,-0.01 c 4.395,1.14 7.738,-1.75 11.465,-2.47 1.555,-0.35 2.773,-1 3.367,-2.26 0.91,-0.96 2.145,-1.61 4.012,-1.66 2.164,-0.36 3.379,-1.64 5.215,-2.93 2.133,-1.61 3.937,-4.78 7.683,-4.25 0.938,0.29 1.539,-0.97 2.133,-1.6 1.195,-2.53 3.031,-3.82 4.547,-5.42 3.641,-3.82 9.215,-5.21 12.219,-9.65 -0.016,-0.62 1.211,-1.27 1.836,-1.29 1.222,-0.65 2.133,-1.61 2.722,-2.87 1.774,-3.78 4.524,-6.03 8.219,-7.99 1.531,-0.97 2.738,-2.26 3.961,-3.52 3.621,-4.46 7.246,-8.91 11.828,-12.45 1.836,-1.29 3.676,-2.59 4.231,-5.09 0.293,-0.95 0.918,-0.96 1.214,-1.28 2.766,-1.63 4.586,-3.55 6.711,-5.77 3.34,-3.52 6.368,-7.33 10.012,-10.54 l 2.457,-1.3 c 3.395,-1.65 5.516,-3.88 7.301,-7.04 3.312,-4.76 6.934,-9.21 10.258,-13.34" /><path
         id="path16"
         style="fill:#ffffff;fill-opacity:1;fill-rule:nonzero;stroke:none"
         d="m 501.465,2191.19 c 1.808,-2.5 3.965,-4.75 6.473,-6.74 1.378,-1.18 2.406,-2.62 2.976,-4.91 0.66,-1.69 1.691,-3.13 2.973,-4.91 2.152,-2.25 4.207,-5.11 5.906,-8.24 1.02,-1.43 2.758,-2.35 4.043,-4.14 0.676,-1.69 2.414,-2.61 2.109,-4.45 0.254,-0.36 0.153,-0.97 0.774,-1.07 3.89,-3.17 5.984,-7.62 9.172,-11.3 2.414,-2.61 4.363,-6.09 6.312,-9.56 3.492,-5.63 7.235,-11.62 12.059,-16.83 2.156,-2.25 4.664,-4.24 6.097,-7 0.926,-2.05 2.211,-3.84 3.852,-5.37 1.637,-1.54 2.668,-2.96 2.977,-4.92 0.148,-0.96 0.667,-1.68 0.925,-2.04 2.461,-4.19 5.641,-7.88 8.457,-11.81 0.524,-0.72 1.133,-0.82 1.996,-1.27 0.622,-0.11 1.133,-0.82 1.653,-1.54 3.328,-4.65 7.023,-9.06 9.644,-14.21 2.778,-6.15 6.262,-11.77 11.18,-16.37 1.895,-1.9 3.695,-4.4 5.133,-7.16 1.078,-3.02 2.879,-5.53 5.027,-7.77 3.293,-3.07 6.559,-6.13 9.492,-9.47 1.028,-1.42 1.946,-3.47 2.262,-5.41 0.824,-2.66 2.715,-4.56 4.512,-7.07 l 4.101,-5.72 c 2.16,-2.25 1.547,-5.94 -0.711,-8.09 l -8.23,-5.9 c -2.859,-2.05 -5.469,-4.47 -8.594,-6.15 -1.426,-1.03 -3.722,-1.6 -5.414,-2.27 -1.687,-0.66 -2.566,-0.21 -3.586,1.22 -1.547,2.16 -3.441,4.04 -5.793,5.07 -1.129,0.81 -1.894,1.89 -2.308,3.22 -2,5.06 -6.063,9.2 -9.028,14.11 -0.515,0.72 -1.75,0.92 -2.258,1.64 -2.007,1.27 -3.644,2.81 -4.101,5.72 -0.317,1.95 -2.211,3.84 -3.496,5.63 l -3.071,4.3 c -0.523,0.71 -1.285,1.79 -2.16,2.24 -3.23,1.49 -4.922,4.6 -6.609,7.73 -0.152,0.96 -0.676,1.69 -1.551,2.14 -0.762,1.08 -2.148,2.25 -2.562,3.58 -0.973,3.63 -3.282,6.86 -5.696,9.46 -2.922,3.32 -5.129,7.16 -8.41,10.23 -2.148,2.25 -2.515,5.78 -4.672,8.03 -2.402,2.61 -3.996,6.34 -7.129,8.44 -2,1.27 -3.886,3.17 -4.093,5.72 -0.215,2.56 -2.211,3.84 -3.504,5.63 -2.821,3.94 -5.528,8.49 -10.051,11.76 -0.602,0.11 -0.863,0.46 -0.762,1.07 -1.855,4.1 -4.41,7.68 -6.273,11.77 -0.649,1.69 -1.426,2.76 -3.168,3.68 -2.516,1.99 -4.664,4.24 -5.652,7.87 l -1.528,2.15 c -1.648,1.54 -2.562,3.57 -3.855,5.37 -2.668,2.97 -4.617,6.45 -6.926,9.67 -1.274,1.79 -2.313,3.22 -4.309,4.49 -0.867,0.46 -1.996,1.28 -2.144,2.26 -1.086,3.01 -3.496,5.62 -4.578,8.64 -0.668,1.69 -1.801,2.5 -2.817,3.94 -2.051,2.86 -3.496,5.62 -6.265,7.97 -1.118,0.82 -1.789,2.5 -2.551,3.58 -2.121,4.45 -5.035,7.77 -8.211,11.46 -3.035,2.71 -5.703,5.67 -6.313,9.55 -0.511,0.73 -0.418,1.34 -0.671,1.7 -3.024,2.71 -4.973,6.19 -7.743,8.54 -1.64,1.53 -2.929,3.32 -3.492,5.62 -1.226,3.99 -3.644,6.6 -6.058,9.21 -2.766,2.35 -4.196,5.11 -5.282,8.13 -0.257,0.36 -0.156,0.96 -0.422,1.33 -1.585,3.74 -1.179,6.2 2.047,8.5 3.942,2.83 7.871,5.65 11.559,8.82 l 3.941,2.82 c 1.274,2.01 3.207,2.32 5.578,1.29 l 3.321,-0.86 c 0.875,-0.47 2.351,-1.02 2.769,-2.35 0.926,-2.05 2.817,-3.94 4.114,-5.73 1.628,-1.54 2.914,-3.32 3.836,-5.36 2.21,-3.84 5.035,-7.78 8.207,-11.46 2.824,-3.95 5.289,-8.13 7.75,-12.33 0.257,-0.35 0.41,-1.33 1.031,-1.43 3.379,-2.45 4.613,-6.44 7.023,-9.05 1.379,-1.18 2.047,-2.87 4.149,-3.53 1.492,-0.56 2.156,-2.24 2.562,-3.58 0.735,-3.27 2.625,-5.16 4.055,-7.93" /><path
         id="path18"
         style="fill:#ffffff;fill-opacity:1;fill-rule:nonzero;stroke:none"
         d="m 705.723,2296.98 c 1.961,-3.94 4.515,-7.11 6.265,-10.66 1.188,-1.38 1.961,-2.95 2.352,-4.73 1.758,-5.52 4.301,-10.66 8.031,-15.2 0.977,-0.98 1.567,-2.16 2.164,-3.35 0.965,-4.93 3.32,-8.68 5.281,-12.62 2.536,-5.13 5.477,-10.06 7.629,-15.39 1.567,-3.16 2.543,-6.12 4.106,-9.27 0.387,-1.78 1.578,-3.17 2.152,-4.34 1.188,-2.37 2.352,-4.74 2.735,-7.5 0.007,-0.98 0.589,-2.17 1.378,-2.76 3.735,-2.57 5.09,-6.32 6.075,-10.25 1.355,-6.71 4.886,-12.83 8.613,-18.36 1.176,-1.38 1.758,-2.56 2.144,-4.34 0.2,-1.38 0.395,-2.75 1.184,-4.33 2.547,-4.15 3.902,-8.88 7.254,-12.63 0.375,-0.79 1.172,-1.39 1.562,-2.18 1.172,-1.38 2.352,-2.77 2.149,-4.34 0,-1.96 0.785,-3.54 1.555,-5.12 1.382,-1.78 2.55,-4.15 3.14,-6.31 1.363,-3.75 3.914,-6.91 5.875,-9.87 1.778,-2.57 2.938,-4.94 2.934,-7.89 0.39,-1.77 1.183,-3.36 2.148,-5.33 l 6.262,-12.62 c 1.379,-3.75 0.578,-6.11 -2.773,-8.27 -1.379,-1.18 -3.364,-2.16 -4.934,-2.94 -2.566,-0.78 -4.731,-1.36 -7.106,-2.54 -1.179,-0.58 -2.562,-0.78 -3.738,-0.38 l -2.754,0.6 c -1.586,0.19 -3.156,0.4 -4.14,1.39 -3.332,3.76 -8.243,5.74 -11.985,9.29 -1.57,1.19 -3.336,2.78 -5.707,3.57 -0.98,0 -0.976,0.98 -1.761,1.58 -2.75,4.54 -6.672,8.49 -11.387,11.06 -2.164,1.39 -4.719,2.58 -6.496,5.15 -1.957,1.97 -4.321,2.76 -5.688,5.53 -0.39,0.79 -1.777,0.59 -2.562,1.19 -1.575,0.2 -2.946,0.98 -3.539,2.18 -3.137,5.33 -8.442,9.09 -13.551,12.45 l -2.563,1.19 c -0.777,0.59 -1.562,1.19 -1.961,1.97 -1.164,3.36 -4.515,5.15 -7.464,7.12 -2.168,1.39 -4.122,3.36 -5.895,4.94 -1.18,1.38 -2.168,2.38 -3.926,2.97 -1.769,0.6 -2.957,1.99 -3.73,3.56 -1.188,2.37 -2.547,4.14 -4.524,5.13 -4.316,2.77 -7.074,7.31 -11,10.28 -6.875,4.95 -12.375,12.05 -19.261,17 -2.352,1.78 -4.711,3.55 -7.664,4.56 -1.571,0.19 -2.567,-0.78 -2.368,-2.17 0.59,-2.17 0.579,-4.14 2.352,-5.72 1.371,-1.77 2.551,-4.14 3.531,-6.12 2.149,-5.32 4.887,-9.86 6.649,-15.37 0.394,-0.8 0.773,-1.59 1.363,-1.79 3.734,-5.53 6.859,-10.85 9.605,-16.38 0.204,-0.39 0.395,-0.79 0.2,-1.38 0.179,-5.32 2.929,-8.87 5.863,-12.82 1.769,-2.56 3.336,-5.72 4.703,-8.49 0.988,-1.97 2.551,-4.14 1.758,-6.5 l 0.191,-0.39 c 1.375,-2.76 1.766,-6.51 3.926,-8.89 1.563,-2.15 3.32,-4.72 4.105,-7.29 0.786,-1.57 1.559,-3.16 3.141,-4.35 2.746,-2.56 4.32,-5.72 4.508,-9.07 0.578,-2.17 1.359,-4.74 2.723,-6.51 0.992,-0.99 1.777,-2.56 1.968,-3.95 1.563,-4.14 3.715,-8.48 6.465,-12.03 1.164,-1.39 1.367,-2.76 1.75,-4.53 0.395,-3.75 1.949,-6.9 3.524,-10.07 2.933,-5.91 0.55,-12.01 -4.977,-14.76 -1.383,-0.18 -2.164,-0.58 -2.754,-1.36 -0.594,-0.78 -1.387,-1.18 -2.168,-1.57 -3.75,-0.39 -6.715,-2.35 -9.676,-4.31 -3.156,-1.56 -4.148,-1.56 -6.886,1.01 -1.18,1.38 -2.356,2.77 -4.532,3.17 -0.972,0 -2.152,1.38 -2.347,2.76 -0.778,2.56 -1.364,5.71 -2.524,8.08 -2.168,4.34 -4.328,8.68 -6.672,12.44 -1.761,3.55 -3.925,6.89 -4.882,10.84 -0.786,2.57 -1.973,4.94 -3.926,6.91 -1.184,1.38 -2.168,2.38 -2.156,4.34 -0.196,1.38 -0.774,2.57 -1.364,3.75 -1.578,3.15 -3.136,6.31 -4.308,9.67 -1.371,3.74 -3.129,7.29 -5.684,10.45 -2.156,2.37 -4.113,5.33 -3.508,9.07 0.004,0.98 -0.597,2.17 -1.379,2.76 -1.968,1.99 -2.937,3.95 -3.726,6.52 -0.578,2.17 -1.36,3.75 -3.133,5.33 -2.359,2.76 -3.727,5.53 -4.898,8.87 -0.196,1.38 -0.977,1.98 -1.957,2.97 -1.969,0.99 -2.954,2.95 -3.325,5.72 -0.582,4.14 -1.754,8.47 -5.089,11.24 -1.192,1.38 -1.575,3.16 -2.36,4.73 -0.969,3.95 -2.344,7.69 -4.687,11.45 -0.395,0.79 -1.762,1.57 -2.559,2.18 -1.18,1.37 -1.957,2.96 -1.562,4.13 0.011,1.97 -0.575,3.16 -1.368,4.73 -0.964,2.96 -2.922,5.92 -3.507,9.08 -0.391,1.77 -1.965,2.95 -2.95,3.94 -1.375,1.78 -1.765,3.56 -2.148,5.33 -0.586,3.16 -2.149,6.31 -3.918,8.87 -0.785,0.61 -1.57,1.19 -1.563,2.18 -1.179,3.35 -2.937,5.92 -4.316,8.68 -1.562,2.17 -2.348,4.74 -3.316,7.7 -0.985,2.95 -2.352,5.71 -4.512,8.08 -2.746,2.57 -4.309,5.72 -4.695,9.47 -0.59,2.17 -1.372,3.75 -2.157,5.33 -1.554,3.16 -3.332,5.72 -3.519,9.07 l -0.574,1.18 c -1.985,1 -2.555,3.16 -2.555,5.14 l -0.391,0.78 c -2.945,2.97 -3.133,7.3 -5.289,10.65 -1.566,3.16 -2.543,6.12 -4.105,9.27 -2.157,3.36 -3.129,7.3 -4.895,10.85 -0.394,0.8 -0.586,1.19 -1.172,1.39 -2.554,2.17 -1.957,4.93 -1.746,7.49 0.789,4.33 3.75,5.31 7.696,7.26 3.164,1.58 7.691,3.33 12.035,5.48 1.972,0.98 3.34,0.2 4.332,-0.8 2.937,-2.96 6.875,-4.94 10.023,-7.32 1.184,-1.38 2.754,-2.56 3.738,-4.55 0.969,-1.96 2.934,-3.94 5.489,-5.13 0.593,-0.2 1.379,-0.79 1.773,-1.59 3.528,-5.12 7.258,-9.66 12.77,-12.84 0,0 0.582,-0.19 0.777,-0.58 0.977,-2.96 4.32,-3.76 6.09,-6.33 2.164,-3.35 5.109,-5.33 7.859,-7.9 1.367,-0.79 2.742,-2.57 3.524,-4.15 2.746,-4.53 7.078,-7.3 10.804,-10.87 1.176,-0.39 2.164,-1.39 2.75,-2.57 0.981,-0.99 1.375,-1.77 2.559,-2.18 0.586,-0.19 1.176,-0.39 1.371,-0.78 1.176,-3.36 4.121,-4.34 7.07,-6.33 0.594,-0.2 1.391,-0.79 1.379,-1.77 0.575,-2.17 1.766,-3.56 3.328,-4.75 2.75,-2.56 4.711,-6.5 7.856,-8.87 1.387,-0.81 2.355,-1.78 4.137,-2.39 2.945,-0.99 4.718,-3.56 7.074,-5.33 1.957,-1.98 3.726,-4.55 6.078,-6.33 4.137,-2.38 6.875,-6.91 10.609,-9.49 4.133,-3.35 8.258,-6.72 12.18,-10.68 1.582,-1.18 3.547,-2.17 4.918,-3.95 2.156,-2.36 4.711,-3.55 7.664,-4.55 1.973,-0.99 2.961,-0.01 3.16,2.55 -0.183,1.38 -0.379,2.76 -1.551,4.14 -1.574,3.16 -2.75,6.51 -4.308,9.67 -3.34,5.72 -5.293,11.64 -8.617,17.36 -0.985,1.97 -2.746,3.55 -3.325,5.72 l -3.539,7.11 c -1.359,3.74 -3.125,7.29 -5.472,10.05 -3.344,4.75 -5.09,10.26 -7.051,15.2 -1.375,2.76 -2.543,5.12 -4.106,7.3 -1.382,1.78 -2.164,3.36 -2.953,4.93 -0.777,1.58 -1.558,3.17 -2.742,4.54 -0.394,0.79 -1.371,1.78 -1.172,2.37 0.012,3.94 -2.738,6.51 -4.699,9.47 -2.348,4.73 -4.699,9.47 -6.461,14 -1.172,3.36 -2.539,6.12 -4.508,9.07 -4.703,7.5 -9.211,15.6 -12.726,23.69 -1.953,3.94 -3.524,8.08 -5.485,12.03 -1.558,3.15 -0.562,6.1 2.985,7.87 2.172,1.57 5.136,2.55 8.093,3.52 1.575,0.79 2.762,1.37 4.133,2.54 1.973,0.98 3.953,1.97 6.121,2.55 l 4.727,1.37 c 3.16,0.58 5.121,-0.41 6.5,-3.17 1.559,-3.16 3.32,-6.71 5.281,-9.67 2.539,-5.14 4.305,-10.66 7.438,-15.98 1.957,-2.97 3.73,-6.52 4.496,-10.06 l 0.601,-1.19 c 3.528,-5.14 5.278,-11.64 8.805,-16.76 2.754,-3.56 3.523,-8.09 5.484,-12.04 l 3.907,-9.86" /><path
         id="path20"
         style="fill:#ffffff;fill-opacity:1;fill-rule:nonzero;stroke:none"
         d="m 933.734,2365.2 c 1.071,-4.27 2.879,-7.91 3.84,-11.75 0.848,-1.61 1.274,-3.32 1.274,-5.13 0.531,-5.77 1.902,-11.32 4.574,-16.57 0.734,-1.17 1.058,-2.45 1.383,-3.73 -0.117,-5.02 1.375,-9.18 2.437,-13.46 1.383,-5.56 3.192,-11.01 4.153,-16.67 0.843,-3.41 1.164,-6.51 2.023,-9.93 -0.012,-1.81 0.84,-3.42 1.16,-4.7 0.637,-2.57 1.27,-5.14 1.055,-7.9 -0.219,-0.97 0.101,-2.26 0.746,-3 3.101,-3.32 3.621,-7.27 3.723,-11.32 -0.114,-6.84 2.015,-13.57 4.468,-19.77 0.852,-1.61 1.176,-2.88 1.16,-4.7 -0.113,-1.39 -0.218,-2.77 0.215,-4.48 1.59,-4.6 1.91,-9.52 4.36,-13.9 0.211,-0.85 0.855,-1.6 1.07,-2.45 0.844,-1.6 1.699,-3.2 1.172,-4.71 -0.434,-1.91 -0.012,-3.63 0.414,-5.34 0.957,-2.02 1.598,-4.59 1.699,-6.83 0.539,-3.96 2.352,-7.59 3.617,-10.9 1.184,-2.89 1.809,-5.44 1.168,-8.33 -0.004,-1.82 0.418,-3.53 0.953,-5.67 l 3.403,-13.67 c 0.527,-3.95 -0.754,-6.08 -4.496,-7.47 -1.606,-0.85 -3.735,-1.39 -5.446,-1.81 -2.664,-0.21 -4.906,-0.32 -7.48,-0.96 -1.274,-0.31 -2.676,-0.21 -3.731,0.45 l -2.562,1.17 c -1.5,0.53 -2.988,1.07 -3.746,2.24 -2.445,4.39 -6.82,7.39 -9.699,11.66 -1.274,1.5 -2.672,3.42 -4.805,4.7 -0.953,0.21 -0.734,1.18 -1.379,1.93 -1.703,5.01 -4.687,9.72 -8.754,13.25 -1.812,1.82 -4.043,3.53 -5.215,6.41 -1.5,2.35 -3.633,3.64 -4.379,6.63 -0.203,0.86 -1.593,0.97 -2.238,1.71 -1.484,0.54 -2.676,1.61 -2.976,2.89 -1.926,5.87 -6.297,10.69 -10.563,15.07 l -2.238,1.71 c -0.645,0.75 -1.281,1.51 -1.496,2.35 -0.418,3.53 -3.309,5.99 -5.754,8.56 -1.813,1.81 -3.313,4.16 -4.692,6.09 -0.855,1.6 -1.613,2.77 -3.199,3.74 -1.601,0.97 -2.457,2.57 -2.883,4.28 -0.632,2.57 -1.605,4.59 -3.304,5.98 -3.633,3.64 -5.325,8.66 -8.528,12.4 -5.644,6.31 -9.5,14.43 -15.136,20.74 -1.93,2.25 -3.844,4.48 -6.52,6.1 -1.488,0.53 -2.668,-0.22 -2.773,-1.61 0.101,-2.23 -0.329,-4.16 1.058,-6.08 0.961,-2.03 1.598,-4.6 2.129,-6.74 0.957,-5.65 2.66,-10.67 3.188,-16.45 0.211,-0.85 0.425,-1.7 0.949,-2.03 2.449,-6.19 4.363,-12.07 5.863,-18.05 0.109,-0.42 0.211,-0.86 -0.113,-1.39 -0.965,-5.23 0.949,-9.3 2.976,-13.78 1.176,-2.89 2.016,-6.31 2.774,-9.3 0.523,-2.13 1.594,-4.59 0.301,-6.72 l 0.109,-0.43 c 0.746,-2.99 0.312,-6.73 1.91,-9.51 1.067,-2.46 2.238,-5.35 2.445,-8.01 0.434,-1.71 0.86,-3.42 2.133,-4.92 2.129,-3.1 2.985,-6.52 2.446,-9.83 0.101,-2.24 0.316,-4.92 1.273,-6.94 0.75,-1.18 1.172,-2.88 1.063,-4.28 0.628,-4.38 1.808,-9.07 3.722,-13.13 0.856,-1.61 0.746,-2.99 0.746,-4.82 -0.433,-3.73 0.418,-7.16 1.274,-10.57 1.586,-6.41 -2.047,-11.85 -8.039,-13.34 -1.375,0.1 -2.243,-0.11 -2.993,-0.75 -0.738,-0.63 -1.597,-0.85 -2.453,-1.06 -3.734,0.43 -7.05,-0.84 -10.367,-2.12 -3.418,-0.85 -4.367,-0.64 -6.508,2.46 -0.851,1.6 -1.707,3.2 -3.734,4.06 -0.953,0.22 -1.809,1.82 -1.699,3.21 -0.215,2.67 -0.098,5.86 -0.742,8.43 -1.161,4.71 -2.332,9.41 -3.829,13.58 -0.949,3.85 -2.343,7.58 -2.437,11.64 -0.215,2.67 -0.848,5.23 -2.336,7.58 -0.859,1.61 -1.613,2.79 -1.184,4.7 0.11,1.4 -0.207,2.68 -0.515,3.96 -0.86,3.42 -1.711,6.83 -2.125,10.36 -0.539,3.95 -1.5,7.8 -3.313,11.43 -1.59,2.78 -2.859,6.1 -1.476,9.61 0.218,0.97 -0.106,2.25 -0.739,3 -1.5,2.36 -2.039,4.48 -2.23,7.16 -0.113,2.24 -0.539,3.95 -1.926,5.88 -1.703,3.2 -2.441,6.19 -2.871,9.72 0.113,1.38 -0.531,2.13 -1.277,3.31 -1.711,1.39 -2.246,3.53 -2.028,6.3 0.329,4.16 0.129,8.65 -2.539,12.07 -0.855,1.61 -0.855,3.42 -1.281,5.13 -0.105,4.05 -0.633,8.01 -2.117,12.18 -0.211,0.86 -1.387,1.93 -2.031,2.68 -0.844,1.6 -1.27,3.31 -0.629,4.37 0.429,1.93 0.105,3.2 -0.321,4.92 -0.32,3.09 -1.593,6.41 -1.488,9.61 0.012,1.82 -1.277,3.31 -2.015,4.49 -0.969,2.04 -0.969,3.84 -0.961,5.66 0.105,3.2 -0.739,6.62 -1.911,9.5 -0.636,0.76 -1.281,1.5 -1.058,2.46 -0.426,3.53 -1.594,6.42 -2.348,9.41 -1.062,2.46 -1.265,5.12 -1.586,8.22 -0.32,3.11 -1.066,6.09 -2.66,8.87 -2.137,3.1 -2.992,6.52 -2.559,10.26 -0.101,2.24 -0.527,3.96 -0.953,5.66 -0.851,3.41 -2.015,6.3 -1.476,9.61 l -0.324,1.28 c -1.7,1.4 -1.813,3.64 -1.383,5.56 l -0.207,0.85 c -2.239,3.53 -1.492,7.8 -2.871,11.55 -0.852,3.41 -1.164,6.5 -2.024,9.93 -1.383,3.74 -1.484,7.8 -2.445,11.64 -0.199,0.85 -0.313,1.28 -0.848,1.61 -2.023,2.67 -0.847,5.23 -0.101,7.69 1.715,4.05 4.816,4.36 9.09,5.44 3.421,0.84 8.23,1.59 12.921,2.75 2.129,0.53 3.317,-0.53 4.063,-1.7 2.238,-3.53 5.648,-6.31 8.203,-9.31 0.859,-1.6 2.141,-3.1 2.672,-5.24 0.539,-2.13 2.016,-4.49 4.262,-6.2 0.535,-0.32 1.179,-1.06 1.386,-1.92 2.352,-5.77 5.012,-11.01 9.703,-15.28 0,0 0.532,-0.33 0.633,-0.76 0.324,-3.09 3.426,-4.59 4.582,-7.48 1.391,-3.73 3.848,-6.31 5.981,-9.4 1.172,-1.07 2.129,-3.1 2.562,-4.8 1.696,-5.02 5.328,-8.67 8.199,-12.95 1.067,-0.63 1.825,-1.81 2.145,-3.09 0.738,-1.18 0.945,-2.03 2.023,-2.68 0.528,-0.32 1.059,-0.63 1.172,-1.06 0.422,-3.54 3.09,-5.14 5.543,-7.7 0.535,-0.33 1.168,-1.07 0.95,-2.03 0.101,-2.24 0.957,-3.85 2.238,-5.35 2.144,-3.09 3.207,-7.36 5.762,-10.36 1.179,-1.07 1.914,-2.25 3.523,-3.21 2.668,-1.61 3.84,-4.48 5.758,-6.73 1.488,-2.36 2.66,-5.25 4.586,-7.48 3.519,-3.22 5.215,-8.24 8.312,-11.56 3.309,-4.16 6.61,-8.32 9.602,-13.03 1.277,-1.5 2.988,-2.88 3.945,-4.92 1.602,-2.78 3.844,-4.5 6.512,-6.09 1.699,-1.39 2.887,-0.65 3.629,1.81 0.105,1.39 0.215,2.77 -0.629,4.38 -0.86,3.41 -1.285,6.94 -2.133,10.35 -2.02,6.31 -2.656,12.5 -4.68,18.8 -0.531,2.15 -1.914,4.08 -2.015,6.31 l -1.918,7.7 c -0.528,3.95 -1.485,7.8 -3.192,11 -2.23,5.35 -2.765,11.12 -3.617,16.34 -0.738,3 -1.379,5.56 -2.43,8.02 -0.968,2.03 -1.394,3.74 -1.828,5.45 -0.414,1.71 -0.84,3.42 -1.695,5.02 -0.215,0.86 -0.957,2.04 -0.641,2.57 0.852,3.83 -1.273,6.94 -2.55,10.25 -1.278,5.13 -2.555,10.26 -3.286,15.07 -0.425,3.51 -1.171,6.51 -2.441,9.82 -2.988,8.34 -5.652,17.21 -7.352,25.86 -1.058,4.28 -1.699,8.65 -2.757,12.93 -0.848,3.41 0.757,6.09 4.593,7.04 2.461,1.07 5.559,1.38 8.661,1.7 1.718,0.42 2.992,0.75 4.589,1.59 2.137,0.54 4.282,1.07 6.524,1.17 l 4.906,0.32 c 3.207,-0.12 4.906,-1.5 5.652,-4.5 0.86,-3.42 1.809,-7.26 3.102,-10.57 1.371,-5.56 1.891,-11.33 3.82,-17.2 1.27,-3.32 2.231,-7.17 2.227,-10.79 l 0.312,-1.29 c 2.348,-5.76 2.664,-12.5 5.004,-18.27 1.914,-4.05 1.699,-8.65 2.758,-12.92 l 1.695,-10.47" /><path
         id="path22"
         style="fill:#ffffff;fill-opacity:1;fill-rule:nonzero;stroke:none"
         d="m 1068.47,2423.31 c -0.27,-3.1 -1.37,-6.69 -1.17,-10.21 0.07,-1.33 0.13,-2.19 0.65,-3.49 1.01,-2.15 1.13,-4.35 0.36,-6.16 -0.31,-2.22 0.25,-4.39 0.82,-6.56 0.55,-1.74 0.62,-3.05 0.76,-5.25 -0.27,-3.11 -0.06,-6.62 0.14,-10.14 0.16,-2.64 0.29,-4.83 1.31,-6.98 0.99,-2.15 0.24,-4.39 0.4,-7.03 -0.58,-5.33 0.62,-10.55 0.92,-15.83 -0.34,-1.78 0.21,-3.52 -0.16,-4.87 -0.72,-2.68 0.76,-5.24 0.48,-7.91 0.1,-1.75 0.64,-3.48 -0.13,-5.29 -0.34,-1.79 -0.23,-3.55 0.74,-5.25 0.98,-1.71 1.12,-3.91 1.25,-6.11 -0.26,-3.1 0.36,-6.15 0.53,-9.23 0.29,-4.83 2.67,-7.78 6.72,-9.31 1.79,-0.33 3.18,-1.58 4.53,-1.94 3.15,-1.14 6.2,-0.51 8.81,0.07 0.89,0.06 1.74,0.55 2.64,0.16 3.6,-1.11 6.66,-0.49 10.13,0.59 3.89,1.12 6.58,0.39 8.52,-2.58 1,-2.15 2.02,-4.3 1.29,-6.99 -0.41,-0.46 -0.36,-1.34 0.1,-1.75 1.03,-2.59 0.73,-4.82 0.44,-7.47 -0.62,-4.46 0.06,-8.39 -0.12,-12.81 0.07,-1.31 0.14,-2.63 -0.68,-3.57 -1.94,-4.51 -3.21,-5.48 -8.13,-4.44 -2.24,0.75 -4.9,1.03 -7.08,0.47 -3.07,-0.19 -6.18,0.07 -8.76,-0.96 -2.59,-1.04 -5.67,-1.21 -8.23,-2.69 -4.71,-2.48 -7.99,-6.64 -8.53,-12.41 0.07,-1.32 0.56,-2.17 0.61,-3.05 0.66,-3.49 0.44,-7.47 1.09,-10.96 0.02,-0.44 0.05,-0.88 -0.34,-1.79 -0.31,-2.22 -1.03,-4.91 0,-7.49 0.03,-0.45 0.05,-0.89 -0.33,-1.79 -0.34,-1.79 -0.21,-3.98 1.24,-6.1 0.5,-1.29 1.04,-2.59 0.23,-3.96 -0.32,-2.22 -0.22,-3.98 0.8,-6.13 0.97,-1.27 1.03,-2.58 1.99,-3.85 1.06,-3.02 3.75,-3.76 6.44,-4.48 1.31,0.09 2.2,0.13 3.47,1.09 1.25,0.95 3.02,1.06 4.39,0.26 1.39,-1.24 2.72,-1.16 4.47,-1.07 0.89,0.06 2.2,0.13 3.1,-0.25 1.32,0.08 2.2,0.13 3.05,0.61 1.27,0.96 2.59,1.04 3.93,0.68 3.57,-0.68 7.53,-0.44 11.07,-0.68 3.08,0.18 5.8,-0.98 8.46,-1.27 0.88,0.06 1.33,-0.35 1.37,-0.8 0.98,-1.7 2.84,-3.36 2.97,-5.56 0.63,-3.05 1.73,-6.96 0.62,-10.55 -0.31,-2.23 -0.19,-4.41 0.38,-6.59 0.68,-3.94 0,-7.5 -2.89,-10.75 -1.25,-1.41 -3.01,-1.51 -4.75,-1.61 -1.33,-0.08 -3.11,0.26 -4.38,-0.7 -0.39,-0.9 -1.29,-0.51 -1.73,-0.53 -1.32,-0.09 -2.61,-0.61 -3.49,-0.66 -3.99,0.21 -7.82,-2.21 -11.46,-0.23 -1.81,0.78 -3.56,0.68 -5.3,0.13 l -6.98,-1.29 c -0.86,-0.48 -1.3,-0.51 -2.19,-0.13 -2.68,0.29 -5.75,0.11 -8.36,-0.49 -2.14,-1 -4.83,-0.28 -7.04,-0.41 -1.76,-0.1 -3.43,-1.52 -5.66,-1.21 -1.76,-0.11 -3.98,0.2 -5.68,-0.77 -1.72,-0.99 -3.93,-0.68 -5.3,0.12 -1.87,1.66 -4.07,1.53 -5.86,1.87 -4.03,1.08 -6.85,4.01 -7.93,7.47 -0.67,3.93 -1.75,7.39 -2.87,11.31 l -0.07,1.31 c 0.56,5.33 -1.5,10.5 -1.78,15.34 -0.1,1.75 -0.63,3.05 -0.27,4.39 0.4,0.9 0.38,1.34 -0.1,1.76 -1.96,3.41 -1.28,6.98 -1.08,10.96 0.36,1.35 0.26,3.11 0.16,4.86 -0.24,3.96 -0.44,7.48 -0.24,11.46 l -0.12,2.2 c -0.51,1.28 -1.06,3.02 -0.26,4.4 0.72,2.69 -0.33,5.71 -1.37,8.3 -1.03,2.58 -1.65,5.64 -0.04,8.37 0.76,1.8 0.67,3.57 0.56,5.33 l -1.76,7.39 c -0.07,1.32 0.31,2.23 0.26,3.11 0.7,3.12 0.09,6.18 0.78,9.31 l -0.46,0.41 c -2.8,2.48 -1.64,5.2 -0.91,7.89 0.37,1.34 0.26,3.1 0.17,4.42 -0.68,4.37 -0.91,8.33 -1.18,12.71 l -0.16,2.65 c -1.41,1.68 -1.08,3.47 -0.74,5.26 -0.18,3.07 -0.8,6.12 -1.42,9.16 -0.57,2.17 -0.69,4.38 0.53,6.21 0.36,1.34 0.74,2.25 0.23,3.55 l -0.19,3.08 c 0.63,4.44 -0.1,9.25 -1.23,13.59 -1.06,3.03 0.1,5.74 -0.93,8.33 -0.06,0.88 -0.09,1.32 0.32,1.79 1.18,2.71 1.02,5.35 0.42,7.96 l -0.07,1.31 c 0.62,4.45 -0.52,8.81 -1.19,12.73 -1.21,5.66 0.7,10.63 -0.04,15.88 -0.18,3.07 -0.8,6.13 -0.57,9.68 l -0.05,0.87 c -2,3.85 -1.3,6.98 -0.18,10.57 -0.05,0.88 0.36,1.35 -0.13,2.2 -0.6,2.62 0.13,5.3 -2.22,7.81 -0.5,0.86 -1.02,2.15 -0.63,3.06 0.78,1.81 1.12,3.59 1.46,5.37 0.59,4.89 0.33,9.29 0.05,14.12 -0.08,1.32 -0.16,2.64 0.2,3.98 1.02,5.36 3.34,10.79 7.1,14.54 3.72,4.17 7.96,7.08 14.14,7 1.32,0.08 2.61,0.59 3.44,1.52 2.12,1.46 3.86,1.99 6.55,1.27 0.45,-0.42 1.37,-0.81 2.21,-0.31 2.18,0.57 4.4,0.26 6.62,-0.05 2.23,-0.31 3.93,0.66 6.14,0.79 l 9.59,1.9 0.44,0.02 c 2.27,-1.2 4.86,-0.16 7.11,-0.91 2.67,-0.29 4.86,-0.15 7,0.85 1.27,0.96 3.03,1.06 4.4,0.26 1.4,-1.24 2.74,-1.6 4.47,-1.06 3.91,1.11 7.08,-0.46 8.61,-3.91 0.52,-1.29 1.02,-2.14 1.09,-3.46 0.06,-0.89 0.11,-1.77 0.6,-2.61 0.53,-1.73 0.64,-3.49 0.74,-5.25 0.65,-3.5 -0.05,-6.62 0.58,-9.68 0.1,-1.75 -0.71,-3.12 -1.04,-4.91 -1.09,-4.03 -2.74,-5.89 -7.6,-5.73 -2.64,-0.17 -5.24,-1.19 -7.79,-2.67 -2.62,-0.59 -4.35,-1.13 -6.62,0.06 -1.82,0.77 -3.16,1.13 -4.88,0.59 -0.86,-0.49 -2.19,-0.57 -3.51,-0.65 -0.43,-0.03 -1.31,-0.08 -1.72,-0.53 -1.63,-2.31 -4.3,-2.03 -6.08,-1.68 -1.35,0.36 -2.63,-0.16 -3.93,-0.68 -0.41,-0.46 -1.26,-0.96 -2.14,-1 -4.33,-1.59 -6.34,-4.79 -6.96,-9.24" /><path
         id="path24"
         style="fill:#ffffff;fill-opacity:1;fill-rule:nonzero;stroke:none"
         d="m 1302.21,2363.2 c -1.11,2.32 -0.9,4.51 -0.2,7.1 l 0.13,1.32 c -0.32,5.78 -1.51,11.64 -1.83,17.43 -0.19,2.68 -0.8,5.38 -2.3,8.19 -0.4,0.48 -0.76,1.4 -0.67,2.28 0.05,0.44 -0.3,1.36 -0.7,1.84 -1.54,2.36 -1.76,4.59 -2.91,6.48 -1.05,2.75 -0.79,5.39 -2.34,7.74 -1.45,3.24 -3.82,6.13 -5.8,8.54 l -2.8,2.93 c -0.33,1.36 -1.12,2.32 -2.34,3.33 -3.38,1.66 -6.71,3.75 -10.21,4.09 -3.08,0.3 -5.34,-0.36 -7.37,-2.82 -0.56,-1.27 -1.52,-2.06 -2.49,-2.85 -0.04,-0.43 -0.52,-0.84 -0.56,-1.27 -0.7,-2.59 -0.52,-5.26 -2.04,-7.33 l -0.09,-0.88 c 0.18,-2.67 -0.03,-4.86 -1.57,-6.92 -1,-1.23 -2.08,-3.33 -1,-5.65 0.36,-0.92 0.22,-2.24 0.15,-3.12 l -1.25,-12.7 c -0.04,-0.45 -0.13,-1.32 -0.61,-1.72 -0.25,-2.63 -0.91,-4.78 -0.73,-7.44 0.14,-3.12 0.27,-6.23 -0.89,-9.22 -0.57,-1.27 -0.7,-2.58 -0.43,-4.38 l -0.09,-0.88 c -1.05,-1.66 -0.82,-3.9 -0.99,-5.65 -0.03,-4.87 0.37,-9.77 -0.59,-14.98 -0.82,-3.91 -0.81,-8.33 -2.07,-12.2 -0.09,-0.87 -0.17,-1.75 0.19,-2.67 0.39,-0.49 0.25,-1.79 0.17,-2.67 l -1.24,-12.71 c -0.35,-3.51 -1.96,-6.45 -0.55,-10.12 l -0.08,-0.88 c -1.15,-2.54 -1.4,-5.17 -1.65,-7.8 -0.18,-1.75 0.09,-3.56 -0.08,-5.31 -0.7,-2.59 0.32,-5.78 0.05,-8.41 -0.21,-2.19 0.5,-4.03 2.16,-5.09 1.19,-1.44 2.98,-1.17 4.26,-1.74 2.59,-0.68 4.51,0.9 6.75,1.12 1.8,0.27 3.63,0.97 5.03,1.72 0.48,0.39 0.97,0.79 1.41,0.74 2.62,-0.25 4.16,1.81 5.59,2.99 1.1,2.11 2.5,2.86 4.77,3.53 1.85,0.7 3.73,1.84 4.82,3.95 1.48,1.62 2.62,4.16 4.54,5.75 0.48,0.39 1.01,1.22 1.05,1.66 0.12,1.32 0.7,2.59 0.82,3.91 0.57,1.27 1.13,2.54 2.59,3.73 l 1.96,2.02 c 1.67,3.37 2.83,6.36 4.05,9.78 1.06,1.67 1.7,3.81 1.49,6.05 l 0.12,1.31 c 0.34,3.5 2,6.89 2.78,10.35 0.25,2.63 0.99,5.65 1.26,8.29 0.21,2.19 -0.01,4.43 0.64,6.58 0.74,3.01 0.61,6.13 0.9,9.2 0.57,1.27 1.13,2.54 0.79,3.46 z m 33.96,-23.67 -0.09,-0.89 c -2,-2.46 -1.38,-5.18 -1.68,-8.23 -0.17,-1.76 0.05,-4 -1.89,-5.58 l -0.47,-0.39 c 0.17,-2.67 -1.35,-4.74 -1.56,-6.93 -0.21,-2.19 -1.26,-3.86 -0.56,-5.7 -0.04,-0.43 -0.53,-0.84 -1,-1.23 -1.46,-1.18 -1.62,-2.94 -1.36,-4.73 0.31,-1.36 0.18,-2.68 -0.34,-3.51 -2.19,-4.21 -2.66,-9.03 -4.79,-12.8 -1.01,-1.23 -1.58,-2.5 -2.14,-3.78 l -2.27,-5.08 c -0.08,-0.89 -0.17,-1.76 -0.65,-2.16 -1.48,-1.63 -2.53,-3.29 -3.98,-4.48 -1.88,-1.13 -2.1,-3.33 -3.14,-4.99 -0.61,-1.72 -1.66,-3.38 -3.5,-4.09 -0.93,-0.35 -1.88,-1.14 -1.97,-2.01 l -0.09,-0.88 c -1.52,-2.07 -3.06,-4.13 -5.42,-5.67 -0.44,0.04 -0.96,-0.8 -1.43,-1.19 -1.58,-2.5 -4.03,-4.91 -3.93,-8.46 0.22,-2.23 -0.82,-3.91 -0.61,-6.14 -0.16,-1.75 -0.3,-3.06 0.46,-4.47 -0.05,-0.44 0.34,-0.92 0.3,-1.36 -1.09,-2.1 -0.42,-4.38 0.28,-6.22 0.22,-2.24 0.93,-4.07 1.63,-5.91 -0.05,-0.45 0.35,-0.92 -0.09,-0.88 -0.86,-4.34 0.51,-8.45 0.12,-12.4 0.27,-1.8 1.05,-2.76 1.33,-4.56 l 0.89,-4.51 c -0.18,-1.75 0.52,-3.59 0.79,-5.38 l -0.04,-0.44 c -1.66,-3.38 0.27,-6.22 0.86,-9.37 l -0.09,-0.88 c -1.09,-2.11 -0.38,-3.95 0.31,-5.78 1.42,-3.69 2.38,-7.32 1.61,-10.79 -0.08,-0.87 -0.13,-1.3 0.3,-1.36 1.24,-1 1.11,-2.32 1.41,-3.67 l -0.51,-5.26 c -0.52,-0.83 0.71,-1.85 0.14,-3.12 -1.04,-1.66 -2.01,-2.46 -2.93,-2.8 -1.88,-1.14 -4.56,-1.32 -6.35,-1.59 -1.75,0.17 -3.11,-0.14 -4.38,0.43 -2.67,-0.18 -5.23,0.95 -7.9,0.76 -2.63,0.27 -5.68,0.56 -8.23,1.69 -2.15,0.65 -3.34,2.1 -3.66,3.47 -1.05,2.75 -2.07,5.95 -0.88,8.93 0.57,1.27 0.21,2.19 -0.1,3.55 l -1.59,6.35 c -0.75,1.4 -1.02,3.2 0.03,4.86 1.22,3.43 1.09,6.53 0.06,9.74 -0.66,2.27 -0.91,4.07 -0.27,6.22 0.34,3.5 -0.19,7.1 -1.64,10.33 -0.75,1.4 -1.49,2.8 -1.33,4.56 0.78,3.46 -0.67,6.7 -1.2,10.29 -0.54,3.6 -2.03,6.4 -4.39,9.28 -1.6,1.93 -2.83,2.94 -5.09,2.27 -2.25,-0.22 -4.45,0 -6.71,-0.67 -3.6,-0.54 -6.62,-4.22 -6.96,-7.73 -0.39,-3.95 -0.78,-7.89 -2.43,-11.26 l -0.17,-1.76 c 0.54,-3.58 -0.25,-7.05 -1.91,-10.43 -0.65,-2.15 -0.89,-4.78 -0.25,-7.06 -0.08,-0.87 0.32,-1.36 -0.21,-2.19 -0.56,-1.27 -1.13,-2.55 -0.86,-4.35 0.21,-2.22 -0.91,-4.77 -1.13,-6.96 -0.16,-1.75 -0.34,-3.5 -0.04,-4.87 -0.12,-1.31 -0.63,-2.15 -1.17,-2.98 -0.97,-0.79 -1.09,-2.11 -0.74,-3.02 0.71,-1.84 0.06,-3.99 -0.16,-6.19 -0.74,-3.01 -4.02,-4.91 -6.17,-4.26 -1.32,0.14 -2.63,0.26 -4.03,-0.48 -0.48,-0.4 -0.88,0.08 -1.32,0.12 -0.79,0.97 -2.1,1.1 -3.5,0.34 -0.48,-0.39 -1.35,-0.31 -2.19,0.22 -1.66,1.05 -3.47,0.78 -5.22,0.96 -2.19,0.21 -4.37,0.43 -6.61,0.19 -2.21,0.22 -3.83,1.7 -4.49,3.99 -0.92,4.07 -0.05,8.41 1.2,12.27 0.18,1.75 -0.05,3.99 0.12,5.73 l 0.13,1.32 c 1.94,1.59 1.22,3.43 0.91,4.79 -0.35,0.92 -0.27,1.8 -0.18,2.66 1.05,1.67 0.35,3.51 0.07,5.31 l 0.18,1.76 c 0.3,3.06 0.56,5.69 1.3,8.71 0.65,2.15 -0.06,4 -0.31,5.79 0.25,2.63 0.93,5.21 0.72,7.46 -0.23,2.22 0.86,4.33 1.56,6.92 0.13,1.31 0.26,2.63 -0.11,3.54 -0.13,3.12 0.61,6.15 1.74,8.7 0.49,0.39 0.1,0.87 0.14,1.3 0.78,3.46 0.68,7.02 1.02,10.52 0.36,3.51 0.21,6.61 0.07,9.73 0.17,1.76 0.78,3.47 1.4,5.18 1.08,2.11 0.86,4.33 1.07,6.53 l 0.86,8.76 c -0.49,4.03 -0.97,8.07 0.29,11.92 1.35,4.74 0.94,9.65 0.97,14.51 0.04,0.43 0.09,0.87 -0.31,1.36 -0.35,0.92 -0.22,2.24 0.3,3.07 1.1,2.1 1.75,4.25 0.2,6.61 -1.13,1.89 -0.44,4.47 0.64,6.58 1.58,2.49 2.33,5.53 2.19,8.63 -0.19,2.68 0.12,5.75 0.81,8.34 1.21,3.41 1.99,6.88 1.42,10.03 -0.26,1.8 -0.49,4.04 0.12,5.75 0.61,1.7 0.39,3.94 0.6,6.13 0.26,2.62 0.56,5.69 1.29,8.72 1.27,3.87 1.65,7.81 1.16,11.83 -0.4,0.48 -0.3,1.36 -0.22,2.24 l 0.12,1.32 c -1.53,2.36 -0.88,4.51 0.22,6.61 0.6,1.72 0.77,3.47 0.94,5.22 0.31,3.07 1.05,6.1 1.38,9.59 0.09,0.88 0.18,1.76 -0.18,2.68 -0.74,1.4 -0.6,2.72 -0.05,3.98 0.21,2.2 1.27,3.87 1.04,6.1 0.17,1.76 0.78,3.47 1.4,5.17 0.53,0.84 0.2,2.2 -0.15,3.12 -0.74,1.4 -0.17,2.68 -0.09,3.56 1.79,4.68 1.38,9.59 2.25,13.93 0.38,3.95 0.77,7.89 1.99,11.31 0.52,0.84 0.66,2.15 0.74,3.03 l 1.57,2.5 c 1.52,2.06 3.42,3.2 4.85,4.39 2.85,1.93 5.65,3.43 9.07,2.21 0.83,-0.52 1.27,-0.57 2.19,-0.22 1.45,1.19 2.76,1.07 4.46,0.45 0.45,-0.04 0.84,-0.53 1.33,-0.12 2.72,0.61 5.66,-1.01 8.42,0.06 0.48,0.39 1.8,0.26 2.63,-0.26 2.01,-1.96 4.69,-1.79 7.36,-1.61 2.68,0.19 5.34,0.36 8.32,-0.81 1.67,-1.05 3.74,-2.58 5.54,-2.32 2.23,0.23 3.49,-0.34 5.65,-0.98 2.2,-0.23 4.25,-1.75 6.31,-3.28 1.23,-1 2.94,-1.62 4.13,-3.06 l 9.17,-5.76 c 0.88,-0.09 1.27,-0.57 1.62,-1.49 1.46,-3.24 3.84,-6.13 7.21,-7.79 2.54,-1.13 2.72,-3.8 3.39,-6.08 l 0.7,-1.84 c 1.1,-2.32 2.17,-5.08 4.62,-7.09 1.18,-1.44 1.46,-3.23 1.68,-5.48 -0.09,-0.87 0.26,-1.78 0.61,-2.71 l 3.43,-5.65 c 0.8,-0.95 1.54,-2.36 1.41,-3.67 -0.29,-3.07 0.77,-5.83 0.91,-8.93 0.35,-0.93 1.22,-1.02 1.57,-1.94 0.71,-1.83 0.1,-3.54 -0.03,-4.85 -0.65,-2.16 -0.83,-3.91 -0.12,-5.75 0.35,-0.91 1.1,-2.32 0.58,-3.16 -0.25,-2.62 0.84,-4.95 1.02,-7.62 0.62,-2.71 0.37,-5.34 -0.33,-7.93 -0.6,-1.71 -0.3,-3.07 0,-4.43 0.24,-2.23 0.45,-4.46 0.24,-6.66 -0.18,-1.75 0.09,-3.54 -0.08,-5.3 0.27,-1.79 0.11,-3.55 -0.91,-4.78 -0.52,-0.84 -0.6,-1.7 -0.21,-2.18 1.02,-3.21 0.28,-6.22 0.02,-8.85" /><path
         id="path26"
         style="fill:#5b193e;fill-opacity:1;fill-rule:nonzero;stroke:none"
         d="m 1158.54,1515.83 c 0,0 9.09,-27.33 -4.49,-27.34" /><path
         id="path28"
         style="fill:#ffffff;fill-opacity:1;fill-rule:nonzero;stroke:none"
         d="m 1586.52,921.949 c 0,0 -56.17,-85.461 -161.92,-133.269 0,0 -92.38,-50.719 -177.1,-79.539 -15.96,-5.43 -28.09,-8.551 -46.4,-13.45 0,0 -9.38,-3.363 -12.18,-8.5 -3.26,-5.98 -0.14,-8.16 10.17,-11.293 0,0 52.5,-16.25 93.75,-5 0,0 156.52,40.383 217.47,87.821 0,0 174.15,118.172 219.95,249.901 0,0 -10.64,64.97 -86.44,-32.042 -2.22,-2.828 -49.73,-41.617 -57.3,-54.629" /><path
         id="path30"
         style="fill:#ffffff;fill-opacity:1;fill-rule:nonzero;stroke:none"
         d="m 1738.2,1114.9 c 0,0 -4.11,-6.19 -15.98,0.69 l 9.6,59.39 c 0,0 12.9,-4.7 24.77,-6.58 0,0 0.11,-37.19 -18.39,-53.5 z m -8.79,-86.5 -14.85,36.95 c -6.72,14.61 -25.32,3.24 -25.32,3.24 -40.15,-22.38 -37.96,0.12 -37.96,0.12 -1.87,21.25 -21.82,33.7 -21.82,33.7 34.63,17.87 65.93,7.04 65.93,7.04 37.77,-10.11 44.51,-43.58 44.51,-43.58 5.13,-21.53 -10.49,-37.47 -10.49,-37.47 z m 44.79,128.65 c 0,0 4.27,19.79 -9.79,26.35 l -39.38,13.65 c 0,0 -15,7.5 -11.33,-13.67 2.77,-15.91 -0.19,-39.44 -0.19,-39.44 0,0 -1.28,-22.81 -8.59,-22.14 -7.39,0.66 -26.14,6.29 -40,5.57 -10.51,-0.55 -49.79,2.13 -108.92,-46.94 0,0 -77.32,-70.62 -107.89,-97.61 -6.83,-6.609 -73.39,-57.539 -162.26,-79.91 0,0 -65.67,-15.961 -102.77,-2.328 0,0 -27.94,8.188 -19.92,-9.684 0,0 10.31,-17.5 40.13,-27.41 15.26,-5.066 34.95,-8.027 59.71,-3.988 0,0 117.77,17.281 202.31,96.801 0,0 60.87,55.399 87.44,87.579 0,0 41.34,45.77 62.58,46.77 0,0 11.58,0.56 12.9,-19.9 0,0 -0.08,-29.94 22.94,-32.87 0,0 9.8,-3.54 46.08,9.09 5.71,2 -0.23,-14 20.17,-33.91 0,0 -69.84,-146.439 -182.3,-228.49 0,0 -74.95,-44.711 -116.47,-76.851 0,0 -20.96,-15.11 -37.1,-24.278 -7.66,-4.363 -21.21,-10.66 -31.52,-14.711 -4.31,-1.691 -19.87,-5.421 -27.07,-6.832 -7.2,-1.429 -18.29,-6.269 -38.03,-12.007 -20.21,-5.86 -48.95,-9.653 -48.95,-9.653 0,0 -80.05,-11.316 -119.25,45.774 0,0 -75.76,95.519 -30.8,153.488 0,0 26.84,30.738 59.07,26.621 0,0 21.91,-3.973 15.34,8.219 0,0 -13.43,18.441 -47.25,9.43 0,0 -81.81,-22.239 -63.35,-126.211 0,0 21.84,-133.329 150.2,-139.399 0,0 114.15,-10.379 203.35,53.61 0,0 82.94,52.281 133.11,86.121 0,0 94.96,64.629 154.86,155.257 0,0 58.15,79.293 68.99,115.352 0,0 13.92,45.63 -11.05,73.61 0,0 22.5,30.77 25,54.94" /><path
         id="path32"
         style="fill:#ffffff;fill-opacity:1;fill-rule:nonzero;stroke:none"
         d="m 1158.6,1469 c 0,0 -25.15,-4.09 -66.63,18.93 0,0 -19.86,13.11 -24.24,16.01 -3.22,2.13 -7.68,-1.12 -9.81,-5.46 0,0 33.31,-28.76 75.82,-39.56 0,0 26.46,-4.42 32.12,-1.27 0,0 1.31,9.87 -7.26,11.35" /><path
         id="path34"
         style="fill:#ffffff;fill-opacity:1;fill-rule:nonzero;stroke:none"
         d="m 926.602,902.629 c 1.304,1.32 1.961,3.141 2.949,4.73 4.465,7.141 9.004,14.461 14.191,23.301 11.617,19.762 20.145,42.399 24.567,62.129 1.617,7.211 5.054,17.951 9.718,28.701 5.317,12.24 9.09,21.6 9.09,21.6 4.578,10.36 8.539,18.62 9.977,21.06 3.716,6.33 43.376,84.96 47.836,115.94 0,0 27.04,93.2 12.44,167.77 -5.26,26.86 -14.2,67.6 18.55,123.34 0,0 42.75,-20.5 63.76,-25.4 21.01,-4.9 29.2,8.49 29.2,8.49 0,0 38.36,-37.04 24.03,-92.73 -13.47,-52.32 -60.79,-144.24 -65.9,-152.94 -5.11,-8.69 -22.57,-48.94 -22.57,-48.94 l -20.96,-50.42 -26.04,-75.38 c 0,0 -32.76,-88.431 -44.45,-113.329 C 952.707,792.09 837.914,683.898 837.914,683.898 c 0,0 11.484,39.774 18.719,52.231 16.375,28.203 13.695,18.793 23.504,41.543 0,0 9.89,39.25 15.75,63.449 5.863,24.199 4.703,18.117 16.312,37.879 0,0 9.406,18.602 14.403,23.629" /><path
         id="path36"
         style="fill:#ffffff;fill-opacity:1;fill-rule:nonzero;stroke:none"
         d="m 1176.67,1443.43 c -15.58,-7.04 -49.19,2.07 -49.19,2.07 -43.92,13.19 -74.06,35.95 -86.83,45.96 -5.2,4.08 -3.64,8.15 -3.64,8.15 2.09,5.12 7.9,3.19 11.48,0.77 5.38,-3.63 33.03,-23.52 33.03,-23.52 48.75,-33.17 87.14,-22.76 87.14,-22.76 0,0 9.91,-9.81 8.01,-10.67" /><path
         id="path38"
         style="fill:#ffffff;fill-opacity:1;fill-rule:nonzero;stroke:none"
         d="m 1157.57,1468.95 -6.6,-1.14 21.29,54.56 11.85,11.86 1.67,-14.35 z m 3.36,76.63 3.54,-10.15 -30,-67.32 z m -47.25,-71.54 30.76,94.52 7.57,-7.92 -29.77,-87.77 z m -4.17,10.25 c 2.19,25.63 17.35,97.68 17.35,97.68 1.31,5.21 2.02,10.45 3.27,16.39 1.75,-8.92 5.2,-19.61 5.2,-19.61 -7.9,-36.8 -13.22,-54.03 -21.59,-82.86 0.18,1.63 -4.32,-12.62 -4.23,-11.6 z m 214.41,183.39 c 34.96,20.36 43.29,54.29 43.29,54.29 6.98,20.45 -14.58,40.45 -33.23,14.17 -20.1,-28.32 -50.67,-21.2 -50.67,-21.2 l 5.04,14.15 c 0,0 9.25,26.94 10.8,47.15 1.92,24.93 -6.21,32.1 -6.21,32.1 0,0 -6.67,11.4 -25,6.58 -11.87,-3.13 -21.25,-17.5 -20.62,-34.38 0.51,-13.71 0,-25.62 -11.64,-40.03 -8.83,-10.93 -13.67,-14.03 -19.75,-17.97 l -0.9,-2.38 c -26.55,-80.92 -85.96,-111.22 -92.62,-114.4 l -29.15,-119.59 -4.54,-2.2 c 11.21,-6 21.94,-11.62 21.94,-11.62 0.07,0.59 0.15,1.29 0.24,1.96 13.29,-4.38 52.15,-17.05 52.94,-15.89 13.43,19.94 29.92,44.29 29.92,44.29 13.31,15.93 47.95,6.01 47.95,6.01 39.97,-12.42 60.71,8.34 60.71,8.34 13.34,12.86 12.4,20.36 9.9,25.36 -3.65,7.29 -16.25,3.75 -16.25,3.75 -42.5,-10.31 -31.15,15.6 -31.15,15.6 6.93,16.67 37.66,19.3 37.66,19.3 22.97,5.06 38.8,9.47 48.49,16.97 26.25,20.32 11.25,46.57 11.25,46.57 -5,9.37 -19.46,11.09 -28.75,7.18 -19.38,-8.12 -35.65,-12.73 -35.65,-12.73 -39.81,-6.68 26,28.62 26,28.62" /><path
         id="path40"
         style="fill:#ffffff;fill-opacity:1;fill-rule:nonzero;stroke:none"
         d="m 1081.07,1573.98 14.39,29.52 -12.83,-105.73 z m 2.3,238.02 c 0,0 -6.7,39.82 -8.06,53.26 -2.25,22.06 -21.31,24.79 -21.31,24.79 0,0 -19.83,2.5 -26.65,-9.52 -3.27,-5.76 -5.34,-12.8 -3.74,-28.65 1.37,-13.67 4.05,-19.91 14.28,-49.12 10.05,-28.67 -7.7,-29.46 -7.7,-29.46 -8.7,-2.87 -19.12,9.74 -19.12,9.74 l -22.183,24.69 c 0,0 -23.125,19.38 -42.192,-1.87 -9.644,-10.75 -6.25,-23.13 -2.808,-33.44 4.758,-14.29 12.097,-25.01 16.683,-29.86 10.801,-11.45 28.871,-32.8 28.871,-32.8 l 12.259,-17.97 11.11,-17.88 -46.966,29.76 c 0,0 -8.524,5.94 -14.094,-0.4 -2.793,-3.19 -5.988,-8.04 -0.082,-17.89 3.168,-5.28 20.605,-20.54 33.301,-28.61 27.981,-17.79 45.971,-44.25 45.971,-44.25 12.46,-34.09 29.63,-109.14 32.62,-114.34 0.19,-0.33 2.18,-1.56 5.19,-3.29 l -19.95,102.93 22.81,-26.05 3.57,-80.47 c 3.91,-2.15 8.39,-4.57 12.84,-6.96 l 23.45,130.18 10.54,-3.04 c 66.45,35.95 81.87,119.69 81.87,119.69 l 0.68,3.62 0.57,5.13 c 5,33.12 -8.75,41.56 -8.75,41.56 -5.16,4.95 -15.31,5.31 -23.75,-1.87 -9.68,-6.57 -13.31,-12.35 -18.69,-19.74 -12.24,-16.83 -17.87,-18.7 -17.87,-18.7 -9.79,-3.41 -7.67,5.49 -3.32,14.33 5.86,11.93 17.89,27.75 17.89,27.75 23.56,35.11 14.18,69.48 14.18,69.48 -6.56,25.94 -32.25,28.95 -39.39,-5.03 -4.98,-23.72 -25.89,-36.97 -25.89,-36.97 -15.59,-11.07 -16.17,1.27 -16.17,1.27" /><path
         id="path42"
         style="fill:#ffffff;fill-opacity:1;fill-rule:nonzero;stroke:none"
         d="m 911,988.121 c -0.09,3.078 0.781,22.739 5.332,30.269 1.551,2.58 2.129,8.44 9.18,18.77 4.535,6.64 26.582,77.95 26.582,77.95 0,0 7.719,34.7 9.664,45.49 2.648,14.76 19.312,102.76 19.312,102.76 3.125,35 6.825,60.29 6.825,60.29 0,0 21.015,107.69 32.765,126.63 13.54,21.83 32.35,23.13 32.35,23.13 0,0 -13.81,17.45 -22.58,15.86 -3.13,-0.57 -9.36,-3.27 -14.26,-13.38 -9.51,-19.61 -20.408,-50.97 -23.666,-59.05 -8.145,-20.18 -28.691,-93.68 -33.125,-107.4 -6.711,-20.78 -21.813,-129.85 -25.195,-146.49 -3.391,-16.65 -11.508,-68.77 -20.157,-85.96 -9.949,-19.77 -20.449,-42.25 -23.293,-67.53 -0.765,-6.81 -2.312,-15.401 -5.609,-30.409 -6.199,-28.199 -12.559,-56.051 -19.863,-75.11 -4.617,-12.043 -5.399,-17.769 -7.617,-37.453 -2.215,-19.687 -12.825,-44.066 -16.157,-74.066 -0.968,-8.711 -8.293,-36.442 -9.332,-48.461 -0.281,-3.262 3.438,-50.492 3.082,-53.633 -3.261,-28.687 23.254,30.942 24.004,35.133 1.508,35.641 1.41,49.039 1.41,49.039 0,0 2.368,26.941 4.739,38.02 3.925,18.359 8.343,37.582 8.07,43.75 -0.273,6.171 3.719,28.46 8.219,40.421 3,7.981 3.992,14.008 5.773,20.278 1.785,6.261 11.477,42.242 11.477,42.242 0,0 12.25,22.578 12.07,28.91" /><path
         id="path44"
         style="fill:#ffffff;fill-opacity:1;fill-rule:nonzero;stroke:none"
         d="m 590.91,1189.48 c -17.754,-4.77 -32.215,-12.84 -45.383,-20.55 4.539,-3.2 9.344,-6.32 13.067,-8.12 0,0 18.289,-8.33 24.773,-11.53 2.465,-1.22 5.395,-2.77 12.582,-10.19 0,0 -6.488,16.39 -5.668,39.17 0.176,4.93 0.285,8.59 0.629,11.22" /><path
         id="path46"
         style="fill:#ffffff;fill-opacity:1;fill-rule:nonzero;stroke:none"
         d="m 616.605,1193.3 c 0,0 0.942,-4.54 2.133,-12.38 l 6.117,-19.77 c 0,0 13.567,16.46 20.68,22.11 5.707,4.54 10.176,7.53 13.492,9.55 -16,-0.39 -30.664,1.06 -30.664,1.06 -3.961,0.07 -7.89,-0.09 -11.785,-0.41 0,-0.06 0.027,-0.1 0.027,-0.16" /><path
         id="path48"
         style="fill:#ffffff;fill-opacity:1;fill-rule:nonzero;stroke:none"
         d="m 649.922,1173.55 c -4.715,-7.63 -7.219,-11.11 -4.703,-13.23 2.508,-2.12 23.617,10.18 33.832,16.19 0,0 22.297,15.02 32.789,21.45 -12.965,-0.39 -25.305,-2.4 -35.57,-3.86 -4.036,-0.56 -8.309,-0.91 -12.579,-1.12 -2.882,-3.81 -10.054,-13.41 -13.769,-19.43" /><path
         id="path50"
         style="fill:#ffffff;fill-opacity:1;fill-rule:nonzero;stroke:none"
         d="m 506.336,1127.49 c 11.262,-3.85 19.848,-9.15 31.781,-7.61 0,0 27.567,4.98 39.934,9.7 0,0 -29.856,17.75 -37.543,30.03 0,0 -1.141,1.95 -2.606,4.66 -16.316,-10.4 -26.39,-19.54 -26.39,-19.54 -4.957,-3.91 -9.391,-8.2 -13.407,-12.78 2.352,-1.77 5.094,-3.38 8.231,-4.46" /><path
         id="path52"
         style="fill:#ffffff;fill-opacity:1;fill-rule:nonzero;stroke:none"
         d="m 618.152,1232.84 -15.414,0.41 -12.816,0.01 c -6.258,1.24 -11.484,-9.27 -10.102,-17.09 l -0.16,-38.43 10.477,-1.88 c 0,0 0.968,30.22 3.312,41.8 l 17.02,5.6 7.023,-34.22 12.11,2.89 -5.817,31.83 c 0,0 -0.406,9.11 -5.633,9.08" /><path
         id="path54"
         style="fill:#ffffff;fill-opacity:1;fill-rule:nonzero;stroke:none"
         d="m 778.887,1027.11 c 11.195,-18.81 8.125,-29.059 8.125,-29.059 C 785.762,983.359 768.477,959 768.477,959 728.887,893.211 641.957,879.648 641.957,879.648 580.762,868.359 538.598,905 538.598,905 c -12.754,10.109 -23.868,31.48 -29.977,45.648 -6.109,14.172 -3.109,11.864 -18.922,29.051 -15.804,17.199 -13.937,38.041 -13.937,38.041 1.25,22.5 9.562,58.75 9.562,58.75 0.539,1.63 1.16,3.1 1.731,4.66 3.707,8.77 20.328,13.61 38.269,11.7 1.332,0.17 18.078,-2.41 39.813,-1.68 1.16,0.62 31.117,-0.2 49.058,4.69 0,0 18.41,3.69 39.067,12.5 4.058,1.56 17.5,8.13 28.84,16.31 25.535,18.38 76.054,23.35 87.613,-75.13 0.73,-13.05 9.172,-22.43 9.172,-22.43 z m -25.274,163.92 c -12.73,5.6 -26.355,7.17 -39.433,6.99 -5.664,-6.11 -19.883,-21.05 -27.918,-25.71 -12,-6.98 -29.739,-21.52 -35.524,-24.81 -5.777,-3.29 -16.39,-4.67 -4.422,-8.31 11.973,-3.64 17.27,2.65 20.645,4.09 3.375,1.46 -5.203,-4.64 -8.672,-7.73 -3.469,-3.1 -12.148,-5.24 -36.648,-7.78 0,0 -20.723,-11.33 -25.157,-14.05 -4.433,-2.71 -11.632,-10.19 -15.312,-14.6 -6.27,-7.5 -11.09,-3.97 -11.09,-3.97 0,0 10.094,21.14 16.168,23.76 6.066,2.62 -28.066,-8.68 -45.512,-7.2 -14.23,1.21 -35.496,8.57 -45.336,17.02 -38.5,-47.4 -32.687,-121.45 -32.687,-121.45 3.555,-41.671 37.215,-83.589 37.215,-83.589 69.355,-91.332 188.539,-53.179 188.539,-53.179 138.14,41.508 145.328,141.828 145.328,141.828 21.855,149.84 -80.184,178.69 -80.184,178.69" /><path
         id="path56"
         style="fill:#ffffff;fill-opacity:1;fill-rule:nonzero;stroke:none"
         d="m 1747.72,1341.99 c 0,0 -8.27,-32.74 -32.9,-60.51 -14.69,-16.56 -27.81,-29.69 -50.22,-34.64 0,0 -33.11,-7.75 -55.61,3.08 0,0 29.62,95 33.83,235.31 0,0 0.75,34.38 15.69,50.73 0,0 18.81,24.9 48.26,26.18 0,0 16.49,1.84 32.55,-15.54 10.03,-10.85 19.42,-28.69 21.64,-59.09 0,0 5.56,-94.61 -13.24,-145.52 z m -177.63,-102.26 c 0,0 -13.71,-14.19 -41.45,-17.7 -19.21,-2.43 -41.64,1.03 -60.19,25.74 0,0 -23.44,28.19 -30.28,118.05 0,0 -9.21,77.28 -8.02,110.03 0,0 0.27,21.8 6.93,40.87 0,0 6.8,22.89 35.68,28.55 0,0 89.59,11.5 116.41,-21.17 0,0 25.02,-25.12 21.16,-95.25 0,0 -4.26,-161.43 -40.24,-189.12 z m 196.98,329.07 c 0,0 -18.87,56.47 -76.17,51.55 0,0 -29.56,-0.18 -54.74,-48.35 0,0 -15.42,-2.46 -26.92,-18.7 0,0 -38.77,24.18 -69.79,22.35 0,0 -37.04,-5.29 -49.36,-7.57 0,0 -20.16,25.28 -58.75,19.9 0,0 -57.48,-1.83 -57.84,-75 0,0 -0.92,-90.32 27.63,-205.36 0,0 20.15,-104.65 112.49,-113.22 0,0 56.2,-4.48 82.04,33.85 0,0 18.4,-21.72 52.52,-19.72 0,0 4.29,0.11 8.77,1.08 12.05,2.59 35.15,9.21 58.49,30.62 23.08,21.17 42.05,56.13 54.63,118.64 0,0 26.62,132.3 -3,209.93" /><path
         id="path58"
         style="fill:#ffffff;fill-opacity:1;fill-rule:nonzero;stroke:none"
         d="m 1462,1596 c 0,0 25.94,-4.83 37.19,-20.14 l 36.57,5.93 -2.82,28.44 c 0,0 -27.18,-1.56 -37.37,-2.92 -6.16,-0.82 -23.09,-4.47 -33.57,-11.31" /><path
         id="path60"
         style="fill:#ffffff;fill-opacity:1;fill-rule:nonzero;stroke:none"
         d="m 1584.89,1623.46 9.58,-30.57 35.03,-13.5 c 0,0 17.06,27.46 35.12,37.86 0,0 -26.53,11.54 -49.8,10.17 0,0 -8.13,0 -29.93,-3.96" /><path
         id="path62"
         style="fill:#ffffff;fill-opacity:1;fill-rule:nonzero;stroke:none"
         d="m 1451.69,1719.29 c 0,0 -9.06,-7.18 -7.18,-19.68 0.92,-6.15 5.31,-20.63 22.18,-25.32 0,0 15.32,-3.75 23.75,10 0,0 10.63,16.88 1.03,19.27 0,0 -14.14,2.29 -11.58,11.78 0,0 1.49,6.14 15.87,1.14 15.57,-5.41 35.31,-15.31 52.18,-46.87 0,0 10.63,-19.07 30.92,-76.08 l -29.67,8.26 c 0,0 -41.85,93.02 -50.06,77.32 -4.2,-8.02 9.75,-24.5 15.69,-37.32 8.88,-19.16 13.18,-30.54 14.69,-60.93 0,0 27.81,6.56 56.83,-8.68 0,0 17,-8.03 17.54,-7.26 7.19,10.31 27.58,13.85 25.94,15.31 -1.64,1.46 -33.9,14.3 -33.9,14.3 0,0 -26.1,79.14 -52.91,105.84 0,0 -30.69,35.49 -65.69,29.55 0,0 -13.13,-0.94 -25.63,-10.63" /><path
         id="path64"
         style="fill:#ffffff;fill-opacity:1;fill-rule:nonzero;stroke:none"
         d="m 1280.37,1159.55 c 0,0 -3.33,65.83 55.83,67.5 0,0 22.62,1.97 41.45,-13.74 11.3,-9.42 24.39,-26.26 25.28,-49.95 0,0 5.77,-32.98 -24.07,-101.58 l -32.05,-68.632 c 0,0 -75.18,21.672 -124.17,50.952 0,0 -68.39,35.24 -45.34,103.27 0,0 16.45,42.63 58.53,37.83 0,0 25.37,1.01 44.54,-25.65" /><path
         id="path66"
         style="fill:#ffffff;fill-opacity:1;fill-rule:nonzero;stroke:none"
         d="m 838.703,1371.64 c 0,0 -21.816,-26.17 -86.777,-35.35 0,0 -11.672,9.23 -28.301,8.53 -16.625,-0.72 -26.574,4.24 -41.316,1.3 -14.739,-2.93 -35.442,-2.79 -47.786,-1.78 -12.343,1.01 -33.363,23.47 -40.585,36.49 -7.219,13.02 -42.758,71.31 -10.254,114.22 0,0 12.75,16.55 63.375,40.37 0,0 23.812,12.55 64.777,19.56 0,0 57.504,6.68 41.797,80.46 0,0 -93.176,0.38 -90.82,29.18 0,0 38.718,17.54 51.703,49.62 0,0 8.797,18.96 25.687,16.54 18.395,-2.64 -1.633,-26.28 7.813,-37.4 0,0 11.754,-33.59 51.047,-59.59 0,0 59.847,-40.62 74.988,-108.66 0,0 18.648,-88.52 -35.348,-153.49 z m 75.699,110.83 c -2.082,114.95 -94.804,157.58 -94.804,157.58 -30.086,14.56 -42.852,33.19 -42.852,33.19 -23.176,31.37 -13.226,57.71 -13.226,57.71 l 17.867,-18.53 c 17.113,-18.66 58.207,-30.51 58.207,-30.51 20.543,-6.37 18.91,3.28 18.91,3.28 -0.559,4.42 -25.117,22.08 -25.117,22.08 -8.524,5.53 -42.739,34.57 -42.739,34.57 -29.578,29.64 -36.793,31.32 -36.793,31.32 -22.785,7.38 -27.718,-35.02 -29.777,-34.85 -2.058,0.17 -10.344,0.16 -16.797,-2.77 -6.453,-2.91 -0.957,-11.65 -3.461,-16.97 -2.504,-5.32 -8.668,-13.1 -8.668,-13.1 -25.332,-32.43 -76.726,-51.71 -76.726,-51.71 -59.231,-20.72 -84.414,-69.73 -84.414,-69.73 -50.606,-95.28 -6.039,-166.59 -6.039,-166.59 14.507,-33.63 48.886,-60.61 48.886,-60.61 9.836,-7.54 23.278,-14.41 23.278,-14.41 8.148,-5.85 18.418,-7.64 18.418,-7.64 13.765,-7.36 32.929,-10.98 32.929,-10.98 42.59,-11.09 48.93,-9.54 48.93,-9.54 5.484,-0.44 24.731,6.96 24.731,6.96 15.425,2.87 25.925,4.95 25.925,4.95 26.25,5.62 55.668,16.51 55.668,16.51 116.742,42.92 107.664,139.79 107.664,139.79" /><path
         id="path68"
         style="fill:none;stroke:#ffffff;stroke-width:10;stroke-linecap:butt;stroke-linejoin:miter;stroke-miterlimit:10;stroke-dasharray:none;stroke-opacity:1"
         d="m 715.922,1339.23 c 21.48,22.06 27.016,47.5 27.016,47.5 18.355,51.31 16.175,113.29 16.175,113.29 -0.547,60.8 -21.238,145.34 -21.238,145.34 -6.324,23.99 -9.789,49.13 -9.789,49.13" /><path
         id="path70"
         style="fill:none;stroke:#ffffff;stroke-width:10;stroke-linecap:round;stroke-linejoin:round;stroke-miterlimit:10;stroke-dasharray:none;stroke-opacity:1"
         d="m 670.313,1342.97 c 4.714,57.6 30.062,232.28 30.062,232.28 1.57,19.2 20.023,107.81 20.023,107.81 0,0 6.797,-83.77 7.094,-130.75 0,0 0.992,-72.22 -11.699,-126.08 0,0 -15.664,-73.28 -25.578,-93.18" /><path
         id="path72"
         style="fill:none;stroke:#ffffff;stroke-width:10;stroke-linecap:butt;stroke-linejoin:miter;stroke-miterlimit:10;stroke-dasharray:none;stroke-opacity:1"
         d="m 711.738,1680.3 c 0,0 -47.492,-106.35 -56.332,-148.32 0,0 -38.433,-132.18 -3.484,-194.41" /><path
         id="path74"
         style="fill:none;stroke:#ffffff;stroke-width:10;stroke-linecap:butt;stroke-linejoin:miter;stroke-miterlimit:10;stroke-dasharray:none;stroke-opacity:1"
         d="m 634.82,1339.09 c 0,0 -43.332,31.66 -40.832,100 0,0 -2.5,93.33 111.66,242.74" /><path
         id="path76"
         style="fill:none;stroke:#ffffff;stroke-width:10;stroke-linecap:butt;stroke-linejoin:miter;stroke-miterlimit:10;stroke-dasharray:none;stroke-opacity:1"
         d="m 608.926,1352.13 c 0,0 -42.121,42.12 -42.442,105.66 0,0 -5.332,90.88 134.27,227.55" /><path
         id="path78"
         style="fill:none;stroke:#ffffff;stroke-width:10;stroke-linecap:butt;stroke-linejoin:miter;stroke-miterlimit:10;stroke-dasharray:none;stroke-opacity:1"
         d="m 592.801,1357.59 c 0,0 -61.992,35.46 -62.766,93.52 0,0 -14.051,94.01 62.664,154 0,0 63.61,53.83 104.711,83.61" /><path
         id="path80"
         style="fill:none;stroke:#ffffff;stroke-width:10;stroke-linecap:butt;stroke-linejoin:miter;stroke-miterlimit:10;stroke-dasharray:none;stroke-opacity:1"
         d="m 737.289,1693.1 c 0,0 6.852,-32.41 21.738,-55 0,0 41.266,-65.06 44.227,-117.54 0,0 5.246,-125.73 -53.555,-186.16" /><path
         id="path82"
         style="fill:none;stroke:#ffffff;stroke-width:10;stroke-linecap:butt;stroke-linejoin:miter;stroke-miterlimit:10;stroke-dasharray:none;stroke-opacity:1"
         d="m 770.695,1337.85 c 59.086,38.67 65.469,129.28 65.469,129.28 13.434,89.93 -54.926,163.98 -54.926,163.98 -32.992,40.08 -31.98,64.75 -31.98,64.75 0,0 1.316,-21.85 34.105,-51.47 0,0 50.41,-35.71 70.125,-66.84 0,0 35.996,-53.69 18.215,-144.4" /><path
         id="path84"
         style="fill:none;stroke:#ffffff;stroke-width:10;stroke-linecap:butt;stroke-linejoin:miter;stroke-miterlimit:10;stroke-dasharray:none;stroke-opacity:1"
         d="m 694.309,1695.18 c 0,0 4.914,-15.93 22.183,-13.72 -1.953,-1.76 10.735,17.24 17.68,13.57 0,0 5.965,-3.08 11.062,-4.02 0,0 2.864,3.4 8.137,4.51 0,0 4.504,-1.91 7.422,-4.22" /><path
         id="path86"
         style="fill:#ffffff;fill-opacity:1;fill-rule:nonzero;stroke:none"
         d="m 682.922,1315.7 c 0,0 -12.207,1.63 -23.195,-1.61 -6.786,-1.99 -13.309,-4.38 -16.676,-6.87 -8.821,-6.52 -15.414,-11.16 -23.899,-13.58 -8.48,-2.41 -31.531,-5.7 -31.531,-5.7 0,0 31.703,7.76 40.606,15.32 0,0 17.55,12.03 24.41,13.53 l 30.676,7.85 11.871,-0.45 11.66,-3.03 c 0,0 10.078,-3.41 14.414,-7.39 4.336,-3.98 10.082,-9.63 10.219,-14.3 0.136,-4.67 3.746,-11.18 6.621,-14.01 0,0 -3.586,-4.6 -7.793,5.99 0,0 -4.106,13.11 -8.563,15.55 -4.465,2.43 -4.465,2.43 -4.465,2.43 0,0 -11.367,6.63 -14.925,7.44 0,0 4.105,-2.58 3.652,-14.45 0.18,-0.37 -0.824,-2.79 -2.133,-9.15 0,0 -2.672,-9.45 -2.637,-2.72 0.036,6.73 0.036,6.73 0.036,6.73 l 0.453,11.87 -4.512,8.14 c 0,0 -4.074,0.85 -7.281,-6.65 -3.203,-7.51 -3.414,-10.08 -3.66,-13.17 -0.254,-3.08 -0.372,-10.84 -3.629,-12.64 -3.254,-1.81 -13.282,-4.1 -17.911,-3.72 0,0 -6.441,1.39 1.524,3.85 7.969,2.45 14.695,2.42 15.16,8.08 0.465,5.65 1.191,16.64 1.191,16.64 l 0.317,6.02" /><path
         id="path88"
         style="fill:#ffffff;fill-opacity:1;fill-rule:nonzero;stroke:none"
         d="m 678.523,1316.75 c 0,0 -19.699,-12.89 -25.632,-17.92 -5.934,-5.04 -17.594,-4.09 -17.594,-4.09 0,0 11.953,-5.81 29.535,6.56 0,0 11.578,14.93 18.09,14.4 6.519,-0.54 13.84,-3.9 12.996,-14.18 -0.844,-10.29 -1.125,-13.72 -1.125,-13.72 0,0 14.426,24.36 2.418,29.49 l -13.898,7.35 -4.79,-7.89" /><path
         id="path90"
         style="fill:#ffffff;fill-opacity:1;fill-rule:nonzero;stroke:none"
         d="m 826.695,1601.17 c 0,0 32.5,-33.13 -7.351,-55.9 0,0 -39.047,-22.48 -80.211,-33.55 0,0 -99.059,-31.77 -83.34,-102.93 0,0 8.375,-69.14 41.418,-91.5 0,0 232.164,23.95 194.902,191.89 0,0 -27.3,98.52 -93.05,124.61 0,0 26.027,-29.83 27.632,-32.62" /><path
         id="path92"
         style="fill:#ffffff;fill-opacity:1;fill-rule:nonzero;stroke:none"
         d="m 776.078,500.172 c 0.207,-11.383 -3.707,-21.652 -7.883,-32.383 -3.668,-9.801 -6.629,-19.43 -10.3,-29.238 -1,-1.813 -1.559,-3.871 -2.567,-5.692 -1.258,-2.257 -2.961,-4.269 -4.676,-6.3 -4.925,-6.739 -12.269,-15.7 -17.851,-21.489 -7.75,-7.558 -14.391,-16.332 -23.446,-21.961 -4.781,-3.269 -9.308,-6.109 -13.835,-8.929 -4.731,-2.121 -9.512,-5.379 -14.188,-6.348 -4.937,-1.402 -10.316,-2.57 -15.254,-3.98 -4.473,-1.661 -9.461,-4.231 -14.34,-4.481 -5.84,-0.922 -9.715,0.649 -15.203,2.5 -4.586,1.348 -0.91,5.84 0.598,8.559 5.785,10.41 11.566,20.84 17.797,31.019 3.222,4.731 5.332,10.672 8.55,15.403 2.77,4.988 5.532,9.968 7.844,15.199 5.328,10.687 10.207,21.609 15.078,32.531 9.551,22.559 24.344,42.797 35.051,65.297 5.828,11.59 14.578,26.293 19.156,35.601 1.758,3.168 8.102,-0.339 13.946,-4.769 4.48,-3.68 8.504,-7.09 11.277,-12.781 2.367,-4.282 4.488,-9 6.348,-14.18 3.738,-10.379 4.14,-22.461 3.898,-33.578 z m 33.672,16.879 c -1.422,4.929 -2.832,9.859 -5.199,14.14 -2.821,4.52 -6.344,8.86 -8.457,13.59 -2.574,4.981 -4.696,9.699 -8.719,13.117 -3.324,3.633 -6.398,7.704 -9.473,11.782 -3.777,3.879 -7.308,8.211 -11.082,12.07 -7.3,8.199 -12.539,10.52 -21.547,16.711 0,0 -1.82,0.988 -2.722,1.5 l -2.27,1.25 c -6.293,4.68 -13.593,7.551 -20.945,9.258 -2.516,0.801 -4.832,0.902 -7.145,1 -2.562,-0.348 -4.527,-2.821 -6.593,-2.258 -2.512,0.789 -4.731,3.211 -7.547,2.398 -2.571,-0.347 -3.629,-3.32 -4.883,-5.578 -2.008,-3.633 -3.316,-7.051 -5.328,-10.691 -0.551,-2.059 -1.356,-4.57 -3.926,-4.918 -3.07,-1.274 -4.226,-1.223 -5.984,-4.383 -1.512,-2.719 -3.02,-5.437 -4.528,-8.16 -2.765,-4.988 -5.332,-10.668 -8.343,-16.117 -5.579,-11.121 -11.618,-21.992 -17.2,-33.133 -3.011,-5.43 -5.375,-11.82 -8.386,-17.258 -2.571,-5.691 -6.035,-10.883 -9.508,-16.07 -6.485,-10.621 -13.434,-21 -18.563,-32.379 -2.054,-4.781 -1.343,-9.91 -3.859,-14.442 -2.77,-4.98 -4.625,-10.468 -7.391,-15.46 -2.566,-5.692 -5.582,-11.122 -8.14,-16.829 -0.809,-2.5 -1.614,-5.031 -1.711,-7.332 -0.098,-2.328 -2.309,-5.238 -2.867,-7.308 -5.125,-11.371 -10.254,-22.75 -14.93,-34.379 -1.051,-2.973 -2.106,-5.942 -2.457,-8.723 -0.352,-2.758 -0.902,-4.828 -1.707,-7.328 -1.402,-5.75 -3.973,-11.441 -4.676,-16.98 -0.098,-2.309 0.758,-3.969 -0.043,-6.481 -0.758,-1.371 -0.859,-3.68 0.758,-3.988 1.812,-0.992 4.43,0.508 6.039,0.199 2.77,-0.34 5.535,-0.691 8.312,-1.039 2.766,-0.363 5.782,-0.242 8.504,-1.762 2.262,-1.261 4.782,-2.058 6.844,-2.609 5.285,-1.152 10.828,-1.859 15.656,-2.762 5.786,-0.25 11.782,-1.199 17.571,-1.449 4.875,0.262 10.468,0.711 15.047,-0.641 5.285,-1.16 9.613,-2.961 14.945,-2.961 4.891,0.25 9.82,1.661 14.5,2.622 5.887,2.062 11.527,3.679 17.156,5.3 4.235,1.2 8.914,2.16 12.942,4.09 2.82,0.801 4.523,2.809 6.687,4.57 1.914,1.309 4.027,1.918 6.391,2.989 5.179,1.84 10.168,4.422 15.601,6.742 10.414,4.891 19.524,11.687 30.192,17.039 9.961,5.121 18.168,12.441 25.507,21.398 8.047,9.161 12.918,20.09 19.411,30.711 5.277,9.52 6.73,21.762 9.035,32.332 2.109,11.278 4.922,22.75 4.715,34.118 -0.457,10.921 -0.762,19.98 -4.297,29.652 -2.117,4.73 -3.981,9.91 -5.387,14.84" /><path
         id="path94"
         style="fill:#ffffff;fill-opacity:1;fill-rule:nonzero;stroke:none"
         d="m 1179.42,420.648 c 1.55,0.114 2.5,1.223 4.08,0.84 2.07,0.141 4.62,0.871 6.09,2.032 4.95,2.992 5.14,13.91 5.1,14.429 -0.09,1.051 -0.09,1.051 -0.13,1.539 -2.39,10.742 -10.52,21.543 -21.53,22.742 -2.1,0.36 -6.36,1.59 -7.83,0.43 -1.99,-1.199 -4.53,-1.922 -5.96,-3.582 -3.85,-3.949 -5.46,-9.797 -5.06,-14.957 -0.11,-5.211 2.4,-10.723 5.83,-14.609 3.98,-4.364 9.35,-6.543 15.19,-8.172 1.12,-0.949 2.7,-1.34 4.22,-0.692" /><path
         id="path96"
         style="fill:#ffffff;fill-opacity:1;fill-rule:nonzero;stroke:none"
         d="m 1398.58,132.738 c -5.73,3.961 -11.6,6.293 -17.86,8 -2.27,0.532 -7.16,0.973 -8.53,2.231 -2.11,2.172 -4.22,4.351 -5.83,6.613 -4.07,5.957 -3.25,11.477 -2.17,18.129 0.3,3.258 1.09,6.648 0.37,9.66 -0.33,3.66 -0.57,4.66 1.35,7.789 3.19,4.481 0.25,10.172 2.94,14.531 1.03,2.379 3.43,3.489 5.09,5.489 1.66,1.968 1.68,4.109 1.71,6.25 0.1,8.539 7.57,12.98 11.18,20.218 1.21,-2.886 -0.35,-7.527 -0.14,-10.668 -0.03,-2.14 0.96,-4.031 1.44,-6.058 0.84,-3.524 1.68,-7.063 2.52,-10.57 1.31,-5.551 0.6,-11.582 0.92,-17.372 0.54,-6.789 1.48,-12.96 2.52,-19.628 1.06,-6.672 1.61,-13.461 2.66,-20.141 0.6,-2.52 0.81,-5.672 1.92,-8.07 1.09,-2.403 0.95,-4.032 -0.09,-6.403 z m -38.4,204.422 c -2.18,-4.25 -5,-8.109 -7.8,-11.969 -2.44,-3.242 -5,-8.109 -8.69,-10.582 -2.65,-2.238 -7.57,-3.929 -11.08,-2.64 -4.63,1.57 -6.72,5.863 -8.8,10.16 -3.79,9.23 -5.17,19.543 -5.94,29.473 -0.76,9.937 4.13,18.558 6.13,28.089 2.23,8.508 5.69,14.129 12.92,19.571 1.39,0.867 2.55,2.726 3.94,3.59 1.9,0.988 4.78,0.078 6.53,-0.563 3.5,-1.309 6.74,-3.738 6.57,-7.5 0.17,3.762 3.22,-24.809 1.14,-9.32 1.27,-9.821 1.39,-10.321 2.66,-20.137 0.56,-4.652 1.14,-9.301 2.21,-13.832 0.7,-5.168 2.67,-8.98 0.21,-14.34 z m -182.89,24.578 c -0.59,-5.758 -0.46,-14.066 -3.71,-19 -0.43,-1.078 -0.87,-2.136 -1.3,-3.218 -2.18,1.39 -2.87,3.41 -3.07,5.992 -0.8,3.578 -1.08,7.187 -1.41,11.328 -0.41,5.16 -0.98,12.39 4.5,15.422 7,3.66 5.22,-6.871 4.99,-10.524 z m -134.38,37.114 c -0.19,5.718 0.11,10.886 -0.08,16.597 0.58,10.34 1.26,22.25 3.39,32.5 2.14,10.262 5.83,20.43 8.49,30.672 1.33,5.098 2.63,9.699 4.44,14.27 1.24,3.57 3.11,9.16 7.71,7.859 3.57,-1.23 3.22,-7.441 3.58,-10.051 0.2,-5.73 -1.07,-9.808 -1.4,-15.488 -1.07,-9.813 -3.7,-19.52 -4.8,-29.84 -0.27,-4.652 -2.57,-8.672 -3.35,-13.301 -1.33,-5.121 -2.69,-10.75 -4.53,-15.832 -3.18,-10.187 -6.38,-20.906 -10.59,-31.047 -3.08,0.688 -2.48,11.028 -2.86,13.661 z M 897.664,352.289 c 0,0 0.102,0.5 -0.41,0.609 -1.016,2.84 -1.223,7.102 -1.734,9.864 -0.204,4.25 -1.024,8.117 -1.743,12.488 -1.129,7.609 -1.648,15.648 -0.125,23.27 2.02,7.519 5.36,13.718 11.145,18.902 2.637,2.66 5.683,4.699 8.328,7.328 2.434,1.641 5.676,4.691 9.34,4.488 6.605,-1.308 8.75,-9.136 8.754,-14.418 0.523,-8.031 -2.719,-16.359 -5.762,-23.691 -2.422,-6.899 -5.469,-14.207 -9.832,-20.231 -5.07,-6.898 -12.277,-11.289 -17.348,-18.199 z m 562.446,70.891 c -1.03,-2.391 -1.57,-4.629 -2.71,-6.5 -1.17,-1.879 -2.58,-4.871 -4.23,-6.86 -2.29,-1.609 -2.58,-4.879 -3.49,-7.761 -1.31,-3.5 -2.81,-3.86 -3.7,-4.598 -1.4,-0.859 -2.19,-4.25 -3.85,-6.25 -0.38,-0.602 -0.77,-1.242 -1.27,-1.352 -0.26,-1.14 -1.15,-1.871 -1.54,-2.5 0.75,-0.89 0.49,-2.019 0.1,-2.629 -1.07,-4.519 -2.24,-8.539 -4.04,-12.148 -3.13,-9.273 -9.48,-25.152 -13.97,-33.133 -2.07,-4.758 -2.35,-8.019 -3.54,-12.039 -1.18,-4 -3.61,-7.23 -5.9,-10.98 -5.16,21.679 -8.79,43.718 -10.8,65.601 -0.99,10.949 -2.88,21.16 -7.91,31.141 -2.71,4.668 -3.39,9.84 -5.1,14.758 -1.7,4.922 -3.53,10.351 -6.74,14.91 -2.97,3.558 -7.09,5.25 -11.73,6.789 -4.01,1.191 -9.38,3.641 -13.53,3.18 -4.04,-0.938 -4.59,-5.34 -5.39,-8.731 -0.52,-2.238 -1.05,-4.508 -1.59,-6.758 -0.91,-2.871 -0.31,-5.398 -0.72,-8.16 0.36,-1.519 0.09,-2.64 -0.17,-3.762 -0.53,-2.25 -0.65,-1.757 -2.28,-1.617 -1.63,0.16 -3.9,0.68 -5.65,1.328 -3.62,1.813 -5.82,6.602 -9.57,8.922 -3.74,2.289 -8.37,3.86 -13.14,3.789 -5.17,-0.691 -9.61,-4.398 -13.54,-8.011 -13.72,-11.77 -26.06,-24.821 -31.43,-42.598 -5.48,-17.281 -2.44,-36.789 4.14,-53.332 0.19,-0.438 0.45,-0.828 0.64,-1.27 -0.64,-2.558 -1.17,-4.839 -1.84,-5.238 -1.99,-1.199 -4.75,-12.332 -5.62,-14.48 -1.27,-3.743 -2.22,-4.852 -4.51,-8.672 -6.35,-11.918 -12.68,-23.86 -20.65,-34.879 -0.96,-1.121 -1.91,-2.231 -2.85,-3.34 -2.7,-5.41 -5.43,-10.301 -9.76,-14.809 -0.52,-0.043 -0.52,-0.043 -1.03,-0.07 -3.3,-4.41 -6.59,-8.84 -10.9,-13.34 -1.43,-1.66 -3.3,-4.422 -5.37,-4.582 -2.07,-0.148 -3.77,1.789 -5.44,3.211 -3.42,3.891 -4.88,8.981 -7.34,13.981 -4.94,10 -10.91,19.929 -14.87,30.539 -1.96,5.039 -3.4,10.121 -4.35,15.761 -0.73,2.547 -0.93,5.141 -1.65,7.668 -0.72,2.563 -1.96,5.051 -1.13,7.711 0.71,4.219 4.64,7.121 6.46,10.391 2.69,5.398 3.85,10.687 5.51,16.019 1.69,4.801 1.8,10.02 4.02,14.872 1.7,4.808 3.87,10.179 1.92,15.226 -1.24,2.5 -2.43,4.473 -3.15,7.024 -0.73,2.546 -0.88,4.609 -1.56,6.636 -1.35,4.043 -4.22,7.453 -8,9.242 -10.94,6.93 -27.3,3.571 -37.15,-3.441 -5.36,-4.57 -8.53,-10.551 -10.62,-16.937 -2.62,-6.454 -4.68,-13.364 -4.62,-20.641 -0.26,-4.621 0.25,-9.34 0.92,-14.02 -1.31,-1.062 -2.75,-3.14 -4.45,-4.261 -0.55,-0.489 -1.07,-0.461 -1.61,-0.95 -1.09,-0.968 -1.64,-1.46 -2.19,-1.949 0.46,-1.07 -0.12,-2.07 -0.66,-2.562 -3.95,-5.489 -8.06,-14.071 -14.51,-17.848 -1.73,-3.019 -3.43,-5.519 -5.15,-8.539 -0.58,-1.012 -1.64,-1.461 -2.68,-1.402 -7.31,-9.969 -14.13,-20.469 -21.93,-29.899 -11.17,-13.883 -15.67,-1.703 -20.26,8.93 -4.61,10.141 -7.16,20.141 -9.67,30.66 -3,11.07 -2.86,13.66 -3.79,24.598 -0.71,5.761 -1,9.922 0.84,15 1.89,5.613 4.27,11.191 6.67,16.75 4.2,10.14 8.93,20.261 13.16,30.91 3.7,10.18 8.97,20.762 12.69,31.461 3.17,10.199 6.41,21.43 8.57,32.199 2.72,11.27 3.91,23.152 5.08,34.492 0.29,5.168 0.61,10.86 -0.65,16.117 -1.77,5.301 -4.06,10.614 -6.91,15.442 -1.83,4.262 -4.72,8.058 -8.75,10.359 -5.02,2.883 -10.74,2.692 -15.91,2.992 -5.69,0.309 -9.55,-3.621 -13.89,-7 -4.35,-3.39 -9.21,-6.742 -12.58,-11.23 -0.55,-0.473 -1.09,-0.973 -1.67,-1.981 -4.75,-10.621 -13.07,-20.019 -14.26,-31.89 -0.64,-2.031 -1.27,-4.07 -2.39,-5.57 -0.91,-6.7 -1.84,-13.899 -2.73,-20.59 -2.72,-11.27 -4.39,-22.59 -5.56,-33.95 -0.84,-5.652 -1.14,-10.82 -1.46,-16.511 -0.23,-4.149 -1.01,-8.77 -1.25,-12.91 2.03,-9.969 0.95,-19.789 -0.64,-29.547 -0.03,-0.512 -0.05,-1.032 -0.08,-1.563 l 0.28,-4.168 c 1.54,-9.422 1.79,-14.101 1.78,-23.441 0.04,-0.789 0.15,-1.539 0.21,-2.309 -1.16,-0.992 -2.7,-2.59 -4.36,-3.383 -0.61,-0.41 -1.12,-0.296 -2.23,-0.609 -0.72,-0.91 -1.323,-1.309 -1.932,-1.719 -0.207,-1.019 -0.41,-2.031 -1.02,-2.441 -4.664,-4.891 -9.941,-12.828 -16.847,-15.668 -2.129,-2.75 -4.161,-5 -6.289,-7.731 -0.711,-0.921 -1.825,-1.218 -2.84,-1.031 -5.176,-4.769 -11.278,-8.847 -17.571,-11.289 -1.921,-1.738 -3.242,-3.058 -5.074,-4.269 -5.687,-4.692 -11.879,-6.621 -18.683,-6.34 l -0.516,0.097 c -5.18,-2.128 -11.176,-0.41 -15.254,5.684 -0.402,0.609 -0.805,1.207 -0.605,2.238 -1.829,1.41 -3.36,4.352 -3.973,6.59 -0.715,1.731 -1.02,2.84 -1.633,5.078 0,0 0.106,0.512 0.199,1.024 -1.519,2.937 -2.644,5.277 -3.562,8.629 -2.145,5.179 -2.656,10.558 -3.684,16.05 -0.406,3.258 0.305,4.168 2.235,5.899 1.929,1.73 3.754,2.949 5.679,4.68 4.875,3.261 9.344,7.121 14.215,10.39 9.039,5.602 14.52,14.539 19.988,23.5 2.442,4.27 4.868,8.539 7.305,12.801 3.141,5.187 4.246,10.789 4.754,15.961 0.699,8.84 -0.023,18.5 -4.809,26.308 -1.945,3.559 -4.992,6.809 -8.242,9.04 -4.273,2.429 -8.242,6.39 -12.613,8.308 -4.883,2.043 -9.25,1.313 -14.125,0.711 -5.484,-1.027 -10.77,-1.039 -16.254,-2.059 -4.473,-1.218 -8.434,-2.558 -11.988,-4.492 -4.164,-2.347 -7.008,-6.008 -10.758,-8.949 -8.633,-6.207 -15.938,-13.75 -21.004,-23.301 -5.172,-10.058 -10.949,-20.539 -13.684,-31.617 -5.66,-20.531 -6.546,-43.601 -0.019,-63.91 1.227,-4.481 2.555,-8.441 3.879,-12.402 0.512,-2.75 1.629,-5.079 2.144,-7.821 0.305,-1.129 0.516,-2.738 1.422,-3.449 1.532,-0.301 2.547,-3.16 3.364,-4.367 1.218,-1.832 2.847,-4.262 4.48,-6.703 1.73,-1.93 2.852,-4.25 4.578,-6.199 2.242,-2.032 4.578,-3.54 6.313,-5.481 1.218,-1.82 2.539,-3.141 3.867,-4.457 1.824,-1.422 3.558,-3.352 4.883,-4.672 0.507,-0.101 1.011,-0.199 1.519,-0.301 7.121,-4.058 15.055,-9.328 23.188,-10.937 5.586,-1.121 10.972,-0.602 16.965,0.328 2.234,0.602 4.062,1.832 5.89,3.051 5.688,2.031 8.535,3.051 13.914,6.219 l 1.219,0.8 c 0,0 1.727,0.719 1.828,1.231 -0.101,-0.512 3.453,1.429 3.453,1.429 4.27,2.84 3.653,2.45 8.731,4.071 l 2.336,1.121 c 0.101,0.508 2.433,1.629 2.433,1.629 0,0 0.715,0.918 2.543,2.14 2.438,1.618 4.875,3.258 7.82,4.789 2.54,2.129 4.766,5.379 6.899,8.129 l 0.605,0.411 c 1.321,1.312 2.133,2.75 3.454,4.07 3.453,4.07 7.507,8.539 11.464,12.519 3.961,3.95 6.293,7.723 10.143,11.192 0.11,0.508 0.11,0.508 0.21,1 1.93,1.738 3.86,3.469 5.78,5.199 0.85,1.469 1.67,2.82 2.48,4.18 0.3,-1.93 0.6,-3.871 0.83,-5.789 0.42,-1.582 0.37,-2.602 0.31,-3.641 -0.03,-0.52 -0.03,-0.52 -0.06,-1.039 0.49,-0.551 0.43,-1.582 0.86,-3.16 1.34,-3.711 2.2,-6.871 3.03,-10.551 0.89,-2.648 1.78,-5.301 2.66,-7.93 0.43,-1.59 1.35,-3.718 2.27,-5.851 0.43,-1.578 0.85,-3.16 0.77,-4.707 1.29,-4.742 2.57,-9.5 4.38,-14.25 3.12,-9.012 5.68,-9.672 9.83,-18.731 0.52,-0.019 0.49,-0.543 0.49,-0.543 2.5,-1.707 4.48,-3.379 5.86,-6.566 0.98,-1.09 1.97,-1.66 2.95,-2.774 10.88,-9.429 26.41,-10.308 37.43,1 4.97,5.434 8.98,11.942 12.98,18.473 3.37,4.469 5.27,10.598 9.64,14.488 2.22,2.473 3.95,5.493 5.71,9.032 0.51,-0.032 0.54,0.468 1.06,0.441 0.61,1.52 1.21,3.059 2.31,4.027 2.88,5.032 6.27,10.02 9.64,14.5 3.37,4.493 5.16,8.532 8.5,12.5 0.02,0.512 0.02,0.512 0.05,1.02 1.67,1.992 3.34,3.973 5.01,5.961 0.1,0.242 0.21,0.461 0.31,0.699 0.36,-3.207 0.72,-6.449 1.2,-9.687 2.18,-21.153 10.36,-39.211 18.62,-58.313 3.75,-8.019 7.97,-15.488 12.19,-22.957 3.59,-5.953 11.48,-13.641 17.91,-16.273 3.78,-1.77 8.07,-3.5 12.24,-3.707 4.18,-0.192 8.71,1.73 12.2,3.57 3.02,1.269 4.41,3.457 7.35,5.777 2.93,2.289 5.86,4.61 8.84,6.41 7.42,4.731 17.01,21.602 22.21,28.243 2.86,3.347 8.01,10.507 19.15,27.5 1.74,4.289 4.56,8.148 6.82,12.488 1.77,3.769 3.04,7.519 5.38,10.808 1.75,4.301 3.01,8.043 5.74,12.934 0.84,1.566 1.63,3.34 2.37,5.188 1.33,-1.391 2.68,-2.77 4.09,-4.09 2.86,-3.051 6.72,-5.848 10.46,-8.16 3.86,-2.821 7.75,-3.481 12.77,-4.43 4.39,-0.539 9.41,-1.488 13.91,-2.551 3.89,-0.668 9.53,-2.008 13.32,-0.019 1.91,0.98 2.55,2.73 4.45,3.718 1.77,1.473 4.18,2.571 6.58,3.692 4.18,2.582 8.35,5.16 13.04,7.879 2.51,-10.59 7.11,-36.661 8.98,-46.86 0.7,-5.16 -0.71,-8.16 -4.03,-12.148 -1.78,-1.481 -3.94,-3.59 -5.6,-5.582 -2.16,-2.11 -2.19,-4.25 -3.34,-6.11 -5.53,-10.371 -10.41,-18.98 -15.43,-29.23 -1.69,-4.117 -3.99,-7.867 -6.17,-12.109 -2.07,-4.758 -2.77,-10.782 -4.21,-15.911 -2.77,-10.777 -4.92,-21.937 -7.68,-32.711 -1.33,-5.636 2.04,-8.578 5.63,-12.519 3.59,-3.918 7.19,-7.867 11.3,-11.68 3.59,-3.949 8.08,-7.14 12.44,-9.84 1.88,-1.148 4.63,-1.558 7.01,-2.597 2.38,-1.024 5.26,-1.942 7.75,-3.473 4.24,-2.199 8.61,-4.879 11.97,-7.809 10.83,1.5 20.33,-2.628 31.12,-3.2808 1.91,0.9918 3.8,1.9918 5.81,2.4488 8.82,1.032 18.06,6.961 21.55,14.704 2.18,4.25 3.36,8.25 3.8,13.16 0.43,4.898 -1.27,9.82 -1.96,14.976 -0.6,2.524 -0.69,5.153 -1.29,7.672 -0.59,2.52 -2.2,4.82 -2.3,7.442 -0.6,2.519 -1.08,4.527 -1.16,7.187 0.28,3.25 -0.33,5.781 -1.04,8.801 -0.81,5.66 -1.5,10.82 -2.31,16.48 -0.81,5.68 -3.14,10.969 -3.95,16.641 -2.13,11.219 -3.75,22.539 -5.88,33.75 -1.32,5.539 -1.5,10.82 -2.83,16.371 -2.3,7.449 -3.58,15.137 -6.01,23.066 2.99,7.633 5.97,15.274 9.07,22.391 1.69,4.133 1.85,7.891 3.16,11.41 3.62,9.371 8,17.871 11.5,27.75 0.78,1.25 0.92,2.883 1.69,4.133 0.53,2.258 0.55,4.398 1.09,6.648 1.41,2.989 2.33,5.879 3.75,8.872 0.26,1.128 0.53,2.257 1.3,3.507 l 0.38,0.629 c 0.26,1.114 0.65,1.742 0.91,2.871 0.27,1.121 0.65,1.762 1.04,2.371 -0.24,1.02 0.14,1.641 0.53,2.258 0.51,0.121 0.26,1.121 0.64,1.762 -0.11,0.5 -0.11,0.5 -0.11,0.5 0.52,2.25 0.55,4.391 1.08,6.648 0.95,5.012 1.85,7.891 3.3,13.024 1.33,5.648 1.4,12.039 2.87,19.316 0.79,3.391 1.09,6.653 1.38,9.91 -1.28,-1.359 -2.55,-2.718 -3.44,-3.468" /><path
         id="path98"
         style="fill:#ffffff;fill-opacity:1;fill-rule:nonzero;stroke:none"
         d="m 1824.32,654.23 c 5.52,-2.101 10.95,-6.089 16.27,-9.359 2.82,-1.41 6.46,-3.441 8.67,-5.711 5.12,-4.379 9.21,-9.32 9.91,-16.262 0.64,-1.757 0.56,-3.617 1.2,-5.378 1.4,-4.231 -0.22,-8.188 -2.56,-12.25 -1.42,-2.821 -3.56,-5.75 -5.4,-8.25 -2.04,-3.649 -6.07,-3.891 -9.51,-3.321 -4.98,1.102 -9.65,2.59 -13.73,4.93 -3.11,1.012 -6.15,3.871 -7.32,6.66 -3.37,5.051 -6.13,10.922 -8.17,16.91 -2.25,7.43 -2.17,18.942 0.86,35.36 3.43,-0.598 6.55,-1.598 9.78,-3.329 z m -374.33,-87.039 c -1.62,-0.242 -2.86,4.36 -3.81,6.2 -2.64,5.05 -4.82,10.339 -7.7,15.847 -2.63,5.051 -5.97,10.321 -8.14,15.621 -1.95,4.832 -3.19,9.442 -1.89,14.801 0.21,1.86 0.84,5.11 2.68,6.059 1.59,1.429 4.15,1 6.03,-0.36 3.75,-2.699 5.03,-9.64 6.73,-14.007 2.42,-5.75 3.44,-11.071 3.78,-17.321 0.8,-6 1.38,-12.722 2.18,-18.742 0.28,-2.758 0.56,-5.539 0.14,-8.098 z m 281.04,127.18 c -4.98,1.078 -7.35,-0.391 -12.26,2.559 -3.76,2.761 -9.91,6.621 -9.98,11.8 -0.35,4.782 5.83,7.942 9.48,5.899 6.16,-3.859 9.63,-9.629 12.82,-15.809 0.63,-1.75 0.87,-3.199 1.08,-4.648 -0.42,0.297 -0.42,0.297 -1.14,0.199 z m 175.66,142.43 c 81.88,145.621 163.13,410.619 62.01,700.129 0,0 -55.8,181.92 -237.41,332.46 -112.54,93.29 -253.21,170.29 -439.79,191.03 0,0 -201.39,28.13 -399.871,-47.22 -183.805,-69.79 -391.957,-194.63 -504.188,-473.52 -0.039,0.09 -0.058,0.22 -0.121,0.24 0,0 -275.832,-560.842 199.68,-980.979 l 56.152,87.637 c 0,0 -65.488,44.66 -133.648,133.731 -30.242,39.531 -61.012,87.8 -86.816,144.793 -19.071,42.109 -37.036,77.318 -52.43,137.448 -25.52,99.66 -40.43,220.74 -6.27,391.54 1.367,6.84 9.133,30 11.664,39.16 0.196,0.72 0.407,1.46 0.61,2.2 1.523,3.72 3.242,8.15 5.226,13.64 40.903,113.09 154.274,282.65 323.707,361.72 0,0 195.789,112.95 506.295,94.94 136.6,-7.91 291.92,-49.76 443.33,-166.66 0,0 195,-139.13 270.71,-430.56 0,0 87.69,-259.74 -74.85,-581.51 -11.49,-22.719 -18.23,-35.348 -27.11,-53.969 -7.92,-16.61 -13.45,-32.121 -17.33,-46.52 -13.12,1.828 -26.99,3.008 -39.42,4.078 -3,0.27 -6.12,1.289 -9.55,1.871 -1.14,0.2 -4.87,0.348 -4.98,1.09 -1.07,2.051 -2.24,4.84 -2.27,7.43 -0.47,5.48 -5.73,13.199 -8.99,17.52 -2.42,3.699 -4.55,7.832 -8,10.992 -1.25,0.929 -2.09,1.539 -3.34,2.457 -4.91,2.953 -9.8,5.89 -15.82,6.453 -5.71,0.976 -10.15,-1.551 -14.58,-4.082 -4,-2.852 -5.2,-7.11 -7.84,-11.59 -2.85,-5.629 -3.55,-8.328 -1.82,-14.75 1.2,-5.359 3.52,-8.352 5.74,-13.191 0.64,-1.758 2.02,-3.399 2.96,-4.739 0.94,-1.34 1.48,-2.359 2.73,-3.289 4.06,-2.332 8.13,-4.672 12.51,-6.601 5.93,-2.41 11.76,-4.121 17.46,-5.09 l 9.09,-15.649 c 1.28,-3.519 3.2,-8.781 4.15,-10.121 0.93,-1.41 1.86,-2.98 2.78,-4.531 -0.01,-0.078 -0.04,-0.148 -0.04,-0.219 -0.08,-2.922 0.59,-5.14 0.53,-7.34 -0.07,-2.191 0.22,-5.511 -0.21,-8.05 -0.79,-2.192 0.23,-4.782 0.87,-8.469 0.63,-3.68 -0.12,-4.379 -0.89,-5.84 -0.02,-0.73 -0.06,-2.191 0.28,-3.301 -0.02,-0.73 0.33,-1.101 0.69,-1.48 1.37,-3.699 2.02,-6.66 2.28,-10.692 -0.4,-1.089 -0.06,-2.199 -0.1,-3.66 0,0 0,0 -0.02,-0.738 l 0.35,-0.371 c -0.02,-0.731 -0.02,-0.731 -0.03,-1.469 -0.02,-0.73 0.32,-1.828 0.65,-2.941 2.06,-5.188 3.75,-10.731 4.7,-16.239 -0.06,-2.21 -1.23,-4.75 -0.56,-6.96 0.67,-2.219 0.98,-4.79 0.92,-6.989 0.3,-2.57 1.32,-5.16 1.62,-7.742 0.3,-2.57 -0.12,-4.391 0.17,-6.961 0.6,-5.148 1.2,-10.308 2.15,-15.828 0.33,-1.828 3.31,-13.27 -1.75,-10.941 -5.07,2.339 -8.27,6.453 -12.18,10.582 -3.93,4.14 -7.09,9 -11.01,13.14 -3.92,4.129 -7.49,7.899 -11.05,11.649 -3.92,4.14 -9.32,7.57 -12.49,12.422 -1.43,1.5 -2.48,3.367 -3.53,5.226 -1.4,2.231 -1.35,4.442 -2.02,6.641 -0.67,2.23 -3.18,4.133 -4.24,5.992 -2.13,2.258 -3.89,4.859 -5.68,6.75 -3.55,4.48 -7.08,8.98 -10.99,13.848 -1.79,1.882 -4.3,3.793 -6.8,5.671 -2.16,1.532 -2.12,3 -3.53,5.231 -0.67,2.219 -2.46,4.109 -4.24,5.98 -1.4,2.239 -2.81,4.469 -4.22,6.707 -2.81,4.461 -7.11,8.262 -9.54,13.09 -1.4,2.223 4.63,8.66 6.13,10.082 1.53,2.168 2.68,3.969 3.46,6.149 -0.33,1.113 -0.64,2.941 -0.98,4.051 -0.34,1.109 -1.05,1.859 -1.76,2.621 l -2.29,-2.879 c -3.4,-3.93 -6.46,-8.992 -10.22,-12.543 -0.36,0.371 -0.72,0.75 -1.08,1.121 -1.06,1.129 -2.13,2.269 -3.18,4.109 -6.38,8.242 -11.22,18.621 -19.83,25.461 -4.31,3.781 -8.68,4.641 -14.52,5.531 -4.38,0.84 -8.02,1.661 -12.43,1.047 -2.58,-0.297 -4.79,-0.957 -7.38,-1.988 -1.48,-0.691 -4.78,-0.238 -6.59,0.172 -2.93,0.066 -3.68,-0.633 -5.22,-2.801 -1.5,-1.41 -3.32,-1 -4.11,-3.191 -0.77,-1.442 -1.19,-3.25 0.24,-4.77 0.69,-1.469 1.76,-2.59 1.34,-4.422 -1.58,-4.367 0.52,-8.09 2.27,-11.429 6.34,-9.688 12.29,-19.739 18.63,-29.45 2.81,-4.468 6.35,-8.961 8.42,-14.148 1.7,-4.813 4.13,-9.641 7.7,-13.41 2.84,-3.731 -3.12,-7.223 -5.02,-9.742 -3.78,-4.297 -7.21,-8.977 -10.63,-13.661 -1.13,-1.046 -3.76,-3.546 -3.45,-5.386 0.7,-1.481 3.63,-1.563 5.09,-1.602 4.4,-0.121 8.23,6.371 10.51,9.238 1.54,2.891 3.45,5.403 4.98,8.301 1.13,1.082 2.3,3.602 4.17,4.653 2.59,1.027 6.41,-6.782 7.45,-8.622 6.34,-9.699 13.42,-19.421 20.87,-28.05 4.32,-5.418 8.82,-10.649 13.26,-15.93 -0.23,-0.371 -0.48,-0.801 -0.68,-1.07 -0.87,-2.809 -0.37,-4.879 -1.03,-6.981 -0.66,-2.097 -1.31,-5.359 -2.88,-7.929 -1.35,-1.872 -0.84,-5.11 -1.47,-8.36 0.06,-3.488 -1.32,-4.191 -1.99,-5.14 -1.15,-1.18 -1.08,-4.649 -2.2,-6.981 -0.22,-0.711 -0.44,-1.41 -0.9,-1.641 -0.44,-1.41 -0.65,-2.097 -0.88,-2.796 0.24,-0.461 0.72,-1.383 0.96,-1.832 -0.22,-0.719 0.03,-1.168 -0.2,-1.872 0.02,-1.148 0.04,-2.308 0.06,-3.468 0,0 0.02,-1.16 -0.42,-2.559 0.25,-0.461 -0.17,-3.019 0.06,-3.473 l -0.22,-0.699 c -0.61,-4.418 -1.47,-8.367 -2.09,-12.789 -0.62,-4.41 0.16,-9.262 -0.22,-14.129 -0.2,-1.859 -1.57,-2.582 -1.07,-4.66 0.53,-4.402 0.51,-3.242 -1.04,-6.973 -0.66,-2.097 0.06,-3.476 -0.14,-5.328 -0.42,-2.558 -2.02,-3.968 -2.21,-5.832 -0.21,-1.867 0.28,-2.777 0.3,-3.937 0.29,-3.93 -0.32,-8.352 -1.18,-12.301 -0.86,-3.961 -0.58,-6.73 -0.98,-10.461 -0.48,0.93 -1.41,1.609 -2.14,2.992 -3.31,4.11 -8.31,11.438 -10.94,16.489 -1.2,2.3 -3.08,3.66 -4.5,5.261 -1.41,1.598 -1.22,3.449 -2.63,5.047 -1.18,1.141 -2.81,0.871 -3.98,2.024 -1.18,1.128 -0.98,2.988 -1.7,4.367 -1.68,3.211 -4.49,5.25 -6.63,8.222 -3.1,4.809 -5.95,9.18 -9.05,13.989 -6.42,8.922 -12.37,18.082 -19.24,26.781 -5.93,7.988 -14.17,14.801 -23.27,18.82 -4.19,1.309 -9.08,2.848 -13.72,2.778 -1.86,0.179 -4.17,0.152 -6.48,-1.059 -2.52,-0.73 -4.34,-2.852 -6.64,-4.051 -2.08,-0.5 -3.94,-0.301 -6.01,-0.789 -2.54,-0.738 -4.6,-2.398 -6.89,-3.601 -3.65,-3.079 -6.83,-7.071 -9.55,-10.829 -0.9,-1.64 -1.34,-3.039 -1.99,-5.128 -0.66,-2.102 -2.48,-4.211 -3.38,-5.852 -2.47,-4.219 -3.55,-8.871 -5.56,-12.852 -5.26,8.942 -10.3,18.602 -16.47,27.063 -2.61,3.898 -5.47,8.25 -7.87,12.84 -1.42,1.59 -3.08,3.648 -3.82,6.199 -0.51,3.23 -1.95,5.988 -2.94,8.98 -1.45,3.911 -4.76,8.02 -5.55,12.879 -0.03,2.313 0.86,3.95 1.27,6.512 0.42,2.559 0.84,5.117 0.56,7.879 0.3,9.5 0.36,19.469 -0.04,29.199 0.38,4.871 1,9.289 1.61,13.711 0.6,5.57 -0.42,10.879 -1.89,15.949 -2.96,10.153 -7.31,19.571 -15.53,26.379 -3.76,2.711 -7.25,3.813 -11.67,4.434 -6.02,0.359 -8.78,-1.07 -13.82,-4.871 -3.65,-3.09 -7.54,-5.699 -10.25,-9.461 -3.42,-3.52 -5.42,-8.66 -6.95,-13.551 -1.32,-4.199 -1.94,-8.609 -2.56,-13.027 0.02,-1.153 0.53,-4.383 -0.14,-5.332 -1.59,-1.418 -0.86,-3.95 -0.6,-5.571 1.59,-10.871 6.16,-20.75 9.58,-30.66 1.48,-5.07 2.95,-10.14 4.9,-14.969 1.47,-5.07 4.57,-9.89 6.29,-15.41 1.47,-5.082 3.87,-9.672 6.73,-14.039 3.1,-4.801 4.13,-10.121 5.6,-15.191 6.39,-21.199 15.11,-42.371 25.42,-62.121 2.39,-4.59 5.49,-9.399 7.89,-14 2.64,-5.047 5.49,-9.41 8.13,-14.457 1.94,-4.832 3.87,-9.66 5.82,-14.492 0.47,-0.93 0.95,-1.84 0.74,-2.551 -0.44,-1.379 0.49,-2.059 1.22,-3.449 1.43,-2.75 2.87,-5.5 3.85,-8.489 2.17,-5.293 4.35,-10.59 6.07,-16.121 1.36,1.86 2.84,-3.211 3.56,-4.582 0.74,-2.527 1.94,-4.84 2.67,-7.359 2.19,-5.289 3.45,-11.071 6.54,-15.887 2.62,-3.891 4.78,-8.023 8.32,-11.434 1.64,-0.91 3.75,-2.726 5.61,-2.918 2.55,-0.421 3.21,1.668 5.29,2.18 1.84,0.949 4.17,-0.16 5.57,-0.609 2.33,-1.11 4.89,-1.531 6.99,-2.192 2.1,-0.648 3.92,1.461 5.53,1.723 2.08,0.5 4.39,0.539 6.49,-0.133 1.4,-0.429 3.06,-2.48 4.68,-2.219 2.32,0.04 2.28,2.352 4.36,2.852 3.21,1.68 5.44,6.348 5.85,10.078 -0.05,2.309 -1.01,4.149 -2.21,6.43 -1.19,2.308 -2.39,4.601 -3.14,7.14 -2.17,5.301 -3.89,10.821 -6.07,16.122 -3.66,10.359 -9.38,20.23 -14.66,30.339 -5.28,10.09 -10.78,19.5 -15.59,29.84 -1.94,4.84 -5.26,8.957 -8.57,13.059 -3.32,4.121 -3.14,7.14 -0.91,11.801 3.78,9.57 6.63,18.668 14.62,25.769 2.28,2.34 5.95,4.262 9.01,1.75 3.29,-2.949 5.48,-8.238 8.08,-12.129 5.5,-9.41 11.69,-19.031 17.19,-28.422 2.85,-4.371 5.71,-8.718 8.36,-13.769 1.19,-2.301 2.17,-5.301 3.14,-8.281 0.71,-0.227 1.87,-0.207 2.35,-1.129 4.69,-3.399 8.03,-8.66 8.83,-14.668 0.47,-0.922 0.26,-1.633 0.04,-2.321 8.57,-13.07 18.51,-25.402 25.71,-39.179 0.95,-1.832 0.76,-3.703 0.32,-5.102 3.3,-2.949 6.51,-1.269 10.21,-0.512 5.52,1.723 11.35,-0.5 16.91,0.063 4.64,0.07 9.25,1.32 13.64,1.859 l 0.72,-1.379 0.24,-0.453 c 2.54,0.742 4.62,1.231 7.16,1.981 -0.29,2.769 -0.33,5.082 0.54,7.89 0.88,2.789 1.99,6.289 2.62,9.539 -0.04,2.313 -0.08,4.633 -0.13,6.954 0.47,0.25 0.47,0.25 0.47,0.25 -0.72,1.367 -0.28,2.777 -0.3,3.918 0.28,10.671 0.79,20.878 0.15,31.07 -0.44,12.051 -1.6,25.441 0.27,37.531 -0.48,0.918 -0.71,1.391 -1.2,2.301 -1.02,5.308 0.52,10.199 1.83,14.387 0.61,5.582 1.21,11.16 0.88,16.242 0.2,1.871 0.64,3.269 1.78,4.449 0.18,3.02 0.6,5.559 0.56,7.891 l -0.04,2.308 c 0,0 -0.07,3.473 -0.19,10.422 l -0.46,-0.23 c 0.2,1.847 0.18,3.019 0.39,4.859 -0.11,5.801 -1.61,12.031 -1.97,19.449 -0.02,1.281 -0.22,2.492 -0.41,3.699 2.36,-2.867 4.78,-5.679 6.96,-8.699 7.09,-8.988 13.05,-19.039 21.27,-26.949 4.28,-4.512 8.93,-8.68 13.23,-12.449 3.94,-3.41 8.27,-5.719 11.85,-8.742 4.66,-4.161 9.36,-6.86 14.42,-9.18 5.07,-2.328 7.98,-3.149 13.12,-2.559 5.15,0.602 9.48,-1.73 14.32,0.711 4.45,2.09 7.1,5.309 11.2,7.77 2.61,1.769 4.46,2.808 5.63,5.34 0.8,2.191 1.59,4.371 2.38,6.539 0.86,4.379 0.96,8.761 0.71,12.808 -0.58,5.883 -0.07,11.352 -1.02,16.891 -0.94,5.519 -2.27,10.68 -3.23,16.203 -2.25,11.418 -5.62,22.5 -8.26,33.566 -2.29,9.961 -4.24,19.543 -5.8,29.481 -1.76,2.609 -2.4,6.293 -1.57,9.93 -2.8,5.211 -2.97,12.171 -2.83,17.3 -0.3,0.832 -0.7,1.7 -1.03,2.551 0.22,-0.449 0.43,-0.808 0.66,-1.269 0.42,-0.289 0.76,-2.469 0.86,-3.2 0.42,-0.3 1.25,-0.91 1.25,-0.91 0,0 -0.41,0.297 -0.1,0.719 0.27,3.012 0.13,6.32 -0.09,7.77 0.19,1.152 -0.02,2.589 -0.25,4.039 -0.1,0.722 -0.22,1.453 -0.34,2.179 l -0.11,0.723 c 0,0 -0.1,0.719 0.2,1.141 -0.11,0.73 -0.22,1.437 -0.22,1.437 -1.06,2.082 -1.81,4.551 -2.14,6.731 -0.23,1.441 -0.87,3.191 -0.78,5.07 0,0 -0.12,0.719 -0.54,1.019 -1.39,4.231 -2.59,9.61 -3.57,13.539 0.31,0.422 -0.11,0.723 0.2,1.141 -0.83,0.621 -0.95,1.34 -1.48,2.371 l -0.02,2.59 c 6.43,-0.871 12.87,-1.73 19.42,-3.32 2.3,-0.59 24.84,-5.321 31.28,-6.95 -1.72,-11.07 -2.47,-21.269 -2.47,-30.429 l 0.29,0.519 c -1.69,-17.23 -0.36,-30.57 10.1,-51.621 0.11,-0.738 0.21,-1.449 0.21,-1.449 0.96,-1.352 1.9,-2.68 2.84,-4.012 0.54,-1.039 0.65,-1.758 1.18,-2.789 l 0.31,0.422 c 3.37,-5.051 7.77,-9.562 12.78,-13.23 2.92,-2.153 6.27,-4.59 9.92,-6.629 0.42,-0.313 0.83,-0.614 1.25,-0.922 11.34,-3.809 22.95,-4.629 33.88,1.512 1.75,0.628 3.39,2.007 5.04,3.367 2.98,2.312 6.68,4.742 9.24,7.363 3.79,4.289 7.05,9.609 10.42,14.207 1.23,1.66 2.45,3.34 3.26,5.313 1.31,3.539 1.78,7.679 3.1,11.218 1.69,5.828 2.66,11.539 2.08,17.739 -0.23,1.461 0.58,3.441 -2.12,4.14 0,0 -0.11,0.723 0.19,1.141 -0.63,1.75 -1.28,3.512 -1.5,4.949 -0.23,1.441 -0.45,2.91 -0.25,4.043 -0.53,1.039 -0.33,2.168 -0.87,3.199 -3.06,5.457 -6.85,10.821 -10.64,16.16 -3.26,4.309 -8.15,7.27 -10.5,12.848 -0.64,1.75 -4.19,3.063 -6.27,4.59 -1.14,0.191 -2.17,-0.34 -3,0.281 -4.6,3.36 -9.61,7.039 -14.94,10.301 -3.77,2.75 -7.71,4.371 -12.28,5.148 -2.6,-0.027 -4.87,0.371 -7.16,0.75 -4.01,1.129 -7.77,2.602 -11.75,3.782 5.39,15.019 15.38,38.808 32.69,67.66 13.72,22.847 33.37,54.308 50.62,85" /><path
         id="path100"
         style="fill:none;stroke:#ffffff;stroke-width:60;stroke-linecap:round;stroke-linejoin:miter;stroke-miterlimit:10;stroke-dasharray:none;stroke-opacity:1"
         d="M 1492.73,2234.04 C 1951.59,2091.27 2297.36,1663.07 2284.75,1157.37 2268.99,524.922 1780.01,30 1157.38,30 534.742,30 30,534.75 30,1157.37 c 0,263.14 90.145,505.22 241.238,697.04" /></g></g></svg>