<svg xmlns="http://www.w3.org/2000/svg" xmlns:xlink="http://www.w3.org/1999/xlink" version="1.1" x="0px" y="0px" viewBox="0 0 95 95"
    enable-background="new 0 0 95 95" height="95" width="95" xml:space="preserve" fill="#28FFF7">
    <path fill-rule="evenodd" clip-rule="evenodd" d="M15.44,24.406c-0.14,0.008-0.35,0.188-0.384,0.328  c-0.063,0.268-0.076,8.585-0.11,11.727c-0.009,0.853,0.025,1.714-0.087,2.554c-0.045,0.342-1.26,0.359-1.262-0.08  c0-0.083,0.07-8.934,0.104-13.261c0.001-0.251,0.045-0.842-0.035-1.07c-0.049-0.137-0.272-0.295-0.415-0.292  c-0.141,0.003-0.357,0.172-0.398,0.312c-0.077,0.266-0.232,9.845-0.34,14.078c-0.013,0.565-1.304,0.555-1.292,0.011  c0.093-4.332,0.263-13.98,0.186-14.21c-0.047-0.138-0.269-0.299-0.41-0.297c-0.142,0-0.36,0.167-0.403,0.305  c-0.079,0.264-0.103,0.689-0.114,0.973c-0.052,1.362-0.349,11.45-0.49,13.306c-0.024,0.317-1.033,0.288-1.203-0.056  c-0.075-0.149,0.333-11.183,0.357-13.49c-0.001-0.015,0.009-0.545-0.065-0.766c-0.046-0.138-0.269-0.299-0.409-0.299  c-0.141,0.001-0.361,0.168-0.404,0.306c-0.08,0.266-0.872,8.952-1.454,12.718c-0.498,3.227-0.344,6.212,1.836,8.839  c0.199,0.24,0.396,0.522,0.471,0.814c0.252,0.992,0.594,1.993,0.629,3c0.048,1.283-0.168,2.578-0.273,3.866  c-0.498,5.978-0.979,11.956-1.503,17.93c-0.191,2.175,0.945,3.787,2.869,3.916c1.975,0.132,3.354-1.33,3.312-3.594  c-0.038-2.083-0.146-4.165-0.228-6.246c-0.185-4.701-0.33-9.401-0.582-14.099c-0.112-2.122,0.115-4.078,1.516-5.787  c0.518-0.631,1.02-1.319,1.325-2.064c0.398-0.971,0.875-2.039,0.828-3.044c-0.245-5.074-1.05-15.831-1.141-16.055  C15.813,24.543,15.583,24.397,15.44,24.406z"
    />
    <path d="M85.833,48.354c0.001-7.604,0.004-23.601-0.051-23.987c-0.236-1.682-2.08-2.572-3.378-1.489  c-0.783,0.653-1.481,1.644-1.76,2.615c-0.563,1.966-1.282,16.916-1.319,22.355c-0.006,1.081,0.29,2.057,1.025,2.89  c0.664,0.752,0.835,1.645,0.738,2.65c-0.511,5.276-1.654,17.596-1.693,18.479c-0.08,1.812,1.181,3.251,2.952,3.412  c1.665,0.152,3.168-1.09,3.419-2.841C85.822,72.05,85.833,55.99,85.833,48.354z"
    />
    <path d="M30.632,26.02c-11.863,9.316-13.928,26.486-4.611,38.349c9.316,11.863,26.485,13.928,38.348,4.611  c11.863-9.316,13.928-26.486,4.611-38.349C59.663,18.768,42.494,16.704,30.632,26.02z M59.151,62.335  c-8.181,6.424-20.062,4.995-26.485-3.185c-6.425-8.18-4.996-20.061,3.184-26.484c8.18-6.425,20.062-4.996,26.484,3.185  C68.759,44.03,67.331,55.911,59.151,62.335z"
    />
    <g>
        <path d="M63.478,38.823c-4.784-8.81-15.844-12.085-24.654-7.301c-8.81,4.785-12.085,15.845-7.301,24.655   s15.844,12.085,24.654,7.301C64.987,58.693,68.262,47.633,63.478,38.823z M56.82,50.266c-1.239,1.232-2.56,2.383-3.855,3.556   c-1.784,1.614-3.582,3.215-5.373,4.821c-0.025,0.023-0.052,0.044-0.086,0.074c-0.026-0.017-0.058-0.03-0.081-0.051   c-2.294-2.043-4.586-4.088-6.879-6.132c-1.211-1.08-2.412-2.167-3.401-3.466c-1.184-1.556-1.767-3.319-1.894-5.258   c-0.07-1.08-0.09-2.154,0.268-3.189c0.848-2.45,2.565-3.92,5.13-4.262c2.905-0.388,5.06,0.901,6.669,3.245   c0.052,0.077,0.102,0.156,0.165,0.253c0.279-0.374,0.521-0.735,0.8-1.065c1.175-1.391,2.643-2.292,4.473-2.475   c3.513-0.352,6.444,1.919,6.909,5.165C60.146,44.842,59.261,47.838,56.82,50.266z"
        />
    </g>
    <!--<text x="0" y="110" fill="#000000" font-size="5px" font-weight="bold" font-family="'Helvetica Neue', Helvetica, Arial-Unicode, Arial, Sans-serif">Created by Lilit Kalachyan</text>
    <text x="0" y="115" fill="#000000" font-size="5px" font-weight="bold" font-family="'Helvetica Neue', Helvetica, Arial-Unicode, Arial, Sans-serif">from the Noun Project</text>-->
</svg>