<?xml version="1.0" encoding="UTF-8" standalone="no"?>
<svg
   xmlns:dc="http://purl.org/dc/elements/1.1/"
   xmlns:cc="http://creativecommons.org/ns#"
   xmlns:rdf="http://www.w3.org/1999/02/22-rdf-syntax-ns#"
   xmlns:svg="http://www.w3.org/2000/svg"
   xmlns="http://www.w3.org/2000/svg"
   xmlns:sodipodi="http://sodipodi.sourceforge.net/DTD/sodipodi-0.dtd"
   xmlns:inkscape="http://www.inkscape.org/namespaces/inkscape"
   viewBox="0 0 75.149239 89.999238"
   version="1.1"
   x="0px"
   y="0px"
   enable-background="new 0 0 29 75"
   height="89.999237"
   width="75.149239"
   id="svg16"
   sodipodi:docname="noun_649637_cc.svg"
   inkscape:version="0.92.2 (5c3e80d, 2017-08-06)">
  <metadata
     id="metadata22">
    <rdf:RDF>
      <cc:Work
         rdf:about="">
        <dc:format>image/svg+xml</dc:format>
        <dc:type
           rdf:resource="http://purl.org/dc/dcmitype/StillImage" />
        <dc:title>74 -Hotel Menu- (Solid)</dc:title>
      </cc:Work>
    </rdf:RDF>
  </metadata>
  <defs
     id="defs20" />
  <sodipodi:namedview
     pagecolor="#ffffff"
     bordercolor="#666666"
     borderopacity="1"
     objecttolerance="10"
     gridtolerance="10"
     guidetolerance="10"
     inkscape:pageopacity="0"
     inkscape:pageshadow="2"
     inkscape:window-width="2160"
     inkscape:window-height="1346"
     id="namedview18"
     showgrid="false"
     fit-margin-top="15"
     fit-margin-bottom="15"
     fit-margin-left="23.57462"
     fit-margin-right="23.57462"
     inkscape:zoom="3.1466667"
     inkscape:cx="38.06422"
     inkscape:cy="37.500001"
     inkscape:window-x="-11"
     inkscape:window-y="-11"
     inkscape:window-maximized="1"
     inkscape:current-layer="svg16" />
  <title
     id="title2">74 -Hotel Menu- (Solid)</title>
  <desc
     id="desc4">Created with Sketch.</desc>
  <g
     id="g14"
     style="fill:none;fill-rule:evenodd;stroke:none;stroke-width:1"
     transform="translate(23.56422,14.999238)">
    <g
       transform="translate(-495,-1242)"
       id="g12"
       style="fill:#602650">
      <g
         transform="translate(495,1242)"
         id="g10">
        <path
           d="m 14.0104,21 c -3.079,0 -5.559,2.128 -6.03,5 h 12.06 c -0.471,-2.872 -2.951,-5 -6.03,-5"
           id="path6"
           inkscape:connector-curvature="0" />
        <path
           d="m 22.0104,32 h -16 c -0.552,0 -1,-0.447 -1,-1 0,-0.553 0.448,-1 1,-1 h 16 c 0.552,0 1,0.447 1,1 0,0.553 -0.448,1 -1,1 z m -12,17 c 0,-0.553 0.448,-1 1,-1 h 6 c 0.552,0 1,0.447 1,1 0,0.553 -0.448,1 -1,1 h -6 c -0.552,0 -1,-0.447 -1,-1 z m 11,5 h -14 c -0.552,0 -1,-0.447 -1,-1 0,-0.553 0.448,-1 1,-1 h 14 c 0.552,0 1,0.447 1,1 0,0.553 -0.448,1 -1,1 z m 0,-51.416 V 10 H 5.4364 Z m -8,16.48 V 18 c 0,-0.553 0.448,-1 1,-1 0.552,0 1,0.447 1,1 v 1.064 c 4.059,0.473 7.111,3.785 7.111,7.936 0,0.553 -0.447,1 -1,1 H 6.8994 c -0.553,0 -1,-0.447 -1,-1 0,-4.151 3.052,-7.463 7.111,-7.936 z m 14,-9.064 h -4 V 1 c 0,-0.343 -0.176,-0.662 -0.466,-0.846 -0.29,-0.182 -0.655,-0.203 -0.964,-0.057 l -21,10 c -0.22,0.105 -0.383,0.283 -0.478,0.493 -0.015,0.033 -0.019,0.07 -0.03,0.105 -0.027,0.082 -0.047,0.166 -0.052,0.254 -0.001,0.018 -0.01,0.033 -0.01,0.051 v 48 c 0,0.553 0.448,1 1,1 h 26 c 0.552,0 1,-0.447 1,-1 V 11 c 0,-0.553 -0.448,-1 -1,-1 z"
           id="path8"
           inkscape:connector-curvature="0" />
      </g>
    </g>
  </g>
  <!--<text x="0" y="75" fill="#602650" font-size="5px" font-weight="bold" font-family="'Helvetica Neue', Helvetica, Arial-Unicode, Arial, Sans-serif">Created by Oliviu Stoian</text>
    <text x="0" y="80" fill="#602650" font-size="5px" font-weight="bold" font-family="'Helvetica Neue', Helvetica, Arial-Unicode, Arial, Sans-serif">from the Noun Project</text>-->
</svg>
