<svg xmlns="http://www.w3.org/2000/svg" xmlns:xlink="http://www.w3.org/1999/xlink" version="1.1" x="0px" y="0px" viewBox="0 0 100 112"
    enable-background="new 0 0 100 100" xml:space="preserve">
    <g>
        <path fill="#B0CC99" d="M8.534,46.081c-0.69,0-1.25-0.56-1.25-1.25V32.765c0-0.69,0.56-1.25,1.25-1.25s1.25,0.56,1.25,1.25v12.066   C9.784,45.521,9.224,46.081,8.534,46.081z"
        />
    </g>
    <g>
        <g>
            <path fill="#B0CC99" d="M12.702,86.225c-0.69,0-1.25-0.56-1.25-1.25V49.479c0-0.69,0.56-1.25,1.25-1.25s1.25,0.56,1.25,1.25    v35.495C13.952,85.665,13.392,86.225,12.702,86.225z"
            />
        </g>
        <g>
            <path fill="#B0CC99" d="M12.687,50.358c-2.942,0-5.336-2.449-5.336-5.46c0-0.69,0.56-1.25,1.25-1.25s1.25,0.56,1.25,1.25    c0,1.632,1.272,2.96,2.836,2.96c0.69,0,1.25,0.56,1.25,1.25S13.377,50.358,12.687,50.358z"
            />
        </g>
        <g>
            <path fill="#B0CC99" d="M12.459,46.081c-0.69,0-1.25-0.56-1.25-1.25V32.765c0-0.69,0.56-1.25,1.25-1.25s1.25,0.56,1.25,1.25    v12.066C13.709,45.521,13.149,46.081,12.459,46.081z"
            />
        </g>
    </g>
    <g>
        <path fill="#B0CC99" d="M16.358,46.081c-0.69,0-1.25-0.56-1.25-1.25V32.765c0-0.69,0.56-1.25,1.25-1.25s1.25,0.56,1.25,1.25v12.066   C17.608,45.521,17.048,46.081,16.358,46.081z"
        />
    </g>
    <g>
        <path fill="#B0CC99" d="M91.164,86.49L91.164,86.49c-0.69,0-1.25-0.56-1.25-1.25c0-0.425,0.003-35.414,0.001-47.628   c-1.841,4.31-4.183,11.774-4.183,13.62c0,2.496,1.853,2.766,2.649,2.766c0.69,0,1.25,0.56,1.25,1.25s-0.56,1.25-1.25,1.25   c-3.08,0-5.149-2.116-5.149-5.266c0-1.606,4.413-19.029,7.932-19.029c0.081,0,0.162,0.008,0.241,0.023   c1.009,0.198,1.009,0.32,1.01,3.452l0,5.866L92.414,85.24C92.414,85.931,91.854,86.49,91.164,86.49z"
        />
    </g>
    <g>
        <path fill="#B0CC99" d="M49.69,92.77c-17.364,0-31.49-14.127-31.49-31.49s14.126-31.49,31.49-31.49s31.49,14.127,31.49,31.49   S67.054,92.77,49.69,92.77z M49.69,32.666c-15.778,0-28.614,12.836-28.614,28.613S33.912,89.893,49.69,89.893   s28.614-12.836,28.614-28.613S65.468,32.666,49.69,32.666z"
        />
    </g>
    <g>
        <path fill="#B0CC99" d="M49.69,83.443c-12.221,0-22.164-9.943-22.164-22.164s9.942-22.164,22.164-22.164   s22.164,9.943,22.164,22.164S61.911,83.443,49.69,83.443z M49.69,41.992c-10.635,0-19.288,8.652-19.288,19.287   s8.652,19.287,19.288,19.287s19.288-8.652,19.288-19.287S60.325,41.992,49.69,41.992z"
        />
    </g>
    <!--<text x="0" y="115" fill="#B0CC99" font-size="5px" font-weight="bold" font-family="'Helvetica Neue', Helvetica, Arial-Unicode, Arial, Sans-serif">Created by Oriane Juster</text>
    <text x="0" y="120" fill="#B0CC99" font-size="5px" font-weight="bold" font-family="'Helvetica Neue', Helvetica, Arial-Unicode, Arial, Sans-serif">from the Noun Project</text>-->
</svg>