<svg xmlns="http://www.w3.org/2000/svg" xmlns:xlink="http://www.w3.org/1999/xlink" version="1.1" x="0px" y="0px" viewBox="0 0 70.961 90.05250000000001"
    enable-background="new 0 0 70.961 72.042" xml:space="preserve" height="71" width="71">
    <path fill-rule="evenodd" clip-rule="evenodd" fill="#001440" d="M6.737,72.042h26.534c1.927,0,3.497-1.195,3.497-2.658  c0-2.068,0,1.447,0-0.619h-3.497H6.737H3.241c0,2.066,0-1.449,0,0.619C3.241,70.847,4.814,72.042,6.737,72.042L6.737,72.042z"
    />
    <path fill-rule="evenodd" clip-rule="evenodd" fill="#001440" d="M4.177,68.132h31.659c2.297,0,4.173-1.879,4.173-4.174v-2.383  l-1.396-0.807v-2.492l-2.157,1.246l-2.466-1.42v-2.844l2.161-1.246l-2.161-1.248v-2.846l2.466-1.42l3.554,2.053v-6.244l-3.554,2.053  l-2.466-1.426v-2.844l2.161-1.244l-2.161-1.246v-2.844l2.466-1.422l2.157,1.246v-2.492l1.396-0.807v-5.768v-4.174h-4.173H4.177H0  v4.174V58.47v5.488C0,66.253,1.879,68.132,4.177,68.132L4.177,68.132z M3.235,27.4h3.266v14.982H3.235V27.4L3.235,27.4z"
    />
    <path fill-rule="evenodd" clip-rule="evenodd" fill="#001440" d="M4.177,0h31.659c2.297,0,4.173,1.879,4.173,4.174v5.492v7.887  v4.176h-4.173H4.177H0v-4.176V9.666V4.173C0,1.878,1.879,0,4.177,0L4.177,0z M3.235,7.525h3.266v11.008H3.235V7.525L3.235,7.525z"
    />
    <polygon fill-rule="evenodd" clip-rule="evenodd" fill="#001440" points="52.477,26.085 54.939,27.507 54.939,30 57.095,28.753   59.562,30.175 59.562,33.019 54.939,35.687 54.939,43.164 61.414,39.425 61.414,34.089 63.876,32.667 66.341,34.089 66.341,36.582   68.499,35.335 70.961,36.757 70.961,39.601 68.8,40.847 70.961,42.091 70.961,44.935 68.499,46.361 63.876,43.691 57.401,47.429   63.876,51.167 68.499,48.5 70.961,49.919 70.961,52.765 68.8,54.013 70.961,55.259 70.961,58.103 68.499,59.523 66.341,58.277   66.341,60.769 63.876,62.191 61.414,60.769 61.414,55.433 54.939,51.695 54.939,59.169 59.562,61.839 59.562,64.683 57.095,66.105   54.939,64.861 54.939,67.351 52.477,68.775 50.011,67.351 50.011,64.861 47.854,66.105 45.394,64.683 45.394,61.839 50.011,59.169   50.011,51.695 43.539,55.433 43.539,60.769 41.075,62.191 40.009,61.576 40.009,50.552 41.075,51.167 47.55,47.429 41.075,43.691   40.009,44.308 40.009,33.283 41.075,32.667 43.539,34.089 43.539,39.425 50.011,43.164 50.011,35.687 45.394,33.019 45.394,30.175   47.854,28.753 50.011,30 50.011,27.507 52.477,26.085 "
    />
    <!--<text x="0" y="87.042" fill="#001440" font-size="5px" font-weight="bold" font-family="'Helvetica Neue', Helvetica, Arial-Unicode, Arial, Sans-serif">Created by Toni Bordoy Escudero</text>
    <text x="0" y="92.042" fill="#001440" font-size="5px" font-weight="bold" font-family="'Helvetica Neue', Helvetica, Arial-Unicode, Arial, Sans-serif">from the Noun Project</text>-->
</svg>