<svg xmlns="http://www.w3.org/2000/svg" xmlns:xlink="http://www.w3.org/1999/xlink" viewBox="0 0 29 75" version="1.1" x="0px"
    y="0px" enable-background="new 0 0 29 75" height="75" width="29">
    <title>74 -Hotel Menu- (Solid)</title>
    <desc>Created with Sketch.</desc>
    <g stroke="none" stroke-width="1" fill="none" fill-rule="evenodd">
        <g transform="translate(-495.000000, -1242.000000)" fill="#001440">
            <g transform="translate(495.000000, 1242.000000)">
                <path d="M14.0104,21 C10.9314,21 8.4514,23.128 7.9804,26 L20.0404,26 C19.5694,23.128 17.0894,21 14.0104,21" />
                <path d="M22.0104,32 L6.0104,32 C5.4584,32 5.0104,31.553 5.0104,31 C5.0104,30.447 5.4584,30 6.0104,30 L22.0104,30 C22.5624,30 23.0104,30.447 23.0104,31 C23.0104,31.553 22.5624,32 22.0104,32 L22.0104,32 Z M10.0104,49 C10.0104,48.447 10.4584,48 11.0104,48 L17.0104,48 C17.5624,48 18.0104,48.447 18.0104,49 C18.0104,49.553 17.5624,50 17.0104,50 L11.0104,50 C10.4584,50 10.0104,49.553 10.0104,49 L10.0104,49 Z M21.0104,54 L7.0104,54 C6.4584,54 6.0104,53.553 6.0104,53 C6.0104,52.447 6.4584,52 7.0104,52 L21.0104,52 C21.5624,52 22.0104,52.447 22.0104,53 C22.0104,53.553 21.5624,54 21.0104,54 L21.0104,54 Z M21.0104,2.584 L21.0104,10 L5.4364,10 L21.0104,2.584 Z M13.0104,19.064 L13.0104,18 C13.0104,17.447 13.4584,17 14.0104,17 C14.5624,17 15.0104,17.447 15.0104,18 L15.0104,19.064 C19.0694,19.537 22.1214,22.849 22.1214,27 C22.1214,27.553 21.6744,28 21.1214,28 L6.8994,28 C6.3464,28 5.8994,27.553 5.8994,27 C5.8994,22.849 8.9514,19.537 13.0104,19.064 L13.0104,19.064 Z M27.0104,10 L23.0104,10 L23.0104,1 C23.0104,0.657 22.8344,0.338 22.5444,0.154 C22.2544,-0.028 21.8894,-0.049 21.5804,0.097 L0.5804,10.097 C0.3604,10.202 0.1974,10.38 0.1024,10.59 C0.0874,10.623 0.0834,10.66 0.0724,10.695 C0.0454,10.777 0.0254,10.861 0.0204,10.949 C0.0194,10.967 0.0104,10.982 0.0104,11 L0.0104,59 C0.0104,59.553 0.4584,60 1.0104,60 L27.0104,60 C27.5624,60 28.0104,59.553 28.0104,59 L28.0104,11 C28.0104,10.447 27.5624,10 27.0104,10 L27.0104,10 Z"
                />
            </g>
        </g>
    </g>
    <!--<text x="0" y="75" fill="#001440" font-size="5px" font-weight="bold" font-family="'Helvetica Neue', Helvetica, Arial-Unicode, Arial, Sans-serif">Created by Oliviu Stoian</text>
    <text x="0" y="80" fill="#001440" font-size="5px" font-weight="bold" font-family="'Helvetica Neue', Helvetica, Arial-Unicode, Arial, Sans-serif">from the Noun Project</text>-->
</svg>