<?xml version="1.0" encoding="UTF-8" standalone="no"?>
<svg
   xmlns:dc="http://purl.org/dc/elements/1.1/"
   xmlns:cc="http://creativecommons.org/ns#"
   xmlns:rdf="http://www.w3.org/1999/02/22-rdf-syntax-ns#"
   xmlns:svg="http://www.w3.org/2000/svg"
   xmlns="http://www.w3.org/2000/svg"
   xmlns:sodipodi="http://sodipodi.sourceforge.net/DTD/sodipodi-0.dtd"
   xmlns:inkscape="http://www.inkscape.org/namespaces/inkscape"
   version="1.1"
   x="0px"
   y="0px"
   viewBox="0 0 112.00002 112.00002"
   enable-background="new 0 0 100 125"
   height="112.00002"
   width="112.00002"
   id="svg6"
   sodipodi:docname="noun_782390_cc.svg"
   inkscape:version="0.92.2 (5c3e80d, 2017-08-06)">
  <metadata
     id="metadata12">
    <rdf:RDF>
      <cc:Work
         rdf:about="">
        <dc:format>image/svg+xml</dc:format>
        <dc:type
           rdf:resource="http://purl.org/dc/dcmitype/StillImage" />
        <dc:title></dc:title>
      </cc:Work>
    </rdf:RDF>
  </metadata>
  <defs
     id="defs10" />
  <sodipodi:namedview
     pagecolor="#ffffff"
     bordercolor="#666666"
     borderopacity="1"
     objecttolerance="10"
     gridtolerance="10"
     guidetolerance="10"
     inkscape:pageopacity="0"
     inkscape:pageshadow="2"
     inkscape:window-width="2160"
     inkscape:window-height="1346"
     id="namedview8"
     showgrid="false"
     fit-margin-top="15"
     fit-margin-bottom="15"
     fit-margin-left="34.00001"
     fit-margin-right="34.00001"
     inkscape:zoom="1.888"
     inkscape:cx="56.00001"
     inkscape:cy="43.499998"
     inkscape:window-x="-11"
     inkscape:window-y="-11"
     inkscape:window-maximized="1"
     inkscape:current-layer="svg6" />
  <g
     transform="translate(6.00001,-946.36218)"
     id="g4">
    <path
       style="color:#602650;display:inline;overflow:visible;visibility:visible;fill:#602650;stroke:none;enable-background:accumulate"
       d="m 50,961.36218 c -4.79326,0 -8.64756,2.6385 -10,7 -3.95036,0.9426 -7,3.7492 -7,8 0,4.382 2.86528,8.1969 7,9 v 6 h 20 v -6 c 4.13472,-0.8031 7,-4.618 7,-9 0,-4.2508 -3.04964,-7.0574 -7,-8 -1.35244,-4.3615 -5.20673,-7 -10,-7 z m -9.1875,32 c -0.53024,1.2201 -0.8125,2.5848 -0.8125,4 0,5.52282 4.47715,10.00002 10,10.00002 5.52285,0 10,-4.4772 10,-10.00002 0,-1.4152 -0.28226,-2.7799 -0.8125,-4 z M 50,1010.3622 c -11.634,0 -22,5.1058 -22,12 v 21 h 16 v -23 c -0.0041,-0.5325 0.215129,-1.0631 0.59375,-1.4375 l 8.4375,-8.4375 c -1.000492,-0.077 -2.004767,-0.125 -3.03125,-0.125 z m 7.96875,0.8437 L 48,1021.1747 v 22.1875 h 24 v -21 c 0,-5.2512 -6.023881,-9.4461 -14.03125,-11.1563 z M 54,1020.3622 c 1.104569,0 2,0.8954 2,2 0,1.1046 -0.895431,2 -2,2 -1.104569,0 -2,-0.8954 -2,-2 0,-1.1046 0.895431,-2 2,-2 z m 0,7 c 1.104569,0 2,0.8954 2,2 0,1.1046 -0.895431,2 -2,2 -1.104569,0 -2,-0.8954 -2,-2 0,-1.1046 0.895431,-2 2,-2 z m 0,7 c 1.104569,0 2,0.8954 2,2 0,1.1046 -0.895431,2 -2,2 -1.104569,0 -2,-0.8954 -2,-2 0,-1.1046 0.895431,-2 2,-2 z"
       marker="none"
       visibility="visible"
       display="inline"
       overflow="visible"
       id="path2"
       inkscape:connector-curvature="0" />
  </g>
  <!--<text x="0" y="115" fill="#602650" font-size="5px" font-weight="bold" font-family="'Helvetica Neue', Helvetica, Arial-Unicode, Arial, Sans-serif">Created by iconsphere</text>
    <text x="0" y="120" fill="#602650" font-size="5px" font-weight="bold" font-family="'Helvetica Neue', Helvetica, Arial-Unicode, Arial, Sans-serif">from the Noun Project</text>-->
</svg>
