<?xml version="1.0" encoding="UTF-8" standalone="no"?>
<svg
   xmlns:dc="http://purl.org/dc/elements/1.1/"
   xmlns:cc="http://creativecommons.org/ns#"
   xmlns:rdf="http://www.w3.org/1999/02/22-rdf-syntax-ns#"
   xmlns:svg="http://www.w3.org/2000/svg"
   xmlns="http://www.w3.org/2000/svg"
   xmlns:sodipodi="http://sodipodi.sourceforge.net/DTD/sodipodi-0.dtd"
   xmlns:inkscape="http://www.inkscape.org/namespaces/inkscape"
   version="1.1"
   x="0px"
   y="0px"
   viewBox="0 0 86.752316 110.09235"
   enable-background="new 0 0 70.961 72.042"
   xml:space="preserve"
   height="86.799995"
   width="86.799995"
   id="svg10"
   sodipodi:docname="noun_172620_cc.svg"
   inkscape:version="0.92.2 (5c3e80d, 2017-08-06)"><metadata
     id="metadata16"><rdf:RDF><cc:Work
         rdf:about=""><dc:format>image/svg+xml</dc:format><dc:type
           rdf:resource="http://purl.org/dc/dcmitype/StillImage" /><dc:title></dc:title></cc:Work></rdf:RDF></metadata><defs
     id="defs14" /><sodipodi:namedview
     pagecolor="#ffffff"
     bordercolor="#666666"
     borderopacity="1"
     objecttolerance="10"
     gridtolerance="10"
     guidetolerance="10"
     inkscape:pageopacity="0"
     inkscape:pageshadow="2"
     inkscape:window-width="2160"
     inkscape:window-height="1346"
     id="namedview12"
     showgrid="false"
     fit-margin-top="15"
     fit-margin-bottom="15"
     fit-margin-left="15.426145"
     fit-margin-right="15.426145"
     inkscape:zoom="3.3239437"
     inkscape:cx="44.995572"
     inkscape:cy="36.299991"
     inkscape:window-x="-11"
     inkscape:window-y="-11"
     inkscape:window-maximized="1"
     inkscape:current-layer="svg10" /><path
     d="m 18.780662,91.067177 h 26.534 c 1.927,0 3.497,-1.195 3.497,-2.658 0,-2.068 0,1.447 0,-0.619 h -3.497 -26.534 -3.496 c 0,2.066 0,-1.449 0,0.619 0,1.463 1.573,2.658 3.496,2.658 z"
     id="path2"
     inkscape:connector-curvature="0"
     style="clip-rule:evenodd;fill:#602650;fill-rule:evenodd" /><path
     d="m 16.220662,87.157177 h 31.659 c 2.297,0 4.173,-1.879 4.173,-4.174 v -2.383 l -1.396,-0.807 v -2.492 l -2.157,1.246 -2.466,-1.42 v -2.844 l 2.161,-1.246 -2.161,-1.248 v -2.846 l 2.466,-1.42 3.554,2.053 v -6.244 l -3.554,2.053 -2.466,-1.426 v -2.844 l 2.161,-1.244 -2.161,-1.246 v -2.844 l 2.466,-1.422 2.157,1.246 v -2.492 l 1.396,-0.807 v -5.768 -4.174 h -4.173 -31.659 -4.177 v 4.174 30.957 5.488 c 0,2.295 1.879,4.174 4.177,4.174 z m -0.942,-40.732 h 3.266 v 14.982 h -3.266 z"
     id="path4"
     inkscape:connector-curvature="0"
     style="clip-rule:evenodd;fill:#602650;fill-rule:evenodd" /><path
     d="m 16.220662,19.025177 h 31.659 c 2.297,0 4.173,1.879 4.173,4.174 v 5.492 7.887 4.176 h -4.173 -31.659 -4.177 v -4.176 -7.887 -5.493 c 0,-2.295 1.879,-4.173 4.177,-4.173 z m -0.942,7.525 h 3.266 v 11.008 h -3.266 z"
     id="path6"
     inkscape:connector-curvature="0"
     style="clip-rule:evenodd;fill:#602650;fill-rule:evenodd" /><polygon
     points="61.414,39.425 61.414,34.089 63.876,32.667 66.341,34.089 66.341,36.582 68.499,35.335 70.961,36.757 70.961,39.601 68.8,40.847 70.961,42.091 70.961,44.935 68.499,46.361 63.876,43.691 57.401,47.429 63.876,51.167 68.499,48.5 70.961,49.919 70.961,52.765 68.8,54.013 70.961,55.259 70.961,58.103 68.499,59.523 66.341,58.277 66.341,60.769 63.876,62.191 61.414,60.769 61.414,55.433 54.939,51.695 54.939,59.169 59.562,61.839 59.562,64.683 57.095,66.105 54.939,64.861 54.939,67.351 52.477,68.775 50.011,67.351 50.011,64.861 47.854,66.105 45.394,64.683 45.394,61.839 50.011,59.169 50.011,51.695 43.539,55.433 43.539,60.769 41.075,62.191 40.009,61.576 40.009,50.552 41.075,51.167 47.55,47.429 41.075,43.691 40.009,44.308 40.009,33.283 41.075,32.667 43.539,34.089 43.539,39.425 50.011,43.164 50.011,35.687 45.394,33.019 45.394,30.175 47.854,28.753 50.011,30 50.011,27.507 52.477,26.085 54.939,27.507 54.939,30 57.095,28.753 59.562,30.175 59.562,33.019 54.939,35.687 54.939,43.164 "
     id="polygon8"
     style="clip-rule:evenodd;fill:#602650;fill-rule:evenodd"
     transform="translate(12.043662,19.025177)" /><!--<text x="0" y="87.042" fill="#602650" font-size="5px" font-weight="bold" font-family="'Helvetica Neue', Helvetica, Arial-Unicode, Arial, Sans-serif">Created by Toni Bordoy Escudero</text>
    <text x="0" y="92.042" fill="#602650" font-size="5px" font-weight="bold" font-family="'Helvetica Neue', Helvetica, Arial-Unicode, Arial, Sans-serif">from the Noun Project</text>--></svg>